<?xml version="1.0" encoding="UTF-8" standalone="no"?>
<!DOCTYPE svg PUBLIC "-//W3C//DTD SVG 1.1//EN" "http://www.w3.org/Graphics/SVG/1.1/DTD/svg11.dtd">
<svg class="railroad-diagram" width="245" height="214" viewBox="0 0 245 214" id="artigo_definido" xmlns="http://www.w3.org/2000/svg" xmlns:xlink="http://www.w3.org/1999/xlink"><g transform="translate(.5 .5)"><g><path d="M20 21v20m0 -10h20"></path></g><g><path d="M40 31h0"></path><path d="M205 31h0"></path><path d="M40 31h20"></path><g><path d="M60 31h29.75"></path><g><path d="M89.75 31h10"></path><path d="M145.25 31h10"></path><g class="terminal "><path d="M99.75 31h0"></path><path d="M145.25 31h0"></path><rect x="99.75" y="20" width="45.5" height="22"></rect><text x="122.5" y="35">'o'</text></g></g><path d="M155.25 31h29.75"></path></g><path d="M185 31h20"></path><path d="M40 31a10 10 0 0 1 10 10v18a10 10 0 0 0 10 10"></path><g><path d="M60 69h29.75"></path><g><path d="M89.75 69h10"></path><path d="M145.25 69h10"></path><g class="terminal "><path d="M99.75 69h0"></path><path d="M145.25 69h0"></path><rect x="99.75" y="58" width="45.5" height="22"></rect><text x="122.5" y="73">'a'</text></g></g><path d="M155.25 69h29.75"></path></g><path d="M185 69a10 10 0 0 0 10 -10v-18a10 10 0 0 1 10 -10"></path><path d="M40 31a10 10 0 0 1 10 10v56a10 10 0 0 0 10 10"></path><g><path d="M60 107h25.5"></path><g><path d="M85.5 107h10"></path><path d="M149.5 107h10"></path><g class="terminal "><path d="M95.5 107h0"></path><path d="M149.5 107h0"></path><rect x="95.5" y="96" width="54" height="22"></rect><text x="122.5" y="111">'os'</text></g></g><path d="M159.5 107h25.5"></path></g><path d="M185 107a10 10 0 0 0 10 -10v-56a10 10 0 0 1 10 -10"></path><path d="M40 31a10 10 0 0 1 10 10v94a10 10 0 0 0 10 10"></path><g><path d="M60 145h25.5"></path><g><path d="M85.5 145h10"></path><path d="M149.5 145h10"></path><g class="terminal "><path d="M95.5 145h0"></path><path d="M149.5 145h0"></path><rect x="95.5" y="134" width="54" height="22"></rect><text x="122.5" y="149">'as'</text></g></g><path d="M159.5 145h25.5"></path></g><path d="M185 145a10 10 0 0 0 10 -10v-94a10 10 0 0 1 10 -10"></path><path d="M40 31a10 10 0 0 1 10 10v132a10 10 0 0 0 10 10"></path><g><path d="M60 183h0"></path><g><path d="M60 183h10"></path><path d="M175 183h10"></path><g class="non-terminal "><path d="M70 183h0"></path><path d="M175 183h0"></path><rect x="70" y="172" width="105" height="22" rx="10" ry="10"></rect><text x="122.5" y="187">adjacentes</text></g></g><path d="M185 183h0"></path></g><path d="M185 183a10 10 0 0 0 10 -10v-132a10 10 0 0 1 10 -10"></path></g><path d="M 205 31 h 20 m 0 -10 v 20"></path></g><defs><style type="text/css"><![CDATA[
svg.railroad-diagram path { stroke-width: 2; stroke: darkgray; fill: rgba(0, 0, 0, 0);}/* All text except comments. */svg.railroad-diagram text { font: bold 12px Hack, "Source Code Pro", monospace; text-anchor: middle; fill: #404040;}/* Comment text */svg.railroad-diagram text.comment { font: italic 10px Hack, "Source Code Pro", monospace; fill: #404040;}/* The terminal boxes. */svg.railroad-diagram g.terminal rect { stroke-width: 2; stroke: #404040; fill: rgba(200, 200, 200, 1);}svg.railroad-diagram g.non-terminal rect { /* The non-terminal boxes. */ stroke-width: 2; stroke: #404040; fill: rgba(255, 255, 255, 1);}/* Multiple choice text, not working atm. */svg.railroad-diagram text.diagram-text { font-size: 12px Hack, "Source Code Pro", monospace; fill: red;}/* Multiple choice text, not working atm. */svg.railroad-diagram path.diagram-text { stroke-width: 1; stroke: red; fill: red; cursor: help;}
 ]]>
</style></defs></svg>