<?xml version="1.0" encoding="UTF-8" standalone="no"?>
<!DOCTYPE svg PUBLIC "-//W3C//DTD SVG 1.1//EN" "http://www.w3.org/Graphics/SVG/1.1/DTD/svg11.dtd">
<svg class="railroad-diagram" width="842.5" height="154" viewBox="0 0 842.5 154" id="campo" xmlns="http://www.w3.org/2000/svg" xmlns:xlink="http://www.w3.org/1999/xlink"><g transform="translate(.5 .5)"><g><path d="M20 37v20m0 -10h20"></path></g><g><path d="M40 47h0"></path><path d="M802.5 47h0"></path><path d="M40 47h20"></path><g><path d="M60 47h0"></path><g><path d="M60 47h10"></path><path d="M772.5 47h10"></path><g><path d="M70 47h0"></path><path d="M368.5 47h0"></path><path d="M70 47h20"></path><g><path d="M90 47h37"></path><g><path d="M127 47h10"></path><path d="M301.5 47h10"></path><g class="non-terminal "><path d="M137 47h0"></path><path d="M301.5 47h0"></path><rect x="137" y="36" width="164.5" height="22" rx="10" ry="10"></rect><text x="219.25" y="51">artigo_indefinido</text></g></g><path d="M311.5 47h37"></path></g><path d="M348.5 47h20"></path><path d="M70 47a10 10 0 0 1 10 10v18a10 10 0 0 0 10 10"></path><g><path d="M90 85h0"></path><g><path d="M90 85h10"></path><path d="M338.5 85h10"></path><g class="non-terminal "><path d="M100 85h0"></path><path d="M239 85h0"></path><rect x="100" y="74" width="139" height="22" rx="10" ry="10"></rect><text x="169.5" y="89">numero_inteiro</text></g><path d="M239 85h10"></path><path d="M249 85h10"></path><g class="terminal "><path d="M259 85h0"></path><path d="M338.5 85h0"></path><rect x="259" y="74" width="79.5" height="22"></rect><text x="298.75" y="89">'bytes'</text></g></g><path d="M348.5 85h0"></path></g><path d="M348.5 85a10 10 0 0 0 10 -10v-18a10 10 0 0 1 10 -10"></path></g><g><path d="M368.5 47h0"></path><path d="M772.5 47h0"></path><path d="M368.5 47a10 10 0 0 0 10 -10v-7a10 10 0 0 1 10 -10"></path><g><path d="M388.5 20h364"></path></g><path d="M752.5 20a10 10 0 0 1 10 10v7a10 10 0 0 0 10 10"></path><path d="M368.5 47h20"></path><g><path d="M388.5 47h0"></path><path d="M752.5 47h0"></path><path d="M388.5 47h20"></path><g><path d="M408.5 47h54"></path><g><path d="M462.5 47h10"></path><path d="M668.5 47h10"></path><g class="non-terminal "><path d="M472.5 47h0"></path><path d="M594.5 47h0"></path><rect x="472.5" y="36" width="122" height="22" rx="10" ry="10"></rect><text x="533.5" y="51">denominacoes</text></g><path d="M594.5 47h10"></path><path d="M604.5 47h10"></path><g class="non-terminal "><path d="M614.5 47h0"></path><path d="M668.5 47h0"></path><rect x="614.5" y="36" width="54" height="22" rx="10" ry="10"></rect><text x="641.5" y="51">nome</text></g></g><path d="M678.5 47h54"></path></g><path d="M732.5 47h20"></path><path d="M388.5 47a10 10 0 0 1 10 10v18a10 10 0 0 0 10 10"></path><g><path d="M408.5 85h0"></path><g><path d="M408.5 85h10"></path><path d="M722.5 85h10"></path><g class="terminal "><path d="M418.5 85h0"></path><path d="M481 85h0"></path><rect x="418.5" y="74" width="62.5" height="22"></rect><text x="449.75" y="89">'sob'</text></g><path d="M481 85h10"></path><path d="M491 85h10"></path><g class="non-terminal "><path d="M501 85h0"></path><path d="M648.5 85h0"></path><rect x="501" y="74" width="147.5" height="22" rx="10" ry="10"></rect><text x="574.75" y="89">artigo_definido</text></g><path d="M648.5 85h10"></path><path d="M658.5 85h10"></path><g class="non-terminal "><path d="M668.5 85h0"></path><path d="M722.5 85h0"></path><rect x="668.5" y="74" width="54" height="22" rx="10" ry="10"></rect><text x="695.5" y="89">nome</text></g></g><path d="M732.5 85h0"></path></g><path d="M732.5 85a10 10 0 0 0 10 -10v-18a10 10 0 0 1 10 -10"></path><path d="M388.5 47a10 10 0 0 1 10 10v56a10 10 0 0 0 10 10"></path><g><path d="M408.5 123h82.5"></path><g><path d="M491 123h10"></path><path d="M640 123h10"></path><g class="terminal "><path d="M501 123h0"></path><path d="M640 123h0"></path><rect x="501" y="112" width="139" height="22"></rect><text x="570.5" y="127">'(referência)'</text></g></g><path d="M650 123h82.5"></path></g><path d="M732.5 123a10 10 0 0 0 10 -10v-56a10 10 0 0 1 10 -10"></path></g><path d="M752.5 47h20"></path></g></g><path d="M782.5 47h0"></path></g><path d="M782.5 47h20"></path></g><path d="M 802.5 47 h 20 m 0 -10 v 20"></path></g><defs><style type="text/css"><![CDATA[
svg.railroad-diagram path { stroke-width: 2; stroke: darkgray; fill: rgba(0, 0, 0, 0);}/* All text except comments. */svg.railroad-diagram text { font: bold 12px Hack, "Source Code Pro", monospace; text-anchor: middle; fill: #404040;}/* Comment text */svg.railroad-diagram text.comment { font: italic 10px Hack, "Source Code Pro", monospace; fill: #404040;}/* The terminal boxes. */svg.railroad-diagram g.terminal rect { stroke-width: 2; stroke: #404040; fill: rgba(200, 200, 200, 1);}svg.railroad-diagram g.non-terminal rect { /* The non-terminal boxes. */ stroke-width: 2; stroke: #404040; fill: rgba(255, 255, 255, 1);}/* Multiple choice text, not working atm. */svg.railroad-diagram text.diagram-text { font-size: 12px Hack, "Source Code Pro", monospace; fill: red;}/* Multiple choice text, not working atm. */svg.railroad-diagram path.diagram-text { stroke-width: 1; stroke: red; fill: red; cursor: help;}
 ]]>
</style></defs></svg>