<?xml version="1.0" encoding="UTF-8" standalone="no"?>
<!DOCTYPE svg PUBLIC "-//W3C//DTD SVG 1.1//EN" "http://www.w3.org/Graphics/SVG/1.1/DTD/svg11.dtd">
<svg class="railroad-diagram" width="347" height="138" viewBox="0 0 347 138" id="caracteres_ignoraveis" xmlns="http://www.w3.org/2000/svg" xmlns:xlink="http://www.w3.org/1999/xlink"><g transform="translate(.5 .5)"><g><path d="M20 21v20m0 -10h20"></path></g><g><path d="M40 31h0"></path><path d="M307 31h0"></path><path d="M40 31h20"></path><g><path d="M60 31h0"></path><g><path d="M60 31h10"></path><path d="M277 31h10"></path><g class="terminal "><path d="M70 31h0"></path><path d="M277 31h0"></path><rect x="70" y="20" width="207" height="22"></rect><text x="173.5" y="35">CARACTERES_DE_CONTROLE</text></g></g><path d="M287 31h0"></path></g><path d="M287 31h20"></path><path d="M40 31a10 10 0 0 1 10 10v18a10 10 0 0 0 10 10"></path><g><path d="M60 69h25.5"></path><g><path d="M85.5 69h10"></path><path d="M251.5 69h10"></path><g class="terminal "><path d="M95.5 69h0"></path><path d="M251.5 69h0"></path><rect x="95.5" y="58" width="156" height="22"></rect><text x="173.5" y="73">ESPACO_EM_BRANCO</text></g></g><path d="M261.5 69h25.5"></path></g><path d="M287 69a10 10 0 0 0 10 -10v-18a10 10 0 0 1 10 -10"></path><path d="M40 31a10 10 0 0 1 10 10v56a10 10 0 0 0 10 10"></path><g><path d="M60 107h38.25"></path><g><path d="M98.25 107h10"></path><path d="M238.75 107h10"></path><g class="terminal "><path d="M108.25 107h0"></path><path d="M238.75 107h0"></path><rect x="108.25" y="96" width="130.5" height="22"></rect><text x="173.5" y="111">ESPACO_RIGIDO</text></g></g><path d="M248.75 107h38.25"></path></g><path d="M287 107a10 10 0 0 0 10 -10v-56a10 10 0 0 1 10 -10"></path></g><path d="M 307 31 h 20 m 0 -10 v 20"></path></g><defs><style type="text/css"><![CDATA[
svg.railroad-diagram path { stroke-width: 2; stroke: darkgray; fill: rgba(0, 0, 0, 0);}/* All text except comments. */svg.railroad-diagram text { font: bold 12px Hack, "Source Code Pro", monospace; text-anchor: middle; fill: #404040;}/* Comment text */svg.railroad-diagram text.comment { font: italic 10px Hack, "Source Code Pro", monospace; fill: #404040;}/* The terminal boxes. */svg.railroad-diagram g.terminal rect { stroke-width: 2; stroke: #404040; fill: rgba(200, 200, 200, 1);}svg.railroad-diagram g.non-terminal rect { /* The non-terminal boxes. */ stroke-width: 2; stroke: #404040; fill: rgba(255, 255, 255, 1);}/* Multiple choice text, not working atm. */svg.railroad-diagram text.diagram-text { font-size: 12px Hack, "Source Code Pro", monospace; fill: red;}/* Multiple choice text, not working atm. */svg.railroad-diagram path.diagram-text { stroke-width: 1; stroke: red; fill: red; cursor: help;}
 ]]>
</style></defs></svg>