<?xml version="1.0" encoding="UTF-8" standalone="no"?>
<!DOCTYPE svg PUBLIC "-//W3C//DTD SVG 1.1//EN" "http://www.w3.org/Graphics/SVG/1.1/DTD/svg11.dtd">
<svg class="railroad-diagram" width="984.5" height="94" viewBox="0 0 984.5 94" id="condicional" xmlns="http://www.w3.org/2000/svg" xmlns:xlink="http://www.w3.org/1999/xlink"><g transform="translate(.5 .5)"><g><path d="M20 37v20m0 -10h20"></path></g><g><path d="M40 47h0"></path><path d="M944.5 47h0"></path><path d="M40 47h20"></path><g><path d="M60 47h0"></path><g><path d="M60 47h10"></path><path d="M914.5 47h10"></path><g class="terminal "><path d="M70 47h0"></path><path d="M124 47h0"></path><rect x="70" y="36" width="54" height="22"></rect><text x="97" y="51">'Se'</text></g><path d="M124 47h10"></path><path d="M134 47h10"></path><g class="non-terminal "><path d="M144 47h0"></path><path d="M317 47h0"></path><rect x="144" y="36" width="173" height="22" rx="10" ry="10"></rect><text x="230.5" y="51">expressao_decisora</text></g><path d="M317 47h10"></path><path d="M327 47h10"></path><g class="terminal "><path d="M337 47h0"></path><path d="M382.5 47h0"></path><rect x="337" y="36" width="45.5" height="22"></rect><text x="359.75" y="51">','</text></g><path d="M382.5 47h10"></path><path d="M392.5 47h10"></path><g class="non-terminal "><path d="M402.5 47h0"></path><path d="M533 47h0"></path><rect x="402.5" y="36" width="130.5" height="22" rx="10" ry="10"></rect><text x="467.75" y="51">incondicional</text></g><path d="M533 47h10"></path><g><path d="M543 47h0"></path><path d="M859 47h0"></path><path d="M543 47a10 10 0 0 0 10 -10v-7a10 10 0 0 1 10 -10"></path><g><path d="M563 20h276"></path></g><path d="M839 20a10 10 0 0 1 10 10v7a10 10 0 0 0 10 10"></path><path d="M543 47h20"></path><g><path d="M563 47h0"></path><path d="M839 47h0"></path><path d="M563 47h10"></path><g><path d="M573 47h0"></path><path d="M829 47h0"></path><path d="M573 47h20"></path><g><path d="M593 47h0"></path><g><path d="M593 47h10"></path><path d="M799 47h10"></path><g class="terminal "><path d="M603 47h0"></path><path d="M648.5 47h0"></path><rect x="603" y="36" width="45.5" height="22"></rect><text x="625.75" y="51">';'</text></g><path d="M648.5 47h10"></path><path d="M658.5 47h10"></path><g class="non-terminal "><path d="M668.5 47h0"></path><path d="M799 47h0"></path><rect x="668.5" y="36" width="130.5" height="22" rx="10" ry="10"></rect><text x="733.75" y="51">incondicional</text></g></g><path d="M809 47h0"></path></g><path d="M809 47h20"></path></g><path d="M829 47h10"></path><path d="M573 47a10 10 0 0 0 -10 10v7a10 10 0 0 0 10 10"></path><g><path d="M573 74h256"></path></g><path d="M829 74a10 10 0 0 0 10 -10v-7a10 10 0 0 0 -10 -10"></path></g><path d="M839 47h20"></path></g><path d="M859 47h10"></path><g class="terminal "><path d="M869 47h0"></path><path d="M914.5 47h0"></path><rect x="869" y="36" width="45.5" height="22"></rect><text x="891.75" y="51">'.'</text></g></g><path d="M924.5 47h0"></path></g><path d="M924.5 47h20"></path></g><path d="M 944.5 47 h 20 m 0 -10 v 20"></path></g><defs><style type="text/css"><![CDATA[
svg.railroad-diagram path { stroke-width: 2; stroke: darkgray; fill: rgba(0, 0, 0, 0);}/* All text except comments. */svg.railroad-diagram text { font: bold 12px Hack, "Source Code Pro", monospace; text-anchor: middle; fill: #404040;}/* Comment text */svg.railroad-diagram text.comment { font: italic 10px Hack, "Source Code Pro", monospace; fill: #404040;}/* The terminal boxes. */svg.railroad-diagram g.terminal rect { stroke-width: 2; stroke: #404040; fill: rgba(200, 200, 200, 1);}svg.railroad-diagram g.non-terminal rect { /* The non-terminal boxes. */ stroke-width: 2; stroke: #404040; fill: rgba(255, 255, 255, 1);}/* Multiple choice text, not working atm. */svg.railroad-diagram text.diagram-text { font-size: 12px Hack, "Source Code Pro", monospace; fill: red;}/* Multiple choice text, not working atm. */svg.railroad-diagram path.diagram-text { stroke-width: 1; stroke: red; fill: red; cursor: help;}
 ]]>
</style></defs></svg>