<?xml version="1.0" encoding="UTF-8" standalone="no"?>
<!DOCTYPE svg PUBLIC "-//W3C//DTD SVG 1.1//EN" "http://www.w3.org/Graphics/SVG/1.1/DTD/svg11.dtd">
<svg class="railroad-diagram" width="338.5" height="746" viewBox="0 0 338.5 746" id="contracoes" xmlns="http://www.w3.org/2000/svg" xmlns:xlink="http://www.w3.org/1999/xlink"><g transform="translate(.5 .5)"><g><path d="M20 21v20m0 -10h20"></path></g><g><path d="M40 31h0"></path><path d="M298.5 31h0"></path><path d="M40 31h20"></path><g><path d="M60 31h72.25"></path><g><path d="M132.25 31h10"></path><path d="M196.25 31h10"></path><g class="terminal "><path d="M142.25 31h0"></path><path d="M196.25 31h0"></path><rect x="142.25" y="20" width="54" height="22"></rect><text x="169.25" y="35">'ao'</text></g></g><path d="M206.25 31h72.25"></path></g><path d="M278.5 31h20"></path><path d="M40 31a10 10 0 0 1 10 10v18a10 10 0 0 0 10 10"></path><g><path d="M60 69h76.5"></path><g><path d="M136.5 69h10"></path><path d="M192 69h10"></path><g class="terminal "><path d="M146.5 69h0"></path><path d="M192 69h0"></path><rect x="146.5" y="58" width="45.5" height="22"></rect><text x="169.25" y="73">'à'</text></g></g><path d="M202 69h76.5"></path></g><path d="M278.5 69a10 10 0 0 0 10 -10v-18a10 10 0 0 1 10 -10"></path><path d="M40 31a10 10 0 0 1 10 10v56a10 10 0 0 0 10 10"></path><g><path d="M60 107h68"></path><g><path d="M128 107h10"></path><path d="M200.5 107h10"></path><g class="terminal "><path d="M138 107h0"></path><path d="M200.5 107h0"></path><rect x="138" y="96" width="62.5" height="22"></rect><text x="169.25" y="111">'aos'</text></g></g><path d="M210.5 107h68"></path></g><path d="M278.5 107a10 10 0 0 0 10 -10v-56a10 10 0 0 1 10 -10"></path><path d="M40 31a10 10 0 0 1 10 10v94a10 10 0 0 0 10 10"></path><g><path d="M60 145h72.25"></path><g><path d="M132.25 145h10"></path><path d="M196.25 145h10"></path><g class="terminal "><path d="M142.25 145h0"></path><path d="M196.25 145h0"></path><rect x="142.25" y="134" width="54" height="22"></rect><text x="169.25" y="149">'às'</text></g></g><path d="M206.25 145h72.25"></path></g><path d="M278.5 145a10 10 0 0 0 10 -10v-94a10 10 0 0 1 10 -10"></path><path d="M40 31a10 10 0 0 1 10 10v132a10 10 0 0 0 10 10"></path><g><path d="M60 183h72.25"></path><g><path d="M132.25 183h10"></path><path d="M196.25 183h10"></path><g class="terminal "><path d="M142.25 183h0"></path><path d="M196.25 183h0"></path><rect x="142.25" y="172" width="54" height="22"></rect><text x="169.25" y="187">'no'</text></g></g><path d="M206.25 183h72.25"></path></g><path d="M278.5 183a10 10 0 0 0 10 -10v-132a10 10 0 0 1 10 -10"></path><path d="M40 31a10 10 0 0 1 10 10v170a10 10 0 0 0 10 10"></path><g><path d="M60 221h72.25"></path><g><path d="M132.25 221h10"></path><path d="M196.25 221h10"></path><g class="terminal "><path d="M142.25 221h0"></path><path d="M196.25 221h0"></path><rect x="142.25" y="210" width="54" height="22"></rect><text x="169.25" y="225">'na'</text></g></g><path d="M206.25 221h72.25"></path></g><path d="M278.5 221a10 10 0 0 0 10 -10v-170a10 10 0 0 1 10 -10"></path><path d="M40 31a10 10 0 0 1 10 10v208a10 10 0 0 0 10 10"></path><g><path d="M60 259h68"></path><g><path d="M128 259h10"></path><path d="M200.5 259h10"></path><g class="terminal "><path d="M138 259h0"></path><path d="M200.5 259h0"></path><rect x="138" y="248" width="62.5" height="22"></rect><text x="169.25" y="263">'nos'</text></g></g><path d="M210.5 259h68"></path></g><path d="M278.5 259a10 10 0 0 0 10 -10v-208a10 10 0 0 1 10 -10"></path><path d="M40 31a10 10 0 0 1 10 10v246a10 10 0 0 0 10 10"></path><g><path d="M60 297h68"></path><g><path d="M128 297h10"></path><path d="M200.5 297h10"></path><g class="terminal "><path d="M138 297h0"></path><path d="M200.5 297h0"></path><rect x="138" y="286" width="62.5" height="22"></rect><text x="169.25" y="301">'nas'</text></g></g><path d="M210.5 297h68"></path></g><path d="M278.5 297a10 10 0 0 0 10 -10v-246a10 10 0 0 1 10 -10"></path><path d="M40 31a10 10 0 0 1 10 10v284a10 10 0 0 0 10 10"></path><g><path d="M60 335h63.75"></path><g><path d="M123.75 335h10"></path><path d="M204.75 335h10"></path><g class="terminal "><path d="M133.75 335h0"></path><path d="M204.75 335h0"></path><rect x="133.75" y="324" width="71" height="22"></rect><text x="169.25" y="339">'pelo'</text></g></g><path d="M214.75 335h63.75"></path></g><path d="M278.5 335a10 10 0 0 0 10 -10v-284a10 10 0 0 1 10 -10"></path><path d="M40 31a10 10 0 0 1 10 10v322a10 10 0 0 0 10 10"></path><g><path d="M60 373h63.75"></path><g><path d="M123.75 373h10"></path><path d="M204.75 373h10"></path><g class="terminal "><path d="M133.75 373h0"></path><path d="M204.75 373h0"></path><rect x="133.75" y="362" width="71" height="22"></rect><text x="169.25" y="377">'pela'</text></g></g><path d="M214.75 373h63.75"></path></g><path d="M278.5 373a10 10 0 0 0 10 -10v-322a10 10 0 0 1 10 -10"></path><path d="M40 31a10 10 0 0 1 10 10v360a10 10 0 0 0 10 10"></path><g><path d="M60 411h59.5"></path><g><path d="M119.5 411h10"></path><path d="M209 411h10"></path><g class="terminal "><path d="M129.5 411h0"></path><path d="M209 411h0"></path><rect x="129.5" y="400" width="79.5" height="22"></rect><text x="169.25" y="415">'pelos'</text></g></g><path d="M219 411h59.5"></path></g><path d="M278.5 411a10 10 0 0 0 10 -10v-360a10 10 0 0 1 10 -10"></path><path d="M40 31a10 10 0 0 1 10 10v398a10 10 0 0 0 10 10"></path><g><path d="M60 449h59.5"></path><g><path d="M119.5 449h10"></path><path d="M209 449h10"></path><g class="terminal "><path d="M129.5 449h0"></path><path d="M209 449h0"></path><rect x="129.5" y="438" width="79.5" height="22"></rect><text x="169.25" y="453">'pelas'</text></g></g><path d="M219 449h59.5"></path></g><path d="M278.5 449a10 10 0 0 0 10 -10v-398a10 10 0 0 1 10 -10"></path><path d="M40 31a10 10 0 0 1 10 10v436a10 10 0 0 0 10 10"></path><g><path d="M60 487h68"></path><g><path d="M128 487h10"></path><path d="M200.5 487h10"></path><g class="terminal "><path d="M138 487h0"></path><path d="M200.5 487h0"></path><rect x="138" y="476" width="62.5" height="22"></rect><text x="169.25" y="491">'num'</text></g></g><path d="M210.5 487h68"></path></g><path d="M278.5 487a10 10 0 0 0 10 -10v-436a10 10 0 0 1 10 -10"></path><path d="M40 31a10 10 0 0 1 10 10v474a10 10 0 0 0 10 10"></path><g><path d="M60 525h63.75"></path><g><path d="M123.75 525h10"></path><path d="M204.75 525h10"></path><g class="terminal "><path d="M133.75 525h0"></path><path d="M204.75 525h0"></path><rect x="133.75" y="514" width="71" height="22"></rect><text x="169.25" y="529">'numa'</text></g></g><path d="M214.75 525h63.75"></path></g><path d="M278.5 525a10 10 0 0 0 10 -10v-474a10 10 0 0 1 10 -10"></path><path d="M40 31a10 10 0 0 1 10 10v512a10 10 0 0 0 10 10"></path><g><path d="M60 563h63.75"></path><g><path d="M123.75 563h10"></path><path d="M204.75 563h10"></path><g class="terminal "><path d="M133.75 563h0"></path><path d="M204.75 563h0"></path><rect x="133.75" y="552" width="71" height="22"></rect><text x="169.25" y="567">'nuns'</text></g></g><path d="M214.75 563h63.75"></path></g><path d="M278.5 563a10 10 0 0 0 10 -10v-512a10 10 0 0 1 10 -10"></path><path d="M40 31a10 10 0 0 1 10 10v550a10 10 0 0 0 10 10"></path><g><path d="M60 601h59.5"></path><g><path d="M119.5 601h10"></path><path d="M209 601h10"></path><g class="terminal "><path d="M129.5 601h0"></path><path d="M209 601h0"></path><rect x="129.5" y="590" width="79.5" height="22"></rect><text x="169.25" y="605">'numas'</text></g></g><path d="M219 601h59.5"></path></g><path d="M278.5 601a10 10 0 0 0 10 -10v-550a10 10 0 0 1 10 -10"></path><path d="M40 31a10 10 0 0 1 10 10v588a10 10 0 0 0 10 10"></path><g><path d="M60 639h0"></path><g><path d="M60 639h10"></path><path d="M268.5 639h10"></path><g class="non-terminal "><path d="M70 639h0"></path><path d="M268.5 639h0"></path><rect x="70" y="628" width="198.5" height="22" rx="10" ry="10"></rect><text x="169.25" y="643">atribuidores_de_posse</text></g></g><path d="M278.5 639h0"></path></g><path d="M278.5 639a10 10 0 0 0 10 -10v-588a10 10 0 0 1 10 -10"></path><path d="M40 31a10 10 0 0 1 10 10v626a10 10 0 0 0 10 10"></path><g><path d="M60 677h80.75"></path><g><path d="M140.75 677h10"></path><path d="M187.75 677h10"></path><g class="non-terminal "><path d="M150.75 677h0"></path><path d="M187.75 677h0"></path><rect x="150.75" y="666" width="37" height="22" rx="10" ry="10"></rect><text x="169.25" y="681">p1</text></g></g><path d="M197.75 677h80.75"></path></g><path d="M278.5 677a10 10 0 0 0 10 -10v-626a10 10 0 0 1 10 -10"></path><path d="M40 31a10 10 0 0 1 10 10v664a10 10 0 0 0 10 10"></path><g><path d="M60 715h80.75"></path><g><path d="M140.75 715h10"></path><path d="M187.75 715h10"></path><g class="non-terminal "><path d="M150.75 715h0"></path><path d="M187.75 715h0"></path><rect x="150.75" y="704" width="37" height="22" rx="10" ry="10"></rect><text x="169.25" y="719">p2</text></g></g><path d="M197.75 715h80.75"></path></g><path d="M278.5 715a10 10 0 0 0 10 -10v-664a10 10 0 0 1 10 -10"></path></g><path d="M 298.5 31 h 20 m 0 -10 v 20"></path></g><defs><style type="text/css"><![CDATA[
svg.railroad-diagram path { stroke-width: 2; stroke: darkgray; fill: rgba(0, 0, 0, 0);}/* All text except comments. */svg.railroad-diagram text { font: bold 12px Hack, "Source Code Pro", monospace; text-anchor: middle; fill: #404040;}/* Comment text */svg.railroad-diagram text.comment { font: italic 10px Hack, "Source Code Pro", monospace; fill: #404040;}/* The terminal boxes. */svg.railroad-diagram g.terminal rect { stroke-width: 2; stroke: #404040; fill: rgba(200, 200, 200, 1);}svg.railroad-diagram g.non-terminal rect { /* The non-terminal boxes. */ stroke-width: 2; stroke: #404040; fill: rgba(255, 255, 255, 1);}/* Multiple choice text, not working atm. */svg.railroad-diagram text.diagram-text { font-size: 12px Hack, "Source Code Pro", monospace; fill: red;}/* Multiple choice text, not working atm. */svg.railroad-diagram path.diagram-text { stroke-width: 1; stroke: red; fill: red; cursor: help;}
 ]]>
</style></defs></svg>