<?xml version="1.0" encoding="UTF-8" standalone="no"?>
<!DOCTYPE svg PUBLIC "-//W3C//DTD SVG 1.1//EN" "http://www.w3.org/Graphics/SVG/1.1/DTD/svg11.dtd">
<svg class="railroad-diagram" width="743.5" height="132" viewBox="0 0 743.5 132" id="decisor" xmlns="http://www.w3.org/2000/svg" xmlns:xlink="http://www.w3.org/1999/xlink"><g transform="translate(.5 .5)"><g><path d="M20 37v20m0 -10h20"></path></g><g><path d="M40 47h0"></path><path d="M703.5 47h0"></path><path d="M40 47h20"></path><g><path d="M60 47h0"></path><g><path d="M60 47h10"></path><path d="M673.5 47h10"></path><g><path d="M70 47h0"></path><path d="M198 47h0"></path><path d="M70 47a10 10 0 0 0 10 -10v-7a10 10 0 0 1 10 -10"></path><g><path d="M90 20h88"></path></g><path d="M178 20a10 10 0 0 1 10 10v7a10 10 0 0 0 10 10"></path><path d="M70 47h20"></path><g class="terminal "><path d="M90 47h0"></path><path d="M178 47h0"></path><rect x="90" y="36" width="88" height="22"></rect><text x="134" y="51">'Rotina'</text></g><path d="M178 47h20"></path></g><path d="M198 47h10"></path><g class="terminal "><path d="M208 47h0"></path><path d="M449 47h0"></path><rect x="208" y="36" width="241" height="22"></rect><text x="328.5" y="51">'para que se determine se'</text></g><path d="M449 47h10"></path><path d="M459 47h10"></path><g class="non-terminal "><path d="M469 47h0"></path><path d="M608 47h0"></path><rect x="469" y="36" width="139" height="22" rx="10" ry="10"></rect><text x="538.5" y="51">nome_da_rotina</text></g><path d="M608 47h10"></path><path d="M618 47h10"></path><g class="terminal "><path d="M628 47h0"></path><path d="M673.5 47h0"></path><rect x="628" y="36" width="45.5" height="22"></rect><text x="650.75" y="51">';'</text></g></g><path d="M683.5 47h0"></path></g><path d="M683.5 47h20"></path><path d="M40 47a10 10 0 0 1 10 10v34a10 10 0 0 0 10 10"></path><g><path d="M60 101h0"></path><g><path d="M60 101h10"></path><path d="M673.5 101h10"></path><g><path d="M70 101h0"></path><path d="M198 101h0"></path><path d="M70 101a10 10 0 0 0 10 -10v-7a10 10 0 0 1 10 -10"></path><g><path d="M90 74h88"></path></g><path d="M178 74a10 10 0 0 1 10 10v7a10 10 0 0 0 10 10"></path><path d="M70 101h20"></path><g class="terminal "><path d="M90 101h0"></path><path d="M178 101h0"></path><rect x="90" y="90" width="88" height="22"></rect><text x="134" y="105">'Rotina'</text></g><path d="M178 101h20"></path></g><path d="M198 101h10"></path><g class="terminal "><path d="M208 101h0"></path><path d="M449 101h0"></path><rect x="208" y="90" width="241" height="22"></rect><text x="328.5" y="105">'para que se determine se'</text></g><path d="M449 101h10"></path><path d="M459 101h10"></path><g class="non-terminal "><path d="M469 101h0"></path><path d="M608 101h0"></path><rect x="469" y="90" width="139" height="22" rx="10" ry="10"></rect><text x="538.5" y="105">nome_da_rotina</text></g><path d="M608 101h10"></path><path d="M618 101h10"></path><g class="terminal "><path d="M628 101h0"></path><path d="M673.5 101h0"></path><rect x="628" y="90" width="45.5" height="22"></rect><text x="650.75" y="105">':'</text></g></g><path d="M683.5 101h0"></path></g><path d="M683.5 101a10 10 0 0 0 10 -10v-34a10 10 0 0 1 10 -10"></path></g><path d="M 703.5 47 h 20 m 0 -10 v 20"></path></g><defs><style type="text/css"><![CDATA[
svg.railroad-diagram path { stroke-width: 2; stroke: darkgray; fill: rgba(0, 0, 0, 0);}/* All text except comments. */svg.railroad-diagram text { font: bold 12px Hack, "Source Code Pro", monospace; text-anchor: middle; fill: #404040;}/* Comment text */svg.railroad-diagram text.comment { font: italic 10px Hack, "Source Code Pro", monospace; fill: #404040;}/* The terminal boxes. */svg.railroad-diagram g.terminal rect { stroke-width: 2; stroke: #404040; fill: rgba(200, 200, 200, 1);}svg.railroad-diagram g.non-terminal rect { /* The non-terminal boxes. */ stroke-width: 2; stroke: #404040; fill: rgba(255, 255, 255, 1);}/* Multiple choice text, not working atm. */svg.railroad-diagram text.diagram-text { font-size: 12px Hack, "Source Code Pro", monospace; fill: red;}/* Multiple choice text, not working atm. */svg.railroad-diagram path.diagram-text { stroke-width: 1; stroke: red; fill: red; cursor: help;}
 ]]>
</style></defs></svg>