<?xml version="1.0" encoding="UTF-8" standalone="no"?>
<!DOCTYPE svg PUBLIC "-//W3C//DTD SVG 1.1//EN" "http://www.w3.org/Graphics/SVG/1.1/DTD/svg11.dtd">
<svg class="railroad-diagram" width="270.5" height="328" viewBox="0 0 270.5 328" id="denominacoes" xmlns="http://www.w3.org/2000/svg" xmlns:xlink="http://www.w3.org/1999/xlink"><g transform="translate(.5 .5)"><g><path d="M20 21v20m0 -10h20"></path></g><g><path d="M40 31h0"></path><path d="M230.5 31h0"></path><path d="M40 31h20"></path><g><path d="M60 31h4.25"></path><g><path d="M64.25 31h10"></path><path d="M196.25 31h10"></path><g class="terminal "><path d="M74.25 31h0"></path><path d="M196.25 31h0"></path><rect x="74.25" y="20" width="122" height="22"></rect><text x="135.25" y="35">'denominado'</text></g></g><path d="M206.25 31h4.25"></path></g><path d="M210.5 31h20"></path><path d="M40 31a10 10 0 0 1 10 10v18a10 10 0 0 0 10 10"></path><g><path d="M60 69h4.25"></path><g><path d="M64.25 69h10"></path><path d="M196.25 69h10"></path><g class="terminal "><path d="M74.25 69h0"></path><path d="M196.25 69h0"></path><rect x="74.25" y="58" width="122" height="22"></rect><text x="135.25" y="73">'denominada'</text></g></g><path d="M206.25 69h4.25"></path></g><path d="M210.5 69a10 10 0 0 0 10 -10v-18a10 10 0 0 1 10 -10"></path><path d="M40 31a10 10 0 0 1 10 10v56a10 10 0 0 0 10 10"></path><g><path d="M60 107h0"></path><g><path d="M60 107h10"></path><path d="M200.5 107h10"></path><g class="terminal "><path d="M70 107h0"></path><path d="M200.5 107h0"></path><rect x="70" y="96" width="130.5" height="22"></rect><text x="135.25" y="111">'denominados'</text></g></g><path d="M210.5 107h0"></path></g><path d="M210.5 107a10 10 0 0 0 10 -10v-56a10 10 0 0 1 10 -10"></path><path d="M40 31a10 10 0 0 1 10 10v94a10 10 0 0 0 10 10"></path><g><path d="M60 145h0"></path><g><path d="M60 145h10"></path><path d="M200.5 145h10"></path><g class="terminal "><path d="M70 145h0"></path><path d="M200.5 145h0"></path><rect x="70" y="134" width="130.5" height="22"></rect><text x="135.25" y="149">'denominadas'</text></g></g><path d="M210.5 145h0"></path></g><path d="M210.5 145a10 10 0 0 0 10 -10v-94a10 10 0 0 1 10 -10"></path><path d="M40 31a10 10 0 0 1 10 10v132a10 10 0 0 0 10 10"></path><g><path d="M60 183h17"></path><g><path d="M77 183h10"></path><path d="M183.5 183h10"></path><g class="terminal "><path d="M87 183h0"></path><path d="M183.5 183h0"></path><rect x="87" y="172" width="96.5" height="22"></rect><text x="135.25" y="187">'chamado'</text></g></g><path d="M193.5 183h17"></path></g><path d="M210.5 183a10 10 0 0 0 10 -10v-132a10 10 0 0 1 10 -10"></path><path d="M40 31a10 10 0 0 1 10 10v170a10 10 0 0 0 10 10"></path><g><path d="M60 221h17"></path><g><path d="M77 221h10"></path><path d="M183.5 221h10"></path><g class="terminal "><path d="M87 221h0"></path><path d="M183.5 221h0"></path><rect x="87" y="210" width="96.5" height="22"></rect><text x="135.25" y="225">'chamada'</text></g></g><path d="M193.5 221h17"></path></g><path d="M210.5 221a10 10 0 0 0 10 -10v-170a10 10 0 0 1 10 -10"></path><path d="M40 31a10 10 0 0 1 10 10v208a10 10 0 0 0 10 10"></path><g><path d="M60 259h12.75"></path><g><path d="M72.75 259h10"></path><path d="M187.75 259h10"></path><g class="terminal "><path d="M82.75 259h0"></path><path d="M187.75 259h0"></path><rect x="82.75" y="248" width="105" height="22"></rect><text x="135.25" y="263">'chamados'</text></g></g><path d="M197.75 259h12.75"></path></g><path d="M210.5 259a10 10 0 0 0 10 -10v-208a10 10 0 0 1 10 -10"></path><path d="M40 31a10 10 0 0 1 10 10v246a10 10 0 0 0 10 10"></path><g><path d="M60 297h12.75"></path><g><path d="M72.75 297h10"></path><path d="M187.75 297h10"></path><g class="terminal "><path d="M82.75 297h0"></path><path d="M187.75 297h0"></path><rect x="82.75" y="286" width="105" height="22"></rect><text x="135.25" y="301">'chamadas'</text></g></g><path d="M197.75 297h12.75"></path></g><path d="M210.5 297a10 10 0 0 0 10 -10v-246a10 10 0 0 1 10 -10"></path></g><path d="M 230.5 31 h 20 m 0 -10 v 20"></path></g><defs><style type="text/css"><![CDATA[
svg.railroad-diagram path { stroke-width: 2; stroke: darkgray; fill: rgba(0, 0, 0, 0);}/* All text except comments. */svg.railroad-diagram text { font: bold 12px Hack, "Source Code Pro", monospace; text-anchor: middle; fill: #404040;}/* Comment text */svg.railroad-diagram text.comment { font: italic 10px Hack, "Source Code Pro", monospace; fill: #404040;}/* The terminal boxes. */svg.railroad-diagram g.terminal rect { stroke-width: 2; stroke: #404040; fill: rgba(200, 200, 200, 1);}svg.railroad-diagram g.non-terminal rect { /* The non-terminal boxes. */ stroke-width: 2; stroke: #404040; fill: rgba(255, 255, 255, 1);}/* Multiple choice text, not working atm. */svg.railroad-diagram text.diagram-text { font-size: 12px Hack, "Source Code Pro", monospace; fill: red;}/* Multiple choice text, not working atm. */svg.railroad-diagram path.diagram-text { stroke-width: 1; stroke: red; fill: red; cursor: help;}
 ]]>
</style></defs></svg>