<?xml version="1.0" encoding="UTF-8" standalone="no"?>
<!DOCTYPE svg PUBLIC "-//W3C//DTD SVG 1.1//EN" "http://www.w3.org/Graphics/SVG/1.1/DTD/svg11.dtd">
<svg class="railroad-diagram" width="254" height="176" viewBox="0 0 254 176" id="ESPACO" xmlns="http://www.w3.org/2000/svg" xmlns:xlink="http://www.w3.org/1999/xlink"><g transform="translate(.5 .5)"><g><path d="M20 21v20m10 -20v20m-10 -10h20"></path></g><g><path d="M40 31h0"></path><path d="M214 31h0"></path><path d="M40 31h20"></path><g><path d="M60 31h0"></path><g><path d="M60 31h10"></path><path d="M184 31h10"></path><g><path d="M70 31h0"></path><path d="M184 31h0"></path><path d="M70 31h20"></path><g><path d="M90 31h4.25"></path><g><path d="M94.25 31h10"></path><path d="M149.75 31h10"></path><g class="terminal "><path d="M104.25 31h0"></path><path d="M149.75 31h0"></path><rect x="104.25" y="20" width="45.5" height="22"></rect><text x="127" y="35">' '</text></g></g><path d="M159.75 31h4.25"></path></g><path d="M164 31h20"></path><path d="M70 31a10 10 0 0 1 10 10v18a10 10 0 0 0 10 10"></path><g><path d="M90 69h0"></path><g><path d="M90 69h10"></path><path d="M154 69h10"></path><g class="terminal "><path d="M100 69h0"></path><path d="M154 69h0"></path><rect x="100" y="58" width="54" height="22"></rect><text x="127" y="73">'\t'</text></g></g><path d="M164 69h0"></path></g><path d="M164 69a10 10 0 0 0 10 -10v-18a10 10 0 0 1 10 -10"></path><path d="M70 31a10 10 0 0 1 10 10v56a10 10 0 0 0 10 10"></path><g><path d="M90 107h0"></path><g><path d="M90 107h10"></path><path d="M154 107h10"></path><g class="terminal "><path d="M100 107h0"></path><path d="M154 107h0"></path><rect x="100" y="96" width="54" height="22"></rect><text x="127" y="111">'\r'</text></g></g><path d="M164 107h0"></path></g><path d="M164 107a10 10 0 0 0 10 -10v-56a10 10 0 0 1 10 -10"></path><path d="M70 31a10 10 0 0 1 10 10v94a10 10 0 0 0 10 10"></path><g><path d="M90 145h0"></path><g><path d="M90 145h10"></path><path d="M154 145h10"></path><g class="terminal "><path d="M100 145h0"></path><path d="M154 145h0"></path><rect x="100" y="134" width="54" height="22"></rect><text x="127" y="149">'\n'</text></g></g><path d="M164 145h0"></path></g><path d="M164 145a10 10 0 0 0 10 -10v-94a10 10 0 0 1 10 -10"></path></g></g><path d="M194 31h0"></path></g><path d="M194 31h20"></path></g><path d="M 214 31 h 20 m -10 -10 v 20 m 10 -20 v 20"></path></g><defs><style type="text/css"><![CDATA[
svg.railroad-diagram path { stroke-width: 2; stroke: darkgray; fill: rgba(0, 0, 0, 0);}/* All text except comments. */svg.railroad-diagram text { font: bold 12px Hack, "Source Code Pro", monospace; text-anchor: middle; fill: #404040;}/* Comment text */svg.railroad-diagram text.comment { font: italic 10px Hack, "Source Code Pro", monospace; fill: #404040;}/* The terminal boxes. */svg.railroad-diagram g.terminal rect { stroke-width: 2; stroke: #404040; fill: rgba(200, 200, 200, 1);}svg.railroad-diagram g.non-terminal rect { /* The non-terminal boxes. */ stroke-width: 2; stroke: #404040; fill: rgba(255, 255, 255, 1);}/* Multiple choice text, not working atm. */svg.railroad-diagram text.diagram-text { font-size: 12px Hack, "Source Code Pro", monospace; fill: red;}/* Multiple choice text, not working atm. */svg.railroad-diagram path.diagram-text { stroke-width: 1; stroke: red; fill: red; cursor: help;}
 ]]>
</style></defs></svg>