<?xml version="1.0" encoding="UTF-8" standalone="no"?>
<!DOCTYPE svg PUBLIC "-//W3C//DTD SVG 1.1//EN" "http://www.w3.org/Graphics/SVG/1.1/DTD/svg11.dtd">
<svg class="railroad-diagram" width="1736.5" height="132" viewBox="0 0 1736.5 132" id="funcao" xmlns="http://www.w3.org/2000/svg" xmlns:xlink="http://www.w3.org/1999/xlink"><g transform="translate(.5 .5)"><g><path d="M20 37v20m0 -10h20"></path></g><g><path d="M40 47h0"></path><path d="M1696.5 47h0"></path><path d="M40 47h20"></path><g><path d="M60 47h0"></path><g><path d="M60 47h10"></path><path d="M1666.5 47h10"></path><g><path d="M70 47h0"></path><path d="M1551.5 47h0"></path><path d="M70 47h20"></path><g><path d="M90 47h0"></path><g><path d="M90 47h10"></path><path d="M1521.5 47h10"></path><g><path d="M100 47h0"></path><path d="M228 47h0"></path><path d="M100 47a10 10 0 0 0 10 -10v-7a10 10 0 0 1 10 -10"></path><g><path d="M120 20h88"></path></g><path d="M208 20a10 10 0 0 1 10 10v7a10 10 0 0 0 10 10"></path><path d="M100 47h20"></path><g class="terminal "><path d="M120 47h0"></path><path d="M208 47h0"></path><rect x="120" y="36" width="88" height="22"></rect><text x="164" y="51">'Função'</text></g><path d="M208 47h20"></path></g><path d="M228 47h10"></path><g class="terminal "><path d="M238 47h0"></path><path d="M436.5 47h0"></path><rect x="238" y="36" width="198.5" height="22"></rect><text x="337.25" y="51">'para que se atribua'</text></g><path d="M436.5 47h10"></path><path d="M446.5 47h10"></path><g class="non-terminal "><path d="M456.5 47h0"></path><path d="M604 47h0"></path><rect x="456.5" y="36" width="147.5" height="22" rx="10" ry="10"></rect><text x="530.25" y="51">artigo_definido</text></g><path d="M604 47h10"></path><path d="M614 47h10"></path><g class="non-terminal "><path d="M624 47h0"></path><path d="M746 47h0"></path><rect x="624" y="36" width="122" height="22" rx="10" ry="10"></rect><text x="685" y="51">nome_do_tipo</text></g><path d="M746 47h10"></path><path d="M756 47h10"></path><g class="non-terminal "><path d="M766 47h0"></path><path d="M964.5 47h0"></path><rect x="766" y="36" width="198.5" height="22" rx="10" ry="10"></rect><text x="865.25" y="51">atribuidores_de_posse</text></g><path d="M964.5 47h10"></path><path d="M974.5 47h10"></path><g class="non-terminal "><path d="M984.5 47h0"></path><path d="M1038.5 47h0"></path><rect x="984.5" y="36" width="54" height="22" rx="10" ry="10"></rect><text x="1011.5" y="51">nome</text></g><path d="M1038.5 47h10"></path><path d="M1048.5 47h10"></path><g class="terminal "><path d="M1058.5 47h0"></path><path d="M1129.5 47h0"></path><rect x="1058.5" y="36" width="71" height="22"></rect><text x="1094" y="51">'para'</text></g><path d="M1129.5 47h10"></path><path d="M1139.5 47h10"></path><g class="non-terminal "><path d="M1149.5 47h0"></path><path d="M1314 47h0"></path><rect x="1149.5" y="36" width="164.5" height="22" rx="10" ry="10"></rect><text x="1231.75" y="51">artigo_indefinido</text></g><path d="M1314 47h10"></path><path d="M1324 47h10"></path><g class="non-terminal "><path d="M1334 47h0"></path><path d="M1456 47h0"></path><rect x="1334" y="36" width="122" height="22" rx="10" ry="10"></rect><text x="1395" y="51">nome_do_tipo</text></g><path d="M1456 47h10"></path><path d="M1466 47h10"></path><g class="terminal "><path d="M1476 47h0"></path><path d="M1521.5 47h0"></path><rect x="1476" y="36" width="45.5" height="22"></rect><text x="1498.75" y="51">';'</text></g></g><path d="M1531.5 47h0"></path></g><path d="M1531.5 47h20"></path><path d="M70 47a10 10 0 0 1 10 10v34a10 10 0 0 0 10 10"></path><g><path d="M90 101h0"></path><g><path d="M90 101h10"></path><path d="M1521.5 101h10"></path><g><path d="M100 101h0"></path><path d="M228 101h0"></path><path d="M100 101a10 10 0 0 0 10 -10v-7a10 10 0 0 1 10 -10"></path><g><path d="M120 74h88"></path></g><path d="M208 74a10 10 0 0 1 10 10v7a10 10 0 0 0 10 10"></path><path d="M100 101h20"></path><g class="terminal "><path d="M120 101h0"></path><path d="M208 101h0"></path><rect x="120" y="90" width="88" height="22"></rect><text x="164" y="105">'Função'</text></g><path d="M208 101h20"></path></g><path d="M228 101h10"></path><g class="terminal "><path d="M238 101h0"></path><path d="M436.5 101h0"></path><rect x="238" y="90" width="198.5" height="22"></rect><text x="337.25" y="105">'para que se atribua'</text></g><path d="M436.5 101h10"></path><path d="M446.5 101h10"></path><g class="non-terminal "><path d="M456.5 101h0"></path><path d="M604 101h0"></path><rect x="456.5" y="90" width="147.5" height="22" rx="10" ry="10"></rect><text x="530.25" y="105">artigo_definido</text></g><path d="M604 101h10"></path><path d="M614 101h10"></path><g class="non-terminal "><path d="M624 101h0"></path><path d="M746 101h0"></path><rect x="624" y="90" width="122" height="22" rx="10" ry="10"></rect><text x="685" y="105">nome_do_tipo</text></g><path d="M746 101h10"></path><path d="M756 101h10"></path><g class="non-terminal "><path d="M766 101h0"></path><path d="M964.5 101h0"></path><rect x="766" y="90" width="198.5" height="22" rx="10" ry="10"></rect><text x="865.25" y="105">atribuidores_de_posse</text></g><path d="M964.5 101h10"></path><path d="M974.5 101h10"></path><g class="non-terminal "><path d="M984.5 101h0"></path><path d="M1038.5 101h0"></path><rect x="984.5" y="90" width="54" height="22" rx="10" ry="10"></rect><text x="1011.5" y="105">nome</text></g><path d="M1038.5 101h10"></path><path d="M1048.5 101h10"></path><g class="terminal "><path d="M1058.5 101h0"></path><path d="M1129.5 101h0"></path><rect x="1058.5" y="90" width="71" height="22"></rect><text x="1094" y="105">'para'</text></g><path d="M1129.5 101h10"></path><path d="M1139.5 101h10"></path><g class="non-terminal "><path d="M1149.5 101h0"></path><path d="M1314 101h0"></path><rect x="1149.5" y="90" width="164.5" height="22" rx="10" ry="10"></rect><text x="1231.75" y="105">artigo_indefinido</text></g><path d="M1314 101h10"></path><path d="M1324 101h10"></path><g class="non-terminal "><path d="M1334 101h0"></path><path d="M1456 101h0"></path><rect x="1334" y="90" width="122" height="22" rx="10" ry="10"></rect><text x="1395" y="105">nome_do_tipo</text></g><path d="M1456 101h10"></path><path d="M1466 101h10"></path><g class="terminal "><path d="M1476 101h0"></path><path d="M1521.5 101h0"></path><rect x="1476" y="90" width="45.5" height="22"></rect><text x="1498.75" y="105">':'</text></g></g><path d="M1531.5 101h0"></path></g><path d="M1531.5 101a10 10 0 0 0 10 -10v-34a10 10 0 0 1 10 -10"></path></g><path d="M1551.5 47h10"></path><g class="non-terminal "><path d="M1561.5 47h0"></path><path d="M1666.5 47h0"></path><rect x="1561.5" y="36" width="105" height="22" rx="10" ry="10"></rect><text x="1614" y="51">instrucoes</text></g></g><path d="M1676.5 47h0"></path></g><path d="M1676.5 47h20"></path></g><path d="M 1696.5 47 h 20 m 0 -10 v 20"></path></g><defs><style type="text/css"><![CDATA[
svg.railroad-diagram path { stroke-width: 2; stroke: darkgray; fill: rgba(0, 0, 0, 0);}/* All text except comments. */svg.railroad-diagram text { font: bold 12px Hack, "Source Code Pro", monospace; text-anchor: middle; fill: #404040;}/* Comment text */svg.railroad-diagram text.comment { font: italic 10px Hack, "Source Code Pro", monospace; fill: #404040;}/* The terminal boxes. */svg.railroad-diagram g.terminal rect { stroke-width: 2; stroke: #404040; fill: rgba(200, 200, 200, 1);}svg.railroad-diagram g.non-terminal rect { /* The non-terminal boxes. */ stroke-width: 2; stroke: #404040; fill: rgba(255, 255, 255, 1);}/* Multiple choice text, not working atm. */svg.railroad-diagram text.diagram-text { font-size: 12px Hack, "Source Code Pro", monospace; fill: red;}/* Multiple choice text, not working atm. */svg.railroad-diagram path.diagram-text { stroke-width: 1; stroke: red; fill: red; cursor: help;}
 ]]>
</style></defs></svg>