<?xml version="1.0" encoding="UTF-8" standalone="no"?>
<!DOCTYPE svg PUBLIC "-//W3C//DTD SVG 1.1//EN" "http://www.w3.org/Graphics/SVG/1.1/DTD/svg11.dtd">
<svg class="railroad-diagram" width="296" height="328" viewBox="0 0 296 328" id="incondicional" xmlns="http://www.w3.org/2000/svg" xmlns:xlink="http://www.w3.org/1999/xlink"><g transform="translate(.5 .5)"><g><path d="M20 21v20m0 -10h20"></path></g><g><path d="M40 31h0"></path><path d="M256 31h0"></path><path d="M40 31h20"></path><g><path d="M60 31h21.25"></path><g><path d="M81.25 31h10"></path><path d="M204.75 31h10"></path><g class="non-terminal "><path d="M91.25 31h0"></path><path d="M204.75 31h0"></path><rect x="91.25" y="20" width="113.5" height="22" rx="10" ry="10"></rect><text x="148" y="35">interrupcao</text></g></g><path d="M214.75 31h21.25"></path></g><path d="M236 31h20"></path><path d="M40 31a10 10 0 0 1 10 10v18a10 10 0 0 0 10 10"></path><g><path d="M60 69h29.75"></path><g><path d="M89.75 69h10"></path><path d="M196.25 69h10"></path><g class="non-terminal "><path d="M99.75 69h0"></path><path d="M196.25 69h0"></path><rect x="99.75" y="58" width="96.5" height="22" rx="10" ry="10"></rect><text x="148" y="73">invocacao</text></g></g><path d="M206.25 69h29.75"></path></g><path d="M236 69a10 10 0 0 0 10 -10v-18a10 10 0 0 1 10 -10"></path><path d="M40 31a10 10 0 0 1 10 10v56a10 10 0 0 0 10 10"></path><g><path d="M60 107h38.25"></path><g><path d="M98.25 107h10"></path><path d="M187.75 107h10"></path><g class="non-terminal "><path d="M108.25 107h0"></path><path d="M187.75 107h0"></path><rect x="108.25" y="96" width="79.5" height="22" rx="10" ry="10"></rect><text x="148" y="111">retorno</text></g></g><path d="M197.75 107h38.25"></path></g><path d="M236 107a10 10 0 0 0 10 -10v-56a10 10 0 0 1 10 -10"></path><path d="M40 31a10 10 0 0 1 10 10v94a10 10 0 0 0 10 10"></path><g><path d="M60 145h12.75"></path><g><path d="M72.75 145h10"></path><path d="M213.25 145h10"></path><g class="non-terminal "><path d="M82.75 145h0"></path><path d="M213.25 145h0"></path><rect x="82.75" y="134" width="130.5" height="22" rx="10" ry="10"></rect><text x="148" y="149">decodificacao</text></g></g><path d="M223.25 145h12.75"></path></g><path d="M236 145a10 10 0 0 0 10 -10v-94a10 10 0 0 1 10 -10"></path><path d="M40 31a10 10 0 0 1 10 10v132a10 10 0 0 0 10 10"></path><g><path d="M60 183h25.5"></path><g><path d="M85.5 183h10"></path><path d="M200.5 183h10"></path><g class="non-terminal "><path d="M95.5 183h0"></path><path d="M200.5 183h0"></path><rect x="95.5" y="172" width="105" height="22" rx="10" ry="10"></rect><text x="148" y="187">reiteracao</text></g></g><path d="M210.5 183h25.5"></path></g><path d="M236 183a10 10 0 0 0 10 -10v-132a10 10 0 0 1 10 -10"></path><path d="M40 31a10 10 0 0 1 10 10v170a10 10 0 0 0 10 10"></path><g><path d="M60 221h29.75"></path><g><path d="M89.75 221h10"></path><path d="M196.25 221h10"></path><g class="non-terminal "><path d="M99.75 221h0"></path><path d="M196.25 221h0"></path><rect x="99.75" y="210" width="96.5" height="22" rx="10" ry="10"></rect><text x="148" y="225">indirecao</text></g></g><path d="M206.25 221h29.75"></path></g><path d="M236 221a10 10 0 0 0 10 -10v-170a10 10 0 0 1 10 -10"></path><path d="M40 31a10 10 0 0 1 10 10v208a10 10 0 0 0 10 10"></path><g><path d="M60 259h17"></path><g><path d="M77 259h10"></path><path d="M209 259h10"></path><g class="non-terminal "><path d="M87 259h0"></path><path d="M209 259h0"></path><rect x="87" y="248" width="122" height="22" rx="10" ry="10"></rect><text x="148" y="263">empilhamento</text></g></g><path d="M219 259h17"></path></g><path d="M236 259a10 10 0 0 0 10 -10v-208a10 10 0 0 1 10 -10"></path><path d="M40 31a10 10 0 0 1 10 10v246a10 10 0 0 0 10 10"></path><g><path d="M60 297h0"></path><g><path d="M60 297h10"></path><path d="M226 297h10"></path><g class="non-terminal "><path d="M70 297h0"></path><path d="M226 297h0"></path><rect x="70" y="286" width="156" height="22" rx="10" ry="10"></rect><text x="148" y="301">retorno_booleano</text></g></g><path d="M236 297h0"></path></g><path d="M236 297a10 10 0 0 0 10 -10v-246a10 10 0 0 1 10 -10"></path></g><path d="M 256 31 h 20 m 0 -10 v 20"></path></g><defs><style type="text/css"><![CDATA[
svg.railroad-diagram path { stroke-width: 2; stroke: darkgray; fill: rgba(0, 0, 0, 0);}/* All text except comments. */svg.railroad-diagram text { font: bold 12px Hack, "Source Code Pro", monospace; text-anchor: middle; fill: #404040;}/* Comment text */svg.railroad-diagram text.comment { font: italic 10px Hack, "Source Code Pro", monospace; fill: #404040;}/* The terminal boxes. */svg.railroad-diagram g.terminal rect { stroke-width: 2; stroke: #404040; fill: rgba(200, 200, 200, 1);}svg.railroad-diagram g.non-terminal rect { /* The non-terminal boxes. */ stroke-width: 2; stroke: #404040; fill: rgba(255, 255, 255, 1);}/* Multiple choice text, not working atm. */svg.railroad-diagram text.diagram-text { font-size: 12px Hack, "Source Code Pro", monospace; fill: red;}/* Multiple choice text, not working atm. */svg.railroad-diagram path.diagram-text { stroke-width: 1; stroke: red; fill: red; cursor: help;}
 ]]>
</style></defs></svg>