<?xml version="1.0" encoding="UTF-8" standalone="no"?>
<!DOCTYPE svg PUBLIC "-//W3C//DTD SVG 1.1//EN" "http://www.w3.org/Graphics/SVG/1.1/DTD/svg11.dtd">
<svg class="railroad-diagram" width="965.5" height="154" viewBox="0 0 965.5 154" id="indirecao" xmlns="http://www.w3.org/2000/svg" xmlns:xlink="http://www.w3.org/1999/xlink"><g transform="translate(.5 .5)"><g><path d="M20 37v20m0 -10h20"></path></g><g><path d="M40 47h0"></path><path d="M925.5 47h0"></path><path d="M40 47h20"></path><g><path d="M60 47h0"></path><g><path d="M60 47h10"></path><path d="M895.5 47h10"></path><g class="terminal "><path d="M70 47h0"></path><path d="M158 47h0"></path><rect x="70" y="36" width="88" height="22"></rect><text x="114" y="51">'Aponte'</text></g><path d="M158 47h10"></path><path d="M168 47h10"></path><g class="non-terminal "><path d="M178 47h0"></path><path d="M249 47h0"></path><rect x="178" y="36" width="71" height="22" rx="10" ry="10"></rect><text x="213.5" y="51">artigo</text></g><path d="M249 47h10"></path><path d="M259 47h10"></path><g class="non-terminal "><path d="M269 47h0"></path><path d="M331.5 47h0"></path><rect x="269" y="36" width="62.5" height="22" rx="10" ry="10"></rect><text x="300.25" y="51">termo</text></g><path d="M331.5 47h10"></path><path d="M341.5 47h10"></path><g class="terminal "><path d="M351.5 47h0"></path><path d="M499 47h0"></path><rect x="351.5" y="36" width="147.5" height="22"></rect><text x="425.25" y="51">'para a rotina'</text></g><path d="M499 47h10"></path><g><path d="M509 47h0"></path><path d="M733.5 47h0"></path><path d="M509 47h20"></path><g><path d="M529 47h0"></path><g><path d="M529 47h10"></path><path d="M703.5 47h10"></path><g class="non-terminal "><path d="M539 47h0"></path><path d="M703.5 47h0"></path><rect x="539" y="36" width="164.5" height="22" rx="10" ry="10"></rect><text x="621.25" y="51">unidade_semantica</text></g></g><path d="M713.5 47h0"></path></g><path d="M713.5 47h20"></path><path d="M509 47a10 10 0 0 1 10 10v18a10 10 0 0 0 10 10"></path><g><path d="M529 85h34"></path><g><path d="M563 85h10"></path><path d="M669.5 85h10"></path><g class="non-terminal "><path d="M573 85h0"></path><path d="M669.5 85h0"></path><rect x="573" y="74" width="96.5" height="22" rx="10" ry="10"></rect><text x="621.25" y="89">parametro</text></g></g><path d="M679.5 85h34"></path></g><path d="M713.5 85a10 10 0 0 0 10 -10v-18a10 10 0 0 1 10 -10"></path><path d="M509 47a10 10 0 0 1 10 10v56a10 10 0 0 0 10 10"></path><g><path d="M529 123h51"></path><g><path d="M580 123h10"></path><path d="M652.5 123h10"></path><g class="non-terminal "><path d="M590 123h0"></path><path d="M652.5 123h0"></path><rect x="590" y="112" width="62.5" height="22" rx="10" ry="10"></rect><text x="621.25" y="127">frase</text></g></g><path d="M662.5 123h51"></path></g><path d="M713.5 123a10 10 0 0 0 10 -10v-56a10 10 0 0 1 10 -10"></path></g><g><path d="M733.5 47h0"></path><path d="M895.5 47h0"></path><path d="M733.5 47a10 10 0 0 0 10 -10v-7a10 10 0 0 1 10 -10"></path><g><path d="M753.5 20h122"></path></g><path d="M875.5 20a10 10 0 0 1 10 10v7a10 10 0 0 0 10 10"></path><path d="M733.5 47h20"></path><g class="non-terminal "><path d="M753.5 47h0"></path><path d="M875.5 47h0"></path><rect x="753.5" y="36" width="122" height="22" rx="10" ry="10"></rect><text x="814.5" y="51">qualificador</text></g><path d="M875.5 47h20"></path></g></g><path d="M905.5 47h0"></path></g><path d="M905.5 47h20"></path></g><path d="M 925.5 47 h 20 m 0 -10 v 20"></path></g><defs><style type="text/css"><![CDATA[
svg.railroad-diagram path { stroke-width: 2; stroke: darkgray; fill: rgba(0, 0, 0, 0);}/* All text except comments. */svg.railroad-diagram text { font: bold 12px Hack, "Source Code Pro", monospace; text-anchor: middle; fill: #404040;}/* Comment text */svg.railroad-diagram text.comment { font: italic 10px Hack, "Source Code Pro", monospace; fill: #404040;}/* The terminal boxes. */svg.railroad-diagram g.terminal rect { stroke-width: 2; stroke: #404040; fill: rgba(200, 200, 200, 1);}svg.railroad-diagram g.non-terminal rect { /* The non-terminal boxes. */ stroke-width: 2; stroke: #404040; fill: rgba(255, 255, 255, 1);}/* Multiple choice text, not working atm. */svg.railroad-diagram text.diagram-text { font-size: 12px Hack, "Source Code Pro", monospace; fill: red;}/* Multiple choice text, not working atm. */svg.railroad-diagram path.diagram-text { stroke-width: 1; stroke: red; fill: red; cursor: help;}
 ]]>
</style></defs></svg>