<?xml version="1.0" encoding="UTF-8" standalone="no"?>
<!DOCTYPE svg PUBLIC "-//W3C//DTD SVG 1.1//EN" "http://www.w3.org/Graphics/SVG/1.1/DTD/svg11.dtd">
<svg class="railroad-diagram" width="537.5" height="100" viewBox="0 0 537.5 100" id="informacao_opcional" xmlns="http://www.w3.org/2000/svg" xmlns:xlink="http://www.w3.org/1999/xlink"><g transform="translate(.5 .5)"><g><path d="M20 21v20m0 -10h20"></path></g><g><path d="M40 31h0"></path><path d="M497.5 31h0"></path><path d="M40 31h20"></path><g><path d="M60 31h0"></path><g><path d="M60 31h10"></path><path d="M467.5 31h10"></path><g class="terminal "><path d="M70 31h0"></path><path d="M141 31h0"></path><rect x="70" y="20" width="71" height="22"></rect><text x="105.5" y="35">'para'</text></g><path d="M141 31h10"></path><path d="M151 31h10"></path><g class="non-terminal "><path d="M161 31h0"></path><path d="M325.5 31h0"></path><rect x="161" y="20" width="164.5" height="22" rx="10" ry="10"></rect><text x="243.25" y="35">artigo_indefinido</text></g><path d="M325.5 31h10"></path><path d="M335.5 31h10"></path><g class="non-terminal "><path d="M345.5 31h0"></path><path d="M467.5 31h0"></path><rect x="345.5" y="20" width="122" height="22" rx="10" ry="10"></rect><text x="406.5" y="35">nome_do_tipo</text></g></g><path d="M477.5 31h0"></path></g><path d="M477.5 31h20"></path><path d="M40 31a10 10 0 0 1 10 10v18a10 10 0 0 0 10 10"></path><g><path d="M60 69h122"></path><g><path d="M182 69h10"></path><path d="M345.5 69h10"></path><g class="terminal "><path d="M192 69h0"></path><path d="M254.5 69h0"></path><rect x="192" y="58" width="62.5" height="22"></rect><text x="223.25" y="73">'com'</text></g><path d="M254.5 69h10"></path><path d="M264.5 69h10"></path><g class="non-terminal "><path d="M274.5 69h0"></path><path d="M345.5 69h0"></path><rect x="274.5" y="58" width="71" height="22" rx="10" ry="10"></rect><text x="310" y="73">campos</text></g></g><path d="M355.5 69h122"></path></g><path d="M477.5 69a10 10 0 0 0 10 -10v-18a10 10 0 0 1 10 -10"></path></g><path d="M 497.5 31 h 20 m 0 -10 v 20"></path></g><defs><style type="text/css"><![CDATA[
svg.railroad-diagram path { stroke-width: 2; stroke: darkgray; fill: rgba(0, 0, 0, 0);}/* All text except comments. */svg.railroad-diagram text { font: bold 12px Hack, "Source Code Pro", monospace; text-anchor: middle; fill: #404040;}/* Comment text */svg.railroad-diagram text.comment { font: italic 10px Hack, "Source Code Pro", monospace; fill: #404040;}/* The terminal boxes. */svg.railroad-diagram g.terminal rect { stroke-width: 2; stroke: #404040; fill: rgba(200, 200, 200, 1);}svg.railroad-diagram g.non-terminal rect { /* The non-terminal boxes. */ stroke-width: 2; stroke: #404040; fill: rgba(255, 255, 255, 1);}/* Multiple choice text, not working atm. */svg.railroad-diagram text.diagram-text { font-size: 12px Hack, "Source Code Pro", monospace; fill: red;}/* Multiple choice text, not working atm. */svg.railroad-diagram path.diagram-text { stroke-width: 1; stroke: red; fill: red; cursor: help;}
 ]]>
</style></defs></svg>