<?xml version="1.0" encoding="UTF-8" standalone="no"?>
<!DOCTYPE svg PUBLIC "-//W3C//DTD SVG 1.1//EN" "http://www.w3.org/Graphics/SVG/1.1/DTD/svg11.dtd">
<svg class="railroad-diagram" width="211" height="404" viewBox="0 0 211 404" id="iniciador_de_aglomerado" xmlns="http://www.w3.org/2000/svg" xmlns:xlink="http://www.w3.org/1999/xlink"><g transform="translate(.5 .5)"><g><path d="M20 21v20m0 -10h20"></path></g><g><path d="M40 31h0"></path><path d="M171 31h0"></path><path d="M40 31h20"></path><g><path d="M60 31h4.25"></path><g><path d="M64.25 31h10"></path><path d="M136.75 31h10"></path><g class="terminal "><path d="M74.25 31h0"></path><path d="M136.75 31h0"></path><rect x="74.25" y="20" width="62.5" height="22"></rect><text x="105.5" y="35">LETRA</text></g></g><path d="M146.75 31h4.25"></path></g><path d="M151 31h20"></path><path d="M40 31a10 10 0 0 1 10 10v18a10 10 0 0 0 10 10"></path><g><path d="M60 69h0"></path><g><path d="M60 69h10"></path><path d="M141 69h10"></path><g class="terminal "><path d="M70 69h0"></path><path d="M141 69h0"></path><rect x="70" y="58" width="71" height="22"></rect><text x="105.5" y="73">DIGITO</text></g></g><path d="M151 69h0"></path></g><path d="M151 69a10 10 0 0 0 10 -10v-18a10 10 0 0 1 10 -10"></path><path d="M40 31a10 10 0 0 1 10 10v56a10 10 0 0 0 10 10"></path><g><path d="M60 107h12.75"></path><g><path d="M72.75 107h10"></path><path d="M128.25 107h10"></path><g class="terminal "><path d="M82.75 107h0"></path><path d="M128.25 107h0"></path><rect x="82.75" y="96" width="45.5" height="22"></rect><text x="105.5" y="111">'~'</text></g></g><path d="M138.25 107h12.75"></path></g><path d="M151 107a10 10 0 0 0 10 -10v-56a10 10 0 0 1 10 -10"></path><path d="M40 31a10 10 0 0 1 10 10v94a10 10 0 0 0 10 10"></path><g><path d="M60 145h12.75"></path><g><path d="M72.75 145h10"></path><path d="M128.25 145h10"></path><g class="terminal "><path d="M82.75 145h0"></path><path d="M128.25 145h0"></path><rect x="82.75" y="134" width="45.5" height="22"></rect><text x="105.5" y="149">'@'</text></g></g><path d="M138.25 145h12.75"></path></g><path d="M151 145a10 10 0 0 0 10 -10v-94a10 10 0 0 1 10 -10"></path><path d="M40 31a10 10 0 0 1 10 10v132a10 10 0 0 0 10 10"></path><g><path d="M60 183h12.75"></path><g><path d="M72.75 183h10"></path><path d="M128.25 183h10"></path><g class="terminal "><path d="M82.75 183h0"></path><path d="M128.25 183h0"></path><rect x="82.75" y="172" width="45.5" height="22"></rect><text x="105.5" y="187">'#'</text></g></g><path d="M138.25 183h12.75"></path></g><path d="M151 183a10 10 0 0 0 10 -10v-132a10 10 0 0 1 10 -10"></path><path d="M40 31a10 10 0 0 1 10 10v170a10 10 0 0 0 10 10"></path><g><path d="M60 221h12.75"></path><g><path d="M72.75 221h10"></path><path d="M128.25 221h10"></path><g class="terminal "><path d="M82.75 221h0"></path><path d="M128.25 221h0"></path><rect x="82.75" y="210" width="45.5" height="22"></rect><text x="105.5" y="225">'%'</text></g></g><path d="M138.25 221h12.75"></path></g><path d="M151 221a10 10 0 0 0 10 -10v-170a10 10 0 0 1 10 -10"></path><path d="M40 31a10 10 0 0 1 10 10v208a10 10 0 0 0 10 10"></path><g><path d="M60 259h12.75"></path><g><path d="M72.75 259h10"></path><path d="M128.25 259h10"></path><g class="terminal "><path d="M82.75 259h0"></path><path d="M128.25 259h0"></path><rect x="82.75" y="248" width="45.5" height="22"></rect><text x="105.5" y="263">'_'</text></g></g><path d="M138.25 259h12.75"></path></g><path d="M151 259a10 10 0 0 0 10 -10v-208a10 10 0 0 1 10 -10"></path><path d="M40 31a10 10 0 0 1 10 10v246a10 10 0 0 0 10 10"></path><g><path d="M60 297h12.75"></path><g><path d="M72.75 297h10"></path><path d="M128.25 297h10"></path><g class="terminal "><path d="M82.75 297h0"></path><path d="M128.25 297h0"></path><rect x="82.75" y="286" width="45.5" height="22"></rect><text x="105.5" y="301">'$'</text></g></g><path d="M138.25 297h12.75"></path></g><path d="M151 297a10 10 0 0 0 10 -10v-246a10 10 0 0 1 10 -10"></path><path d="M40 31a10 10 0 0 1 10 10v284a10 10 0 0 0 10 10"></path><g><path d="M60 335h12.75"></path><g><path d="M72.75 335h10"></path><path d="M128.25 335h10"></path><g class="terminal "><path d="M82.75 335h0"></path><path d="M128.25 335h0"></path><rect x="82.75" y="324" width="45.5" height="22"></rect><text x="105.5" y="339">'&amp;'</text></g></g><path d="M138.25 335h12.75"></path></g><path d="M151 335a10 10 0 0 0 10 -10v-284a10 10 0 0 1 10 -10"></path><path d="M40 31a10 10 0 0 1 10 10v322a10 10 0 0 0 10 10"></path><g><path d="M60 373h8.5"></path><g><path d="M68.5 373h10"></path><path d="M132.5 373h10"></path><g class="terminal "><path d="M78.5 373h0"></path><path d="M132.5 373h0"></path><rect x="78.5" y="362" width="54" height="22"></rect><text x="105.5" y="377">'\''</text></g></g><path d="M142.5 373h8.5"></path></g><path d="M151 373a10 10 0 0 0 10 -10v-322a10 10 0 0 1 10 -10"></path></g><path d="M 171 31 h 20 m 0 -10 v 20"></path></g><defs><style type="text/css"><![CDATA[
svg.railroad-diagram path { stroke-width: 2; stroke: darkgray; fill: rgba(0, 0, 0, 0);}/* All text except comments. */svg.railroad-diagram text { font: bold 12px Hack, "Source Code Pro", monospace; text-anchor: middle; fill: #404040;}/* Comment text */svg.railroad-diagram text.comment { font: italic 10px Hack, "Source Code Pro", monospace; fill: #404040;}/* The terminal boxes. */svg.railroad-diagram g.terminal rect { stroke-width: 2; stroke: #404040; fill: rgba(200, 200, 200, 1);}svg.railroad-diagram g.non-terminal rect { /* The non-terminal boxes. */ stroke-width: 2; stroke: #404040; fill: rgba(255, 255, 255, 1);}/* Multiple choice text, not working atm. */svg.railroad-diagram text.diagram-text { font-size: 12px Hack, "Source Code Pro", monospace; fill: red;}/* Multiple choice text, not working atm. */svg.railroad-diagram path.diagram-text { stroke-width: 1; stroke: red; fill: red; cursor: help;}
 ]]>
</style></defs></svg>