<?xml version="1.0" encoding="UTF-8" standalone="no"?>
<!DOCTYPE svg PUBLIC "-//W3C//DTD SVG 1.1//EN" "http://www.w3.org/Graphics/SVG/1.1/DTD/svg11.dtd">
<svg class="railroad-diagram" width="336" height="176" viewBox="0 0 336 176" id="instrucao" xmlns="http://www.w3.org/2000/svg" xmlns:xlink="http://www.w3.org/1999/xlink"><g transform="translate(.5 .5)"><g><path d="M20 21v20m0 -10h20"></path></g><g><path d="M40 31h0"></path><path d="M296 31h0"></path><path d="M40 31h20"></path><g><path d="M60 31h41.25"></path><g><path d="M101.25 31h10"></path><path d="M224.75 31h10"></path><g class="non-terminal "><path d="M111.25 31h0"></path><path d="M224.75 31h0"></path><rect x="111.25" y="20" width="113.5" height="22" rx="10" ry="10"></rect><text x="168" y="35">preservacao</text></g></g><path d="M234.75 31h41.25"></path></g><path d="M276 31h20"></path><path d="M40 31a10 10 0 0 1 10 10v18a10 10 0 0 0 10 10"></path><g><path d="M60 69h54"></path><g><path d="M114 69h10"></path><path d="M212 69h10"></path><g class="non-terminal "><path d="M124 69h0"></path><path d="M212 69h0"></path><rect x="124" y="58" width="88" height="22" rx="10" ry="10"></rect><text x="168" y="73">iteracao</text></g></g><path d="M222 69h54"></path></g><path d="M276 69a10 10 0 0 0 10 -10v-18a10 10 0 0 1 10 -10"></path><path d="M40 31a10 10 0 0 1 10 10v56a10 10 0 0 0 10 10"></path><g><path d="M60 107h41.25"></path><g><path d="M101.25 107h10"></path><path d="M224.75 107h10"></path><g class="non-terminal "><path d="M111.25 107h0"></path><path d="M224.75 107h0"></path><rect x="111.25" y="96" width="113.5" height="22" rx="10" ry="10"></rect><text x="168" y="111">condicional</text></g></g><path d="M234.75 107h41.25"></path></g><path d="M276 107a10 10 0 0 0 10 -10v-56a10 10 0 0 1 10 -10"></path><path d="M40 31a10 10 0 0 1 10 10v94a10 10 0 0 0 10 10"></path><g><path d="M60 145h0"></path><g><path d="M60 145h10"></path><path d="M266 145h10"></path><g class="non-terminal "><path d="M70 145h0"></path><path d="M200.5 145h0"></path><rect x="70" y="134" width="130.5" height="22" rx="10" ry="10"></rect><text x="135.25" y="149">incondicional</text></g><path d="M200.5 145h10"></path><path d="M210.5 145h10"></path><g class="terminal "><path d="M220.5 145h0"></path><path d="M266 145h0"></path><rect x="220.5" y="134" width="45.5" height="22"></rect><text x="243.25" y="149">','</text></g></g><path d="M276 145h0"></path></g><path d="M276 145a10 10 0 0 0 10 -10v-94a10 10 0 0 1 10 -10"></path></g><path d="M 296 31 h 20 m 0 -10 v 20"></path></g><defs><style type="text/css"><![CDATA[
svg.railroad-diagram path { stroke-width: 2; stroke: darkgray; fill: rgba(0, 0, 0, 0);}/* All text except comments. */svg.railroad-diagram text { font: bold 12px Hack, "Source Code Pro", monospace; text-anchor: middle; fill: #404040;}/* Comment text */svg.railroad-diagram text.comment { font: italic 10px Hack, "Source Code Pro", monospace; fill: #404040;}/* The terminal boxes. */svg.railroad-diagram g.terminal rect { stroke-width: 2; stroke: #404040; fill: rgba(200, 200, 200, 1);}svg.railroad-diagram g.non-terminal rect { /* The non-terminal boxes. */ stroke-width: 2; stroke: #404040; fill: rgba(255, 255, 255, 1);}/* Multiple choice text, not working atm. */svg.railroad-diagram text.diagram-text { font-size: 12px Hack, "Source Code Pro", monospace; fill: red;}/* Multiple choice text, not working atm. */svg.railroad-diagram path.diagram-text { stroke-width: 1; stroke: red; fill: red; cursor: help;}
 ]]>
</style></defs></svg>