<?xml version="1.0" encoding="UTF-8" standalone="no"?>
<!DOCTYPE svg PUBLIC "-//W3C//DTD SVG 1.1//EN" "http://www.w3.org/Graphics/SVG/1.1/DTD/svg11.dtd">
<svg class="railroad-diagram" width="1735" height="110" viewBox="0 0 1735 110" id="invocacao_externa" xmlns="http://www.w3.org/2000/svg" xmlns:xlink="http://www.w3.org/1999/xlink"><g transform="translate(.5 .5)"><g><path d="M20 53v20m0 -10h20"></path></g><g><path d="M40 63h0"></path><path d="M1695 63h0"></path><path d="M40 63h20"></path><g><path d="M60 63h0"></path><g><path d="M60 63h10"></path><path d="M1665 63h10"></path><g class="terminal "><path d="M70 63h0"></path><path d="M175 63h0"></path><rect x="70" y="52" width="105" height="22"></rect><text x="122.5" y="67">'Processe'</text></g><path d="M175 63h10"></path><path d="M185 63h10"></path><g class="terminal "><path d="M195 63h0"></path><path d="M240.5 63h0"></path><rect x="195" y="52" width="45.5" height="22"></rect><text x="217.75" y="67">'"'</text></g><path d="M240.5 63h10"></path><path d="M250.5 63h10"></path><g class="non-terminal "><path d="M260.5 63h0"></path><path d="M374 63h0"></path><rect x="260.5" y="52" width="113.5" height="22" rx="10" ry="10"></rect><text x="317.25" y="67">nome_da_DLL</text></g><path d="M374 63h10"></path><path d="M384 63h10"></path><g class="terminal "><path d="M394 63h0"></path><path d="M439.5 63h0"></path><rect x="394" y="52" width="45.5" height="22"></rect><text x="416.75" y="67">'"'</text></g><path d="M439.5 63h10"></path><path d="M449.5 63h10"></path><g class="terminal "><path d="M459.5 63h0"></path><path d="M505 63h0"></path><rect x="459.5" y="52" width="45.5" height="22"></rect><text x="482.25" y="67">'"'</text></g><path d="M505 63h10"></path><path d="M515 63h10"></path><g class="non-terminal "><path d="M525 63h0"></path><path d="M664 63h0"></path><rect x="525" y="52" width="139" height="22" rx="10" ry="10"></rect><text x="594.5" y="67">nome_da_funcao</text></g><path d="M664 63h10"></path><path d="M674 63h10"></path><g class="terminal "><path d="M684 63h0"></path><path d="M729.5 63h0"></path><rect x="684" y="52" width="45.5" height="22"></rect><text x="706.75" y="67">'"'</text></g><path d="M729.5 63h10"></path><g><path d="M739.5 63h0"></path><path d="M1665 63h0"></path><path d="M739.5 63a10 10 0 0 0 10 -10v-23a10 10 0 0 1 10 -10"></path><g><path d="M759.5 20h885.5"></path></g><path d="M1645 20a10 10 0 0 1 10 10v23a10 10 0 0 0 10 10"></path><path d="M739.5 63h20"></path><g><path d="M759.5 63h0"></path><path d="M1645 63h0"></path><path d="M759.5 63h20"></path><g><path d="M779.5 63h0"></path><g><path d="M779.5 63h10"></path><path d="M1615 63h10"></path><g><path d="M789.5 63h0"></path><path d="M1028.5 63h0"></path><path d="M789.5 63h20"></path><g><path d="M809.5 63h0"></path><g><path d="M809.5 63h10"></path><path d="M998.5 63h10"></path><g class="terminal "><path d="M819.5 63h0"></path><path d="M882 63h0"></path><rect x="819.5" y="52" width="62.5" height="22"></rect><text x="850.75" y="67">'com'</text></g><path d="M882 63h10"></path><path d="M892 63h10"></path><g class="non-terminal "><path d="M902 63h0"></path><path d="M998.5 63h0"></path><rect x="902" y="52" width="96.5" height="22" rx="10" ry="10"></rect><text x="950.25" y="67">expressao</text></g></g><path d="M1008.5 63h0"></path></g><path d="M1008.5 63h20"></path></g><g><path d="M1028.5 63h0"></path><path d="M1310.5 63h0"></path><path d="M1028.5 63a10 10 0 0 0 10 -10v-7a10 10 0 0 1 10 -10"></path><g><path d="M1048.5 36h242"></path></g><path d="M1290.5 36a10 10 0 0 1 10 10v7a10 10 0 0 0 10 10"></path><path d="M1028.5 63h20"></path><g><path d="M1048.5 63h0"></path><path d="M1290.5 63h0"></path><path d="M1048.5 63h10"></path><g><path d="M1058.5 63h0"></path><path d="M1280.5 63h0"></path><path d="M1058.5 63h20"></path><g><path d="M1078.5 63h0"></path><g><path d="M1078.5 63h10"></path><path d="M1250.5 63h10"></path><g class="terminal "><path d="M1088.5 63h0"></path><path d="M1134 63h0"></path><rect x="1088.5" y="52" width="45.5" height="22"></rect><text x="1111.25" y="67">'e'</text></g><path d="M1134 63h10"></path><path d="M1144 63h10"></path><g class="non-terminal "><path d="M1154 63h0"></path><path d="M1250.5 63h0"></path><rect x="1154" y="52" width="96.5" height="22" rx="10" ry="10"></rect><text x="1202.25" y="67">expressao</text></g></g><path d="M1260.5 63h0"></path></g><path d="M1260.5 63h20"></path></g><path d="M1280.5 63h10"></path><path d="M1058.5 63a10 10 0 0 0 -10 10v7a10 10 0 0 0 10 10"></path><g><path d="M1058.5 90h222"></path></g><path d="M1280.5 90a10 10 0 0 0 10 -10v-7a10 10 0 0 0 -10 -10"></path></g><path d="M1290.5 63h20"></path></g><g><path d="M1310.5 63h0"></path><path d="M1615 63h0"></path><path d="M1310.5 63a10 10 0 0 0 10 -10v-7a10 10 0 0 1 10 -10"></path><g><path d="M1330.5 36h264.5"></path></g><path d="M1595 36a10 10 0 0 1 10 10v7a10 10 0 0 0 10 10"></path><path d="M1310.5 63h20"></path><g><path d="M1330.5 63h0"></path><path d="M1595 63h0"></path><path d="M1330.5 63h20"></path><g><path d="M1350.5 63h0"></path><g><path d="M1350.5 63h10"></path><path d="M1565 63h10"></path><g class="terminal "><path d="M1360.5 63h0"></path><path d="M1482.5 63h0"></path><rect x="1360.5" y="52" width="122" height="22"></rect><text x="1421.5" y="67">'retornando'</text></g><path d="M1482.5 63h10"></path><path d="M1492.5 63h10"></path><g class="non-terminal "><path d="M1502.5 63h0"></path><path d="M1565 63h0"></path><rect x="1502.5" y="52" width="62.5" height="22" rx="10" ry="10"></rect><text x="1533.75" y="67">termo</text></g></g><path d="M1575 63h0"></path></g><path d="M1575 63h20"></path></g><path d="M1595 63h20"></path></g></g><path d="M1625 63h0"></path></g><path d="M1625 63h20"></path></g><path d="M1645 63h20"></path></g></g><path d="M1675 63h0"></path></g><path d="M1675 63h20"></path></g><path d="M 1695 63 h 20 m 0 -10 v 20"></path></g><defs><style type="text/css"><![CDATA[
svg.railroad-diagram path { stroke-width: 2; stroke: darkgray; fill: rgba(0, 0, 0, 0);}/* All text except comments. */svg.railroad-diagram text { font: bold 12px Hack, "Source Code Pro", monospace; text-anchor: middle; fill: #404040;}/* Comment text */svg.railroad-diagram text.comment { font: italic 10px Hack, "Source Code Pro", monospace; fill: #404040;}/* The terminal boxes. */svg.railroad-diagram g.terminal rect { stroke-width: 2; stroke: #404040; fill: rgba(200, 200, 200, 1);}svg.railroad-diagram g.non-terminal rect { /* The non-terminal boxes. */ stroke-width: 2; stroke: #404040; fill: rgba(255, 255, 255, 1);}/* Multiple choice text, not working atm. */svg.railroad-diagram text.diagram-text { font-size: 12px Hack, "Source Code Pro", monospace; fill: red;}/* Multiple choice text, not working atm. */svg.railroad-diagram path.diagram-text { stroke-width: 1; stroke: red; fill: red; cursor: help;}
 ]]>
</style></defs></svg>