<?xml version="1.0" encoding="UTF-8" standalone="no"?>
<!DOCTYPE svg PUBLIC "-//W3C//DTD SVG 1.1//EN" "http://www.w3.org/Graphics/SVG/1.1/DTD/svg11.dtd">
<svg class="railroad-diagram" width="1247" height="110" viewBox="0 0 1247 110" id="invocacao_indireta" xmlns="http://www.w3.org/2000/svg" xmlns:xlink="http://www.w3.org/1999/xlink"><g transform="translate(.5 .5)"><g><path d="M20 53v20m0 -10h20"></path></g><g><path d="M40 63h0"></path><path d="M1207 63h0"></path><path d="M40 63h20"></path><g><path d="M60 63h0"></path><g><path d="M60 63h10"></path><path d="M1177 63h10"></path><g class="terminal "><path d="M70 63h0"></path><path d="M175 63h0"></path><rect x="70" y="52" width="105" height="22"></rect><text x="122.5" y="67">'Processe'</text></g><path d="M175 63h10"></path><path d="M185 63h10"></path><g class="non-terminal "><path d="M195 63h0"></path><path d="M291.5 63h0"></path><rect x="195" y="52" width="96.5" height="22" rx="10" ry="10"></rect><text x="243.25" y="67">expressao</text></g><path d="M291.5 63h10"></path><g><path d="M301.5 63h0"></path><path d="M1177 63h0"></path><path d="M301.5 63a10 10 0 0 0 10 -10v-23a10 10 0 0 1 10 -10"></path><g><path d="M321.5 20h835.5"></path></g><path d="M1157 20a10 10 0 0 1 10 10v23a10 10 0 0 0 10 10"></path><path d="M301.5 63h20"></path><g><path d="M321.5 63h0"></path><path d="M1157 63h0"></path><path d="M321.5 63h20"></path><g><path d="M341.5 63h0"></path><g><path d="M341.5 63h10"></path><path d="M1127 63h10"></path><g class="terminal "><path d="M351.5 63h0"></path><path d="M414 63h0"></path><rect x="351.5" y="52" width="62.5" height="22"></rect><text x="382.75" y="67">'com'</text></g><path d="M414 63h10"></path><path d="M424 63h10"></path><g class="non-terminal "><path d="M434 63h0"></path><path d="M530.5 63h0"></path><rect x="434" y="52" width="96.5" height="22" rx="10" ry="10"></rect><text x="482.25" y="67">expressao</text></g><path d="M530.5 63h10"></path><g><path d="M540.5 63h0"></path><path d="M822.5 63h0"></path><path d="M540.5 63a10 10 0 0 0 10 -10v-7a10 10 0 0 1 10 -10"></path><g><path d="M560.5 36h242"></path></g><path d="M802.5 36a10 10 0 0 1 10 10v7a10 10 0 0 0 10 10"></path><path d="M540.5 63h20"></path><g><path d="M560.5 63h0"></path><path d="M802.5 63h0"></path><path d="M560.5 63h10"></path><g><path d="M570.5 63h0"></path><path d="M792.5 63h0"></path><path d="M570.5 63h20"></path><g><path d="M590.5 63h0"></path><g><path d="M590.5 63h10"></path><path d="M762.5 63h10"></path><g class="terminal "><path d="M600.5 63h0"></path><path d="M646 63h0"></path><rect x="600.5" y="52" width="45.5" height="22"></rect><text x="623.25" y="67">'e'</text></g><path d="M646 63h10"></path><path d="M656 63h10"></path><g class="non-terminal "><path d="M666 63h0"></path><path d="M762.5 63h0"></path><rect x="666" y="52" width="96.5" height="22" rx="10" ry="10"></rect><text x="714.25" y="67">expressao</text></g></g><path d="M772.5 63h0"></path></g><path d="M772.5 63h20"></path></g><path d="M792.5 63h10"></path><path d="M570.5 63a10 10 0 0 0 -10 10v7a10 10 0 0 0 10 10"></path><g><path d="M570.5 90h222"></path></g><path d="M792.5 90a10 10 0 0 0 10 -10v-7a10 10 0 0 0 -10 -10"></path></g><path d="M802.5 63h20"></path></g><g><path d="M822.5 63h0"></path><path d="M1127 63h0"></path><path d="M822.5 63a10 10 0 0 0 10 -10v-7a10 10 0 0 1 10 -10"></path><g><path d="M842.5 36h264.5"></path></g><path d="M1107 36a10 10 0 0 1 10 10v7a10 10 0 0 0 10 10"></path><path d="M822.5 63h20"></path><g><path d="M842.5 63h0"></path><path d="M1107 63h0"></path><path d="M842.5 63h20"></path><g><path d="M862.5 63h0"></path><g><path d="M862.5 63h10"></path><path d="M1077 63h10"></path><g class="terminal "><path d="M872.5 63h0"></path><path d="M994.5 63h0"></path><rect x="872.5" y="52" width="122" height="22"></rect><text x="933.5" y="67">'retornando'</text></g><path d="M994.5 63h10"></path><path d="M1004.5 63h10"></path><g class="non-terminal "><path d="M1014.5 63h0"></path><path d="M1077 63h0"></path><rect x="1014.5" y="52" width="62.5" height="22" rx="10" ry="10"></rect><text x="1045.75" y="67">termo</text></g></g><path d="M1087 63h0"></path></g><path d="M1087 63h20"></path></g><path d="M1107 63h20"></path></g></g><path d="M1137 63h0"></path></g><path d="M1137 63h20"></path></g><path d="M1157 63h20"></path></g></g><path d="M1187 63h0"></path></g><path d="M1187 63h20"></path></g><path d="M 1207 63 h 20 m 0 -10 v 20"></path></g><defs><style type="text/css"><![CDATA[
svg.railroad-diagram path { stroke-width: 2; stroke: darkgray; fill: rgba(0, 0, 0, 0);}/* All text except comments. */svg.railroad-diagram text { font: bold 12px Hack, "Source Code Pro", monospace; text-anchor: middle; fill: #404040;}/* Comment text */svg.railroad-diagram text.comment { font: italic 10px Hack, "Source Code Pro", monospace; fill: #404040;}/* The terminal boxes. */svg.railroad-diagram g.terminal rect { stroke-width: 2; stroke: #404040; fill: rgba(200, 200, 200, 1);}svg.railroad-diagram g.non-terminal rect { /* The non-terminal boxes. */ stroke-width: 2; stroke: #404040; fill: rgba(255, 255, 255, 1);}/* Multiple choice text, not working atm. */svg.railroad-diagram text.diagram-text { font-size: 12px Hack, "Source Code Pro", monospace; fill: red;}/* Multiple choice text, not working atm. */svg.railroad-diagram path.diagram-text { stroke-width: 1; stroke: red; fill: red; cursor: help;}
 ]]>
</style></defs></svg>