<?xml version="1.0" encoding="UTF-8" standalone="no"?>
<!DOCTYPE svg PUBLIC "-//W3C//DTD SVG 1.1//EN" "http://www.w3.org/Graphics/SVG/1.1/DTD/svg11.dtd">
<svg class="railroad-diagram" width="526.5" height="154" viewBox="0 0 526.5 154" id="invocacao_interna" xmlns="http://www.w3.org/2000/svg" xmlns:xlink="http://www.w3.org/1999/xlink"><g transform="translate(.5 .5)"><g><path d="M20 37v20m0 -10h20"></path></g><g><path d="M40 47h0"></path><path d="M486.5 47h0"></path><path d="M40 47h20"></path><g><path d="M60 47h0"></path><g><path d="M60 47h10"></path><path d="M456.5 47h10"></path><g><path d="M70 47h0"></path><path d="M294.5 47h0"></path><path d="M70 47h20"></path><g><path d="M90 47h0"></path><g><path d="M90 47h10"></path><path d="M264.5 47h10"></path><g class="non-terminal "><path d="M100 47h0"></path><path d="M264.5 47h0"></path><rect x="100" y="36" width="164.5" height="22" rx="10" ry="10"></rect><text x="182.25" y="51">unidade_semantica</text></g></g><path d="M274.5 47h0"></path></g><path d="M274.5 47h20"></path><path d="M70 47a10 10 0 0 1 10 10v18a10 10 0 0 0 10 10"></path><g><path d="M90 85h34"></path><g><path d="M124 85h10"></path><path d="M230.5 85h10"></path><g class="non-terminal "><path d="M134 85h0"></path><path d="M230.5 85h0"></path><rect x="134" y="74" width="96.5" height="22" rx="10" ry="10"></rect><text x="182.25" y="89">expressao</text></g></g><path d="M240.5 85h34"></path></g><path d="M274.5 85a10 10 0 0 0 10 -10v-18a10 10 0 0 1 10 -10"></path><path d="M70 47a10 10 0 0 1 10 10v56a10 10 0 0 0 10 10"></path><g><path d="M90 123h51"></path><g><path d="M141 123h10"></path><path d="M213.5 123h10"></path><g class="non-terminal "><path d="M151 123h0"></path><path d="M213.5 123h0"></path><rect x="151" y="112" width="62.5" height="22" rx="10" ry="10"></rect><text x="182.25" y="127">frase</text></g></g><path d="M223.5 123h51"></path></g><path d="M274.5 123a10 10 0 0 0 10 -10v-56a10 10 0 0 1 10 -10"></path></g><g><path d="M294.5 47h0"></path><path d="M456.5 47h0"></path><path d="M294.5 47a10 10 0 0 0 10 -10v-7a10 10 0 0 1 10 -10"></path><g><path d="M314.5 20h122"></path></g><path d="M436.5 20a10 10 0 0 1 10 10v7a10 10 0 0 0 10 10"></path><path d="M294.5 47h20"></path><g class="non-terminal "><path d="M314.5 47h0"></path><path d="M436.5 47h0"></path><rect x="314.5" y="36" width="122" height="22" rx="10" ry="10"></rect><text x="375.5" y="51">qualificador</text></g><path d="M436.5 47h20"></path></g></g><path d="M466.5 47h0"></path></g><path d="M466.5 47h20"></path></g><path d="M 486.5 47 h 20 m 0 -10 v 20"></path></g><defs><style type="text/css"><![CDATA[
svg.railroad-diagram path { stroke-width: 2; stroke: darkgray; fill: rgba(0, 0, 0, 0);}/* All text except comments. */svg.railroad-diagram text { font: bold 12px Hack, "Source Code Pro", monospace; text-anchor: middle; fill: #404040;}/* Comment text */svg.railroad-diagram text.comment { font: italic 10px Hack, "Source Code Pro", monospace; fill: #404040;}/* The terminal boxes. */svg.railroad-diagram g.terminal rect { stroke-width: 2; stroke: #404040; fill: rgba(200, 200, 200, 1);}svg.railroad-diagram g.non-terminal rect { /* The non-terminal boxes. */ stroke-width: 2; stroke: #404040; fill: rgba(255, 255, 255, 1);}/* Multiple choice text, not working atm. */svg.railroad-diagram text.diagram-text { font-size: 12px Hack, "Source Code Pro", monospace; fill: red;}/* Multiple choice text, not working atm. */svg.railroad-diagram path.diagram-text { stroke-width: 1; stroke: red; fill: red; cursor: help;}
 ]]>
</style></defs></svg>