<?xml version="1.0" encoding="UTF-8" standalone="no"?>
<!DOCTYPE svg PUBLIC "-//W3C//DTD SVG 1.1//EN" "http://www.w3.org/Graphics/SVG/1.1/DTD/svg11.dtd">
<svg class="railroad-diagram" width="443" height="306" viewBox="0 0 443 306" id="literal" xmlns="http://www.w3.org/2000/svg" xmlns:xlink="http://www.w3.org/1999/xlink"><g transform="translate(.5 .5)"><g><path d="M20 37v20m0 -10h20"></path></g><g><path d="M40 47h0"></path><path d="M403 47h0"></path><path d="M40 47h20"></path><g><path d="M60 47h0"></path><g><path d="M60 47h10"></path><path d="M373 47h10"></path><g class="non-terminal "><path d="M70 47h0"></path><path d="M141 47h0"></path><rect x="70" y="36" width="71" height="22" rx="10" ry="10"></rect><text x="105.5" y="51">numero</text></g><path d="M141 47h10"></path><g><path d="M151 47h0"></path><path d="M373 47h0"></path><path d="M151 47a10 10 0 0 0 10 -10v-7a10 10 0 0 1 10 -10"></path><g><path d="M171 20h182"></path></g><path d="M353 20a10 10 0 0 1 10 10v7a10 10 0 0 0 10 10"></path><path d="M151 47h20"></path><g><path d="M171 47h0"></path><path d="M353 47h0"></path><path d="M171 47h20"></path><g><path d="M191 47h0"></path><g><path d="M191 47h10"></path><path d="M323 47h10"></path><g class="non-terminal "><path d="M201 47h0"></path><path d="M323 47h0"></path><rect x="201" y="36" width="122" height="22" rx="10" ry="10"></rect><text x="262" y="51">nome_do_tipo</text></g></g><path d="M333 47h0"></path></g><path d="M333 47h20"></path></g><path d="M353 47h20"></path></g></g><path d="M383 47h0"></path></g><path d="M383 47h20"></path><path d="M40 47a10 10 0 0 1 10 10v18a10 10 0 0 0 10 10"></path><g><path d="M60 85h82"></path><g><path d="M142 85h10"></path><path d="M291 85h10"></path><g class="non-terminal "><path d="M152 85h0"></path><path d="M291 85h0"></path><rect x="152" y="74" width="139" height="22" rx="10" ry="10"></rect><text x="221.5" y="89">string_literal</text></g></g><path d="M301 85h82"></path></g><path d="M383 85a10 10 0 0 0 10 -10v-18a10 10 0 0 1 10 -10"></path><path d="M40 47a10 10 0 0 1 10 10v56a10 10 0 0 0 10 10"></path><g><path d="M60 123h65"></path><g><path d="M125 123h10"></path><path d="M308 123h10"></path><g class="non-terminal "><path d="M135 123h0"></path><path d="M308 123h0"></path><rect x="135" y="112" width="173" height="22" rx="10" ry="10"></rect><text x="221.5" y="127">numero_hexadecimal</text></g></g><path d="M318 123h65"></path></g><path d="M383 123a10 10 0 0 0 10 -10v-56a10 10 0 0 1 10 -10"></path><path d="M40 47a10 10 0 0 1 10 10v94a10 10 0 0 0 10 10"></path><g><path d="M60 161h120.25"></path><g><path d="M180.25 161h10"></path><path d="M252.75 161h10"></path><g class="terminal "><path d="M190.25 161h0"></path><path d="M252.75 161h0"></path><rect x="190.25" y="150" width="62.5" height="22"></rect><text x="221.5" y="165">'sim'</text></g></g><path d="M262.75 161h120.25"></path></g><path d="M383 161a10 10 0 0 0 10 -10v-94a10 10 0 0 1 10 -10"></path><path d="M40 47a10 10 0 0 1 10 10v132a10 10 0 0 0 10 10"></path><g><path d="M60 199h120.25"></path><g><path d="M180.25 199h10"></path><path d="M252.75 199h10"></path><g class="terminal "><path d="M190.25 199h0"></path><path d="M252.75 199h0"></path><rect x="190.25" y="188" width="62.5" height="22"></rect><text x="221.5" y="203">'não'</text></g></g><path d="M262.75 199h120.25"></path></g><path d="M383 199a10 10 0 0 0 10 -10v-132a10 10 0 0 1 10 -10"></path><path d="M40 47a10 10 0 0 1 10 10v170a10 10 0 0 0 10 10"></path><g><path d="M60 237h116"></path><g><path d="M176 237h10"></path><path d="M257 237h10"></path><g class="terminal "><path d="M186 237h0"></path><path d="M257 237h0"></path><rect x="186" y="226" width="71" height="22"></rect><text x="221.5" y="241">'nulo'</text></g></g><path d="M267 237h116"></path></g><path d="M383 237a10 10 0 0 0 10 -10v-170a10 10 0 0 1 10 -10"></path><path d="M40 47a10 10 0 0 1 10 10v208a10 10 0 0 0 10 10"></path><g><path d="M60 275h90.5"></path><g><path d="M150.5 275h10"></path><path d="M282.5 275h10"></path><g class="terminal "><path d="M160.5 275h0"></path><path d="M282.5 275h0"></path><rect x="160.5" y="264" width="122" height="22"></rect><text x="221.5" y="279">'inexistene'</text></g></g><path d="M292.5 275h90.5"></path></g><path d="M383 275a10 10 0 0 0 10 -10v-208a10 10 0 0 1 10 -10"></path></g><path d="M 403 47 h 20 m 0 -10 v 20"></path></g><defs><style type="text/css"><![CDATA[
svg.railroad-diagram path { stroke-width: 2; stroke: darkgray; fill: rgba(0, 0, 0, 0);}/* All text except comments. */svg.railroad-diagram text { font: bold 12px Hack, "Source Code Pro", monospace; text-anchor: middle; fill: #404040;}/* Comment text */svg.railroad-diagram text.comment { font: italic 10px Hack, "Source Code Pro", monospace; fill: #404040;}/* The terminal boxes. */svg.railroad-diagram g.terminal rect { stroke-width: 2; stroke: #404040; fill: rgba(200, 200, 200, 1);}svg.railroad-diagram g.non-terminal rect { /* The non-terminal boxes. */ stroke-width: 2; stroke: #404040; fill: rgba(255, 255, 255, 1);}/* Multiple choice text, not working atm. */svg.railroad-diagram text.diagram-text { font-size: 12px Hack, "Source Code Pro", monospace; fill: red;}/* Multiple choice text, not working atm. */svg.railroad-diagram path.diagram-text { stroke-width: 1; stroke: red; fill: red; cursor: help;}
 ]]>
</style></defs></svg>