<?xml version="1.0" encoding="UTF-8" standalone="no"?>
<!DOCTYPE svg PUBLIC "-//W3C//DTD SVG 1.1//EN" "http://www.w3.org/Graphics/SVG/1.1/DTD/svg11.dtd">
<svg class="railroad-diagram" width="374.5" height="154" viewBox="0 0 374.5 154" id="nome_da_rotina" xmlns="http://www.w3.org/2000/svg" xmlns:xlink="http://www.w3.org/1999/xlink"><g transform="translate(.5 .5)"><g><path d="M20 21v20m0 -10h20"></path></g><g><path d="M40 31h0"></path><path d="M334.5 31h0"></path><path d="M40 31h20"></path><g><path d="M60 31h35"></path><g><path d="M95 31h10"></path><path d="M269.5 31h10"></path><g class="non-terminal "><path d="M105 31h0"></path><path d="M269.5 31h0"></path><rect x="105" y="20" width="164.5" height="22" rx="10" ry="10"></rect><text x="187.25" y="35">unidade_semantica</text></g></g><path d="M279.5 31h35"></path></g><path d="M314.5 31h20"></path><path d="M40 31a10 10 0 0 1 10 10v18a10 10 0 0 0 10 10"></path><g><path d="M60 69h69"></path><g><path d="M129 69h10"></path><path d="M235.5 69h10"></path><g class="non-terminal "><path d="M139 69h0"></path><path d="M235.5 69h0"></path><rect x="139" y="58" width="96.5" height="22" rx="10" ry="10"></rect><text x="187.25" y="73">parametro</text></g></g><path d="M245.5 69h69"></path></g><path d="M314.5 69a10 10 0 0 0 10 -10v-18a10 10 0 0 1 10 -10"></path><path d="M40 31a10 10 0 0 1 10 10v72a10 10 0 0 0 10 10"></path><g><path d="M60 123h0"></path><g><path d="M60 123h10"></path><path d="M304.5 123h10"></path><g class="non-terminal "><path d="M70 123h0"></path><path d="M132.5 123h0"></path><rect x="70" y="112" width="62.5" height="22" rx="10" ry="10"></rect><text x="101.25" y="127">frase</text></g><path d="M132.5 123h10"></path><g><path d="M142.5 123h0"></path><path d="M304.5 123h0"></path><path d="M142.5 123a10 10 0 0 0 10 -10v-7a10 10 0 0 1 10 -10"></path><g><path d="M162.5 96h122"></path></g><path d="M284.5 96a10 10 0 0 1 10 10v7a10 10 0 0 0 10 10"></path><path d="M142.5 123h20"></path><g class="non-terminal "><path d="M162.5 123h0"></path><path d="M284.5 123h0"></path><rect x="162.5" y="112" width="122" height="22" rx="10" ry="10"></rect><text x="223.5" y="127">qualificador</text></g><path d="M284.5 123h20"></path></g></g><path d="M314.5 123h0"></path></g><path d="M314.5 123a10 10 0 0 0 10 -10v-72a10 10 0 0 1 10 -10"></path></g><path d="M 334.5 31 h 20 m 0 -10 v 20"></path></g><defs><style type="text/css"><![CDATA[
svg.railroad-diagram path { stroke-width: 2; stroke: darkgray; fill: rgba(0, 0, 0, 0);}/* All text except comments. */svg.railroad-diagram text { font: bold 12px Hack, "Source Code Pro", monospace; text-anchor: middle; fill: #404040;}/* Comment text */svg.railroad-diagram text.comment { font: italic 10px Hack, "Source Code Pro", monospace; fill: #404040;}/* The terminal boxes. */svg.railroad-diagram g.terminal rect { stroke-width: 2; stroke: #404040; fill: rgba(200, 200, 200, 1);}svg.railroad-diagram g.non-terminal rect { /* The non-terminal boxes. */ stroke-width: 2; stroke: #404040; fill: rgba(255, 255, 255, 1);}/* Multiple choice text, not working atm. */svg.railroad-diagram text.diagram-text { font-size: 12px Hack, "Source Code Pro", monospace; fill: red;}/* Multiple choice text, not working atm. */svg.railroad-diagram path.diagram-text { stroke-width: 1; stroke: red; fill: red; cursor: help;}
 ]]>
</style></defs></svg>