<?xml version="1.0" encoding="UTF-8" standalone="no"?>
<!DOCTYPE svg PUBLIC "-//W3C//DTD SVG 1.1//EN" "http://www.w3.org/Graphics/SVG/1.1/DTD/svg11.dtd">
<svg class="railroad-diagram" width="313" height="138" viewBox="0 0 313 138" id="numero" xmlns="http://www.w3.org/2000/svg" xmlns:xlink="http://www.w3.org/1999/xlink"><g transform="translate(.5 .5)"><g><path d="M20 21v20m0 -10h20"></path></g><g><path d="M40 31h0"></path><path d="M273 31h0"></path><path d="M40 31h20"></path><g><path d="M60 31h17"></path><g><path d="M77 31h10"></path><path d="M226 31h10"></path><g class="non-terminal "><path d="M87 31h0"></path><path d="M226 31h0"></path><rect x="87" y="20" width="139" height="22" rx="10" ry="10"></rect><text x="156.5" y="35">numero_decimal</text></g></g><path d="M236 31h17"></path></g><path d="M253 31h20"></path><path d="M40 31a10 10 0 0 1 10 10v18a10 10 0 0 0 10 10"></path><g><path d="M60 69h0"></path><g><path d="M60 69h10"></path><path d="M243 69h10"></path><g class="non-terminal "><path d="M70 69h0"></path><path d="M243 69h0"></path><rect x="70" y="58" width="173" height="22" rx="10" ry="10"></rect><text x="156.5" y="73">numero_fracionario</text></g></g><path d="M253 69h0"></path></g><path d="M253 69a10 10 0 0 0 10 -10v-18a10 10 0 0 1 10 -10"></path><path d="M40 31a10 10 0 0 1 10 10v56a10 10 0 0 0 10 10"></path><g><path d="M60 107h25.5"></path><g><path d="M85.5 107h10"></path><path d="M217.5 107h10"></path><g class="non-terminal "><path d="M95.5 107h0"></path><path d="M217.5 107h0"></path><rect x="95.5" y="96" width="122" height="22" rx="10" ry="10"></rect><text x="156.5" y="111">numero_misto</text></g></g><path d="M227.5 107h25.5"></path></g><path d="M253 107a10 10 0 0 0 10 -10v-56a10 10 0 0 1 10 -10"></path></g><path d="M 273 31 h 20 m 0 -10 v 20"></path></g><defs><style type="text/css"><![CDATA[
svg.railroad-diagram path { stroke-width: 2; stroke: darkgray; fill: rgba(0, 0, 0, 0);}/* All text except comments. */svg.railroad-diagram text { font: bold 12px Hack, "Source Code Pro", monospace; text-anchor: middle; fill: #404040;}/* Comment text */svg.railroad-diagram text.comment { font: italic 10px Hack, "Source Code Pro", monospace; fill: #404040;}/* The terminal boxes. */svg.railroad-diagram g.terminal rect { stroke-width: 2; stroke: #404040; fill: rgba(200, 200, 200, 1);}svg.railroad-diagram g.non-terminal rect { /* The non-terminal boxes. */ stroke-width: 2; stroke: #404040; fill: rgba(255, 255, 255, 1);}/* Multiple choice text, not working atm. */svg.railroad-diagram text.diagram-text { font-size: 12px Hack, "Source Code Pro", monospace; fill: red;}/* Multiple choice text, not working atm. */svg.railroad-diagram path.diagram-text { stroke-width: 1; stroke: red; fill: red; cursor: help;}
 ]]>
</style></defs></svg>