<?xml version="1.0" encoding="UTF-8" standalone="no"?>
<!DOCTYPE svg PUBLIC "-//W3C//DTD SVG 1.1//EN" "http://www.w3.org/Graphics/SVG/1.1/DTD/svg11.dtd">
<svg class="railroad-diagram" width="313" height="328" viewBox="0 0 313 328" id="operadores_comuns" xmlns="http://www.w3.org/2000/svg" xmlns:xlink="http://www.w3.org/1999/xlink"><g transform="translate(.5 .5)"><g><path d="M20 21v20m0 -10h20"></path></g><g><path d="M40 31h0"></path><path d="M273 31h0"></path><path d="M40 31h20"></path><g><path d="M60 31h51"></path><g><path d="M111 31h10"></path><path d="M192 31h10"></path><g class="terminal "><path d="M121 31h0"></path><path d="M192 31h0"></path><rect x="121" y="20" width="71" height="22"></rect><text x="156.5" y="35">'mais'</text></g></g><path d="M202 31h51"></path></g><path d="M253 31h20"></path><path d="M40 31a10 10 0 0 1 10 10v18a10 10 0 0 0 10 10"></path><g><path d="M60 69h46.75"></path><g><path d="M106.75 69h10"></path><path d="M196.25 69h10"></path><g class="terminal "><path d="M116.75 69h0"></path><path d="M196.25 69h0"></path><rect x="116.75" y="58" width="79.5" height="22"></rect><text x="156.5" y="73">'menos'</text></g></g><path d="M206.25 69h46.75"></path></g><path d="M253 69a10 10 0 0 0 10 -10v-18a10 10 0 0 1 10 -10"></path><path d="M40 31a10 10 0 0 1 10 10v56a10 10 0 0 0 10 10"></path><g><path d="M60 107h46.75"></path><g><path d="M106.75 107h10"></path><path d="M196.25 107h10"></path><g class="terminal "><path d="M116.75 107h0"></path><path d="M196.25 107h0"></path><rect x="116.75" y="96" width="79.5" height="22"></rect><text x="156.5" y="111">'vezes'</text></g></g><path d="M206.25 107h46.75"></path></g><path d="M253 107a10 10 0 0 0 10 -10v-56a10 10 0 0 1 10 -10"></path><path d="M40 31a10 10 0 0 1 10 10v94a10 10 0 0 0 10 10"></path><g><path d="M60 145h0"></path><g><path d="M60 145h10"></path><path d="M243 145h10"></path><g class="terminal "><path d="M70 145h0"></path><path d="M243 145h0"></path><rect x="70" y="134" width="173" height="22"></rect><text x="156.5" y="149">'multiplicado por'</text></g></g><path d="M253 145h0"></path></g><path d="M253 145a10 10 0 0 0 10 -10v-94a10 10 0 0 1 10 -10"></path><path d="M40 31a10 10 0 0 1 10 10v132a10 10 0 0 0 10 10"></path><g><path d="M60 183h17"></path><g><path d="M77 183h10"></path><path d="M226 183h10"></path><g class="terminal "><path d="M87 183h0"></path><path d="M226 183h0"></path><rect x="87" y="172" width="139" height="22"></rect><text x="156.5" y="187">'dividido por'</text></g></g><path d="M236 183h17"></path></g><path d="M253 183a10 10 0 0 0 10 -10v-132a10 10 0 0 1 10 -10"></path><path d="M40 31a10 10 0 0 1 10 10v170a10 10 0 0 0 10 10"></path><g><path d="M60 221h29.75"></path><g><path d="M89.75 221h10"></path><path d="M213.25 221h10"></path><g class="terminal "><path d="M99.75 221h0"></path><path d="M213.25 221h0"></path><rect x="99.75" y="210" width="113.5" height="22"></rect><text x="156.5" y="225">'junto com'</text></g></g><path d="M223.25 221h29.75"></path></g><path d="M253 221a10 10 0 0 0 10 -10v-170a10 10 0 0 1 10 -10"></path><path d="M40 31a10 10 0 0 1 10 10v208a10 10 0 0 0 10 10"></path><g><path d="M60 259h25.5"></path><g><path d="M85.5 259h10"></path><path d="M217.5 259h10"></path><g class="terminal "><path d="M95.5 259h0"></path><path d="M217.5 259h0"></path><rect x="95.5" y="248" width="122" height="22"></rect><text x="156.5" y="263">'seguido de'</text></g></g><path d="M227.5 259h25.5"></path></g><path d="M253 259a10 10 0 0 0 10 -10v-208a10 10 0 0 1 10 -10"></path><path d="M40 31a10 10 0 0 1 10 10v246a10 10 0 0 0 10 10"></path><g><path d="M60 297h8.5"></path><g><path d="M68.5 297h10"></path><path d="M234.5 297h10"></path><g class="terminal "><path d="M78.5 297h0"></path><path d="M234.5 297h0"></path><rect x="78.5" y="286" width="156" height="22"></rect><text x="156.5" y="301">'acompanhado de'</text></g></g><path d="M244.5 297h8.5"></path></g><path d="M253 297a10 10 0 0 0 10 -10v-246a10 10 0 0 1 10 -10"></path></g><path d="M 273 31 h 20 m 0 -10 v 20"></path></g><defs><style type="text/css"><![CDATA[
svg.railroad-diagram path { stroke-width: 2; stroke: darkgray; fill: rgba(0, 0, 0, 0);}/* All text except comments. */svg.railroad-diagram text { font: bold 12px Hack, "Source Code Pro", monospace; text-anchor: middle; fill: #404040;}/* Comment text */svg.railroad-diagram text.comment { font: italic 10px Hack, "Source Code Pro", monospace; fill: #404040;}/* The terminal boxes. */svg.railroad-diagram g.terminal rect { stroke-width: 2; stroke: #404040; fill: rgba(200, 200, 200, 1);}svg.railroad-diagram g.non-terminal rect { /* The non-terminal boxes. */ stroke-width: 2; stroke: #404040; fill: rgba(255, 255, 255, 1);}/* Multiple choice text, not working atm. */svg.railroad-diagram text.diagram-text { font-size: 12px Hack, "Source Code Pro", monospace; fill: red;}/* Multiple choice text, not working atm. */svg.railroad-diagram path.diagram-text { stroke-width: 1; stroke: red; fill: red; cursor: help;}
 ]]>
</style></defs></svg>