<?xml version="1.0" encoding="UTF-8" standalone="no"?>
<!DOCTYPE svg PUBLIC "-//W3C//DTD SVG 1.1//EN" "http://www.w3.org/Graphics/SVG/1.1/DTD/svg11.dtd">
<svg class="railroad-diagram" width="313" height="362" viewBox="0 0 313 362" id="operadores_de_comparacao" xmlns="http://www.w3.org/2000/svg" xmlns:xlink="http://www.w3.org/1999/xlink"><g transform="translate(.5 .5)"><g><path d="M20 20v20m0 -10h20"></path></g><g><path d="M40 30h0"></path><path d="M273 30h0"></path><path d="M40 30h20"></path><g><path d="M60 30h43"></path><g><path d="M103 30h10"></path><path d="M200 30h10"></path><g class="comment rrd-warning"><path d="M113 30h0"></path><path d="M200 30h0"></path><text x="156.5" y="35" class="comment">&lt;empty alt&gt;</text></g></g><path d="M210 30h43"></path></g><path d="M253 30h20"></path><path d="M40 30a10 10 0 0 1 10 10v15a10 10 0 0 0 10 10"></path><g><path d="M60 65h38.25"></path><g><path d="M98.25 65h10"></path><path d="M204.75 65h10"></path><g class="terminal "><path d="M108.25 65h0"></path><path d="M204.75 65h0"></path><rect x="108.25" y="54" width="96.5" height="22"></rect><text x="156.5" y="69">'igual a'</text></g></g><path d="M214.75 65h38.25"></path></g><path d="M253 65a10 10 0 0 0 10 -10v-15a10 10 0 0 1 10 -10"></path><path d="M40 30a10 10 0 0 1 10 10v53a10 10 0 0 0 10 10"></path><g><path d="M60 103h17"></path><g><path d="M77 103h10"></path><path d="M226 103h10"></path><g class="terminal "><path d="M87 103h0"></path><path d="M226 103h0"></path><rect x="87" y="92" width="139" height="22"></rect><text x="156.5" y="107">'diferente de'</text></g></g><path d="M236 103h17"></path></g><path d="M253 103a10 10 0 0 0 10 -10v-53a10 10 0 0 1 10 -10"></path><path d="M40 30a10 10 0 0 1 10 10v91a10 10 0 0 0 10 10"></path><g><path d="M60 141h29.75"></path><g><path d="M89.75 141h10"></path><path d="M213.25 141h10"></path><g class="terminal "><path d="M99.75 141h0"></path><path d="M213.25 141h0"></path><rect x="99.75" y="130" width="113.5" height="22"></rect><text x="156.5" y="145">'maior que'</text></g></g><path d="M223.25 141h29.75"></path></g><path d="M253 141a10 10 0 0 0 10 -10v-91a10 10 0 0 1 10 -10"></path><path d="M40 30a10 10 0 0 1 10 10v129a10 10 0 0 0 10 10"></path><g><path d="M60 179h17"></path><g><path d="M77 179h10"></path><path d="M226 179h10"></path><g class="terminal "><path d="M87 179h0"></path><path d="M226 179h0"></path><rect x="87" y="168" width="139" height="22"></rect><text x="156.5" y="183">'maior do que'</text></g></g><path d="M236 179h17"></path></g><path d="M253 179a10 10 0 0 0 10 -10v-129a10 10 0 0 1 10 -10"></path><path d="M40 30a10 10 0 0 1 10 10v167a10 10 0 0 0 10 10"></path><g><path d="M60 217h0"></path><g><path d="M60 217h10"></path><path d="M243 217h10"></path><g class="terminal "><path d="M70 217h0"></path><path d="M243 217h0"></path><rect x="70" y="206" width="173" height="22"></rect><text x="156.5" y="221">'maior ou igual a'</text></g></g><path d="M253 217h0"></path></g><path d="M253 217a10 10 0 0 0 10 -10v-167a10 10 0 0 1 10 -10"></path><path d="M40 30a10 10 0 0 1 10 10v205a10 10 0 0 0 10 10"></path><g><path d="M60 255h29.75"></path><g><path d="M89.75 255h10"></path><path d="M213.25 255h10"></path><g class="terminal "><path d="M99.75 255h0"></path><path d="M213.25 255h0"></path><rect x="99.75" y="244" width="113.5" height="22"></rect><text x="156.5" y="259">'menor que'</text></g></g><path d="M223.25 255h29.75"></path></g><path d="M253 255a10 10 0 0 0 10 -10v-205a10 10 0 0 1 10 -10"></path><path d="M40 30a10 10 0 0 1 10 10v243a10 10 0 0 0 10 10"></path><g><path d="M60 293h17"></path><g><path d="M77 293h10"></path><path d="M226 293h10"></path><g class="terminal "><path d="M87 293h0"></path><path d="M226 293h0"></path><rect x="87" y="282" width="139" height="22"></rect><text x="156.5" y="297">'menor do que'</text></g></g><path d="M236 293h17"></path></g><path d="M253 293a10 10 0 0 0 10 -10v-243a10 10 0 0 1 10 -10"></path><path d="M40 30a10 10 0 0 1 10 10v281a10 10 0 0 0 10 10"></path><g><path d="M60 331h0"></path><g><path d="M60 331h10"></path><path d="M243 331h10"></path><g class="terminal "><path d="M70 331h0"></path><path d="M243 331h0"></path><rect x="70" y="320" width="173" height="22"></rect><text x="156.5" y="335">'menor ou igual a'</text></g></g><path d="M253 331h0"></path></g><path d="M253 331a10 10 0 0 0 10 -10v-281a10 10 0 0 1 10 -10"></path></g><path d="M 273 30 h 20 m 0 -10 v 20"></path></g><defs><style type="text/css"><![CDATA[
svg.railroad-diagram path { stroke-width: 2; stroke: darkgray; fill: rgba(0, 0, 0, 0);}/* All text except comments. */svg.railroad-diagram text { font: bold 12px Hack, "Source Code Pro", monospace; text-anchor: middle; fill: #404040;}/* Comment text */svg.railroad-diagram text.comment { font: italic 10px Hack, "Source Code Pro", monospace; fill: #404040;}/* The terminal boxes. */svg.railroad-diagram g.terminal rect { stroke-width: 2; stroke: #404040; fill: rgba(200, 200, 200, 1);}svg.railroad-diagram g.non-terminal rect { /* The non-terminal boxes. */ stroke-width: 2; stroke: #404040; fill: rgba(255, 255, 255, 1);}/* Multiple choice text, not working atm. */svg.railroad-diagram text.diagram-text { font-size: 12px Hack, "Source Code Pro", monospace; fill: red;}/* Multiple choice text, not working atm. */svg.railroad-diagram path.diagram-text { stroke-width: 1; stroke: red; fill: red; cursor: help;}
 ]]>
</style></defs></svg>