<?xml version="1.0" encoding="UTF-8" standalone="no"?>
<!DOCTYPE svg PUBLIC "-//W3C//DTD SVG 1.1//EN" "http://www.w3.org/Graphics/SVG/1.1/DTD/svg11.dtd">
<svg class="railroad-diagram" width="270.5" height="746" viewBox="0 0 270.5 746" id="palavras_reservadas" xmlns="http://www.w3.org/2000/svg" xmlns:xlink="http://www.w3.org/1999/xlink"><g transform="translate(.5 .5)"><g><path d="M20 21v20m0 -10h20"></path></g><g><path d="M40 31h0"></path><path d="M230.5 31h0"></path><path d="M40 31h20"></path><g><path d="M60 31h38.25"></path><g><path d="M98.25 31h10"></path><path d="M162.25 31h10"></path><g class="terminal "><path d="M108.25 31h0"></path><path d="M162.25 31h0"></path><rect x="108.25" y="20" width="54" height="22"></rect><text x="135.25" y="35">'Se'</text></g></g><path d="M172.25 31h38.25"></path></g><path d="M210.5 31h20"></path><path d="M40 31a10 10 0 0 1 10 10v18a10 10 0 0 0 10 10"></path><g><path d="M60 69h25.5"></path><g><path d="M85.5 69h10"></path><path d="M175 69h10"></path><g class="terminal "><path d="M95.5 69h0"></path><path d="M175 69h0"></path><rect x="95.5" y="58" width="79.5" height="22"></rect><text x="135.25" y="73">'Itere'</text></g></g><path d="M185 69h25.5"></path></g><path d="M210.5 69a10 10 0 0 0 10 -10v-18a10 10 0 0 1 10 -10"></path><path d="M40 31a10 10 0 0 1 10 10v56a10 10 0 0 0 10 10"></path><g><path d="M60 107h17"></path><g><path d="M77 107h10"></path><path d="M183.5 107h10"></path><g class="terminal "><path d="M87 107h0"></path><path d="M183.5 107h0"></path><rect x="87" y="96" width="96.5" height="22"></rect><text x="135.25" y="111">'Reitere'</text></g></g><path d="M193.5 107h17"></path></g><path d="M210.5 107a10 10 0 0 0 10 -10v-56a10 10 0 0 1 10 -10"></path><path d="M40 31a10 10 0 0 1 10 10v94a10 10 0 0 0 10 10"></path><g><path d="M60 145h29.75"></path><g><path d="M89.75 145h10"></path><path d="M170.75 145h10"></path><g class="terminal "><path d="M99.75 145h0"></path><path d="M170.75 145h0"></path><rect x="99.75" y="134" width="71" height="22"></rect><text x="135.25" y="149">'Pare'</text></g></g><path d="M180.75 145h29.75"></path></g><path d="M210.5 145a10 10 0 0 0 10 -10v-94a10 10 0 0 1 10 -10"></path><path d="M40 31a10 10 0 0 1 10 10v132a10 10 0 0 0 10 10"></path><g><path d="M60 183h17"></path><g><path d="M77 183h10"></path><path d="M183.5 183h10"></path><g class="terminal "><path d="M87 183h0"></path><path d="M183.5 183h0"></path><rect x="87" y="172" width="96.5" height="22"></rect><text x="135.25" y="187">'Retorne'</text></g></g><path d="M193.5 183h17"></path></g><path d="M210.5 183a10 10 0 0 0 10 -10v-132a10 10 0 0 1 10 -10"></path><path d="M40 31a10 10 0 0 1 10 10v170a10 10 0 0 0 10 10"></path><g><path d="M60 221h12.75"></path><g><path d="M72.75 221h10"></path><path d="M187.75 221h10"></path><g class="terminal "><path d="M82.75 221h0"></path><path d="M187.75 221h0"></path><rect x="82.75" y="210" width="105" height="22"></rect><text x="135.25" y="225">'Preserve'</text></g></g><path d="M197.75 221h12.75"></path></g><path d="M210.5 221a10 10 0 0 0 10 -10v-170a10 10 0 0 1 10 -10"></path><path d="M40 31a10 10 0 0 1 10 10v208a10 10 0 0 0 10 10"></path><g><path d="M60 259h29.75"></path><g><path d="M89.75 259h10"></path><path d="M170.75 259h10"></path><g class="terminal "><path d="M99.75 259h0"></path><path d="M170.75 259h0"></path><rect x="99.75" y="248" width="71" height="22"></rect><text x="135.25" y="263">'Diga'</text></g></g><path d="M180.75 259h29.75"></path></g><path d="M210.5 259a10 10 0 0 0 10 -10v-208a10 10 0 0 1 10 -10"></path><path d="M40 31a10 10 0 0 1 10 10v246a10 10 0 0 0 10 10"></path><g><path d="M60 297h34"></path><g><path d="M94 297h10"></path><path d="M166.5 297h10"></path><g class="terminal "><path d="M104 297h0"></path><path d="M166.5 297h0"></path><rect x="104" y="286" width="62.5" height="22"></rect><text x="135.25" y="301">'sim'</text></g></g><path d="M176.5 297h34"></path></g><path d="M210.5 297a10 10 0 0 0 10 -10v-246a10 10 0 0 1 10 -10"></path><path d="M40 31a10 10 0 0 1 10 10v284a10 10 0 0 0 10 10"></path><g><path d="M60 335h34"></path><g><path d="M94 335h10"></path><path d="M166.5 335h10"></path><g class="terminal "><path d="M104 335h0"></path><path d="M166.5 335h0"></path><rect x="104" y="324" width="62.5" height="22"></rect><text x="135.25" y="339">'não'</text></g></g><path d="M176.5 335h34"></path></g><path d="M210.5 335a10 10 0 0 0 10 -10v-284a10 10 0 0 1 10 -10"></path><path d="M40 31a10 10 0 0 1 10 10v322a10 10 0 0 0 10 10"></path><g><path d="M60 373h12.75"></path><g><path d="M72.75 373h10"></path><path d="M187.75 373h10"></path><g class="terminal "><path d="M82.75 373h0"></path><path d="M187.75 373h0"></path><rect x="82.75" y="362" width="105" height="22"></rect><text x="135.25" y="377">'original'</text></g></g><path d="M197.75 373h12.75"></path></g><path d="M210.5 373a10 10 0 0 0 10 -10v-322a10 10 0 0 1 10 -10"></path><path d="M40 31a10 10 0 0 1 10 10v360a10 10 0 0 0 10 10"></path><g><path d="M60 411h0"></path><g><path d="M60 411h10"></path><path d="M200.5 411h10"></path><g class="terminal "><path d="M70 411h0"></path><path d="M200.5 411h0"></path><rect x="70" y="400" width="130.5" height="22"></rect><text x="135.25" y="415">'Decodifique'</text></g></g><path d="M210.5 411h0"></path></g><path d="M210.5 411a10 10 0 0 0 10 -10v-360a10 10 0 0 1 10 -10"></path><path d="M40 31a10 10 0 0 1 10 10v398a10 10 0 0 0 10 10"></path><g><path d="M60 449h12.75"></path><g><path d="M72.75 449h10"></path><path d="M187.75 449h10"></path><g class="terminal "><path d="M82.75 449h0"></path><path d="M187.75 449h0"></path><rect x="82.75" y="438" width="105" height="22"></rect><text x="135.25" y="453">'Processe'</text></g></g><path d="M197.75 449h12.75"></path></g><path d="M210.5 449a10 10 0 0 0 10 -10v-398a10 10 0 0 1 10 -10"></path><path d="M40 31a10 10 0 0 1 10 10v436a10 10 0 0 0 10 10"></path><g><path d="M60 487h4.25"></path><g><path d="M64.25 487h10"></path><path d="M196.25 487h10"></path><g class="terminal "><path d="M74.25 487h0"></path><path d="M196.25 487h0"></path><rect x="74.25" y="476" width="122" height="22"></rect><text x="135.25" y="491">'retornando'</text></g></g><path d="M206.25 487h4.25"></path></g><path d="M210.5 487a10 10 0 0 0 10 -10v-436a10 10 0 0 1 10 -10"></path><path d="M40 31a10 10 0 0 1 10 10v474a10 10 0 0 0 10 10"></path><g><path d="M60 525h29.75"></path><g><path d="M89.75 525h10"></path><path d="M170.75 525h10"></path><g class="terminal "><path d="M99.75 525h0"></path><path d="M170.75 525h0"></path><rect x="99.75" y="514" width="71" height="22"></rect><text x="135.25" y="529">'Push'</text></g></g><path d="M180.75 525h29.75"></path></g><path d="M210.5 525a10 10 0 0 0 10 -10v-474a10 10 0 0 1 10 -10"></path><path d="M40 31a10 10 0 0 1 10 10v512a10 10 0 0 0 10 10"></path><g><path d="M60 563h34"></path><g><path d="M94 563h10"></path><path d="M166.5 563h10"></path><g class="terminal "><path d="M104 563h0"></path><path d="M166.5 563h0"></path><rect x="104" y="552" width="62.5" height="22"></rect><text x="135.25" y="567">'Pop'</text></g></g><path d="M176.5 563h34"></path></g><path d="M210.5 563a10 10 0 0 0 10 -10v-512a10 10 0 0 1 10 -10"></path><path d="M40 31a10 10 0 0 1 10 10v550a10 10 0 0 0 10 10"></path><g><path d="M60 601h29.75"></path><g><path d="M89.75 601h10"></path><path d="M170.75 601h10"></path><g class="terminal "><path d="M99.75 601h0"></path><path d="M170.75 601h0"></path><rect x="99.75" y="590" width="71" height="22"></rect><text x="135.25" y="605">'nulo'</text></g></g><path d="M180.75 601h29.75"></path></g><path d="M210.5 601a10 10 0 0 0 10 -10v-550a10 10 0 0 1 10 -10"></path><path d="M40 31a10 10 0 0 1 10 10v588a10 10 0 0 0 10 10"></path><g><path d="M60 639h25.5"></path><g><path d="M85.5 639h10"></path><path d="M175 639h10"></path><g class="terminal "><path d="M95.5 639h0"></path><path d="M175 639h0"></path><rect x="95.5" y="628" width="79.5" height="22"></rect><text x="135.25" y="643">'vazio'</text></g></g><path d="M185 639h25.5"></path></g><path d="M210.5 639a10 10 0 0 0 10 -10v-588a10 10 0 0 1 10 -10"></path><path d="M40 31a10 10 0 0 1 10 10v626a10 10 0 0 0 10 10"></path><g><path d="M60 677h0"></path><g><path d="M60 677h10"></path><path d="M200.5 677h10"></path><g class="terminal "><path d="M70 677h0"></path><path d="M200.5 677h0"></path><rect x="70" y="666" width="130.5" height="22"></rect><text x="135.25" y="681">'inexistente'</text></g></g><path d="M210.5 677h0"></path></g><path d="M210.5 677a10 10 0 0 0 10 -10v-626a10 10 0 0 1 10 -10"></path><path d="M40 31a10 10 0 0 1 10 10v664a10 10 0 0 0 10 10"></path><g><path d="M60 715h4.25"></path><g><path d="M64.25 715h10"></path><path d="M196.25 715h10"></path><g class="non-terminal "><path d="M74.25 715h0"></path><path d="M196.25 715h0"></path><rect x="74.25" y="704" width="122" height="22" rx="10" ry="10"></rect><text x="135.25" y="719">denominacoes</text></g></g><path d="M206.25 715h4.25"></path></g><path d="M210.5 715a10 10 0 0 0 10 -10v-664a10 10 0 0 1 10 -10"></path></g><path d="M 230.5 31 h 20 m 0 -10 v 20"></path></g><defs><style type="text/css"><![CDATA[
svg.railroad-diagram path { stroke-width: 2; stroke: darkgray; fill: rgba(0, 0, 0, 0);}/* All text except comments. */svg.railroad-diagram text { font: bold 12px Hack, "Source Code Pro", monospace; text-anchor: middle; fill: #404040;}/* Comment text */svg.railroad-diagram text.comment { font: italic 10px Hack, "Source Code Pro", monospace; fill: #404040;}/* The terminal boxes. */svg.railroad-diagram g.terminal rect { stroke-width: 2; stroke: #404040; fill: rgba(200, 200, 200, 1);}svg.railroad-diagram g.non-terminal rect { /* The non-terminal boxes. */ stroke-width: 2; stroke: #404040; fill: rgba(255, 255, 255, 1);}/* Multiple choice text, not working atm. */svg.railroad-diagram text.diagram-text { font-size: 12px Hack, "Source Code Pro", monospace; fill: red;}/* Multiple choice text, not working atm. */svg.railroad-diagram path.diagram-text { stroke-width: 1; stroke: red; fill: red; cursor: help;}
 ]]>
</style></defs></svg>