<?xml version="1.0" encoding="UTF-8" standalone="no"?>
<!DOCTYPE svg PUBLIC "-//W3C//DTD SVG 1.1//EN" "http://www.w3.org/Graphics/SVG/1.1/DTD/svg11.dtd">
<svg class="railroad-diagram" width="420" height="214" viewBox="0 0 420 214" id="possessivo_antigo" xmlns="http://www.w3.org/2000/svg" xmlns:xlink="http://www.w3.org/1999/xlink"><g transform="translate(.5 .5)"><g><path d="M20 21v20m0 -10h20"></path></g><g><path d="M40 31h0"></path><path d="M380 31h0"></path><path d="M40 31h20"></path><g><path d="M60 31h0"></path><g><path d="M60 31h10"></path><path d="M350 31h10"></path><g class="terminal "><path d="M70 31h0"></path><path d="M132.5 31h0"></path><rect x="70" y="20" width="62.5" height="22"></rect><text x="101.25" y="35">'\'s'</text></g><path d="M132.5 31h10"></path><g><path d="M142.5 31h0"></path><path d="M350 31h0"></path><path d="M142.5 31h20"></path><g><path d="M162.5 31h46.75"></path><g><path d="M209.25 31h10"></path><path d="M273.25 31h10"></path><g class="non-terminal "><path d="M219.25 31h0"></path><path d="M273.25 31h0"></path><rect x="219.25" y="20" width="54" height="22" rx="10" ry="10"></rect><text x="246.25" y="35">nome</text></g></g><path d="M283.25 31h46.75"></path></g><path d="M330 31h20"></path><path d="M142.5 31a10 10 0 0 1 10 10v18a10 10 0 0 0 10 10"></path><g><path d="M162.5 69h38.25"></path><g><path d="M200.75 69h10"></path><path d="M281.75 69h10"></path><g class="non-terminal "><path d="M210.75 69h0"></path><path d="M281.75 69h0"></path><rect x="210.75" y="58" width="71" height="22" rx="10" ry="10"></rect><text x="246.25" y="73">funcao</text></g></g><path d="M291.75 69h38.25"></path></g><path d="M330 69a10 10 0 0 0 10 -10v-18a10 10 0 0 1 10 -10"></path><path d="M142.5 31a10 10 0 0 1 10 10v56a10 10 0 0 0 10 10"></path><g><path d="M162.5 107h21.25"></path><g><path d="M183.75 107h10"></path><path d="M298.75 107h10"></path><g class="terminal "><path d="M193.75 107h0"></path><path d="M298.75 107h0"></path><rect x="193.75" y="96" width="105" height="22"></rect><text x="246.25" y="111">'conteúdo'</text></g></g><path d="M308.75 107h21.25"></path></g><path d="M330 107a10 10 0 0 0 10 -10v-56a10 10 0 0 1 10 -10"></path><path d="M142.5 31a10 10 0 0 1 10 10v94a10 10 0 0 0 10 10"></path><g><path d="M162.5 145h17"></path><g><path d="M179.5 145h10"></path><path d="M303 145h10"></path><g class="terminal "><path d="M189.5 145h0"></path><path d="M303 145h0"></path><rect x="189.5" y="134" width="113.5" height="22"></rect><text x="246.25" y="149">'magnitude'</text></g></g><path d="M313 145h17"></path></g><path d="M330 145a10 10 0 0 0 10 -10v-94a10 10 0 0 1 10 -10"></path><path d="M142.5 31a10 10 0 0 1 10 10v132a10 10 0 0 0 10 10"></path><g><path d="M162.5 183h0"></path><g><path d="M162.5 183h10"></path><path d="M320 183h10"></path><g class="terminal "><path d="M172.5 183h0"></path><path d="M320 183h0"></path><rect x="172.5" y="172" width="147.5" height="22"></rect><text x="246.25" y="187">'endereçamento'</text></g></g><path d="M330 183h0"></path></g><path d="M330 183a10 10 0 0 0 10 -10v-132a10 10 0 0 1 10 -10"></path></g></g><path d="M360 31h0"></path></g><path d="M360 31h20"></path></g><path d="M 380 31 h 20 m 0 -10 v 20"></path></g><defs><style type="text/css"><![CDATA[
svg.railroad-diagram path { stroke-width: 2; stroke: darkgray; fill: rgba(0, 0, 0, 0);}/* All text except comments. */svg.railroad-diagram text { font: bold 12px Hack, "Source Code Pro", monospace; text-anchor: middle; fill: #404040;}/* Comment text */svg.railroad-diagram text.comment { font: italic 10px Hack, "Source Code Pro", monospace; fill: #404040;}/* The terminal boxes. */svg.railroad-diagram g.terminal rect { stroke-width: 2; stroke: #404040; fill: rgba(200, 200, 200, 1);}svg.railroad-diagram g.non-terminal rect { /* The non-terminal boxes. */ stroke-width: 2; stroke: #404040; fill: rgba(255, 255, 255, 1);}/* Multiple choice text, not working atm. */svg.railroad-diagram text.diagram-text { font-size: 12px Hack, "Source Code Pro", monospace; fill: red;}/* Multiple choice text, not working atm. */svg.railroad-diagram path.diagram-text { stroke-width: 1; stroke: red; fill: red; cursor: help;}
 ]]>
</style></defs></svg>