<?xml version="1.0" encoding="UTF-8" standalone="no"?>
<!DOCTYPE svg PUBLIC "-//W3C//DTD SVG 1.1//EN" "http://www.w3.org/Graphics/SVG/1.1/DTD/svg11.dtd">
<svg class="railroad-diagram" width="304.5" height="822" viewBox="0 0 304.5 822" id="preposicoes" xmlns="http://www.w3.org/2000/svg" xmlns:xlink="http://www.w3.org/1999/xlink"><g transform="translate(.5 .5)"><g><path d="M20 21v20m0 -10h20"></path></g><g><path d="M40 31h0"></path><path d="M264.5 31h0"></path><path d="M40 31h20"></path><g><path d="M60 31h38.25"></path><g><path d="M98.25 31h10"></path><path d="M196.25 31h10"></path><g class="terminal "><path d="M108.25 31h0"></path><path d="M196.25 31h0"></path><rect x="108.25" y="20" width="88" height="22"></rect><text x="152.25" y="35">'usando'</text></g></g><path d="M206.25 31h38.25"></path></g><path d="M244.5 31h20"></path><path d="M40 31a10 10 0 0 1 10 10v18a10 10 0 0 0 10 10"></path><g><path d="M60 69h51"></path><g><path d="M111 69h10"></path><path d="M183.5 69h10"></path><g class="terminal "><path d="M121 69h0"></path><path d="M183.5 69h0"></path><rect x="121" y="58" width="62.5" height="22"></rect><text x="152.25" y="73">'com'</text></g></g><path d="M193.5 69h51"></path></g><path d="M244.5 69a10 10 0 0 0 10 -10v-18a10 10 0 0 1 10 -10"></path><path d="M40 31a10 10 0 0 1 10 10v56a10 10 0 0 0 10 10"></path><g><path d="M60 107h51"></path><g><path d="M111 107h10"></path><path d="M183.5 107h10"></path><g class="terminal "><path d="M121 107h0"></path><path d="M183.5 107h0"></path><rect x="121" y="96" width="62.5" height="22"></rect><text x="152.25" y="111">'por'</text></g></g><path d="M193.5 107h51"></path></g><path d="M244.5 107a10 10 0 0 0 10 -10v-56a10 10 0 0 1 10 -10"></path><path d="M40 31a10 10 0 0 1 10 10v94a10 10 0 0 0 10 10"></path><g><path d="M60 145h29.75"></path><g><path d="M89.75 145h10"></path><path d="M204.75 145h10"></path><g class="terminal "><path d="M99.75 145h0"></path><path d="M204.75 145h0"></path><rect x="99.75" y="134" width="105" height="22"></rect><text x="152.25" y="149">'contendo'</text></g></g><path d="M214.75 145h29.75"></path></g><path d="M244.5 145a10 10 0 0 0 10 -10v-94a10 10 0 0 1 10 -10"></path><path d="M40 31a10 10 0 0 1 10 10v132a10 10 0 0 0 10 10"></path><g><path d="M60 183h42.5"></path><g><path d="M102.5 183h10"></path><path d="M192 183h10"></path><g class="terminal "><path d="M112.5 183h0"></path><path d="M192 183h0"></path><rect x="112.5" y="172" width="79.5" height="22"></rect><text x="152.25" y="187">'desde'</text></g></g><path d="M202 183h42.5"></path></g><path d="M244.5 183a10 10 0 0 0 10 -10v-132a10 10 0 0 1 10 -10"></path><path d="M40 31a10 10 0 0 1 10 10v170a10 10 0 0 0 10 10"></path><g><path d="M60 221h46.75"></path><g><path d="M106.75 221h10"></path><path d="M187.75 221h10"></path><g class="terminal "><path d="M116.75 221h0"></path><path d="M187.75 221h0"></path><rect x="116.75" y="210" width="71" height="22"></rect><text x="152.25" y="225">'pelo'</text></g></g><path d="M197.75 221h46.75"></path></g><path d="M244.5 221a10 10 0 0 0 10 -10v-170a10 10 0 0 1 10 -10"></path><path d="M40 31a10 10 0 0 1 10 10v208a10 10 0 0 0 10 10"></path><g><path d="M60 259h46.75"></path><g><path d="M106.75 259h10"></path><path d="M187.75 259h10"></path><g class="terminal "><path d="M116.75 259h0"></path><path d="M187.75 259h0"></path><rect x="116.75" y="248" width="71" height="22"></rect><text x="152.25" y="263">'pela'</text></g></g><path d="M197.75 259h46.75"></path></g><path d="M244.5 259a10 10 0 0 0 10 -10v-208a10 10 0 0 1 10 -10"></path><path d="M40 31a10 10 0 0 1 10 10v246a10 10 0 0 0 10 10"></path><g><path d="M60 297h42.5"></path><g><path d="M102.5 297h10"></path><path d="M192 297h10"></path><g class="terminal "><path d="M112.5 297h0"></path><path d="M192 297h0"></path><rect x="112.5" y="286" width="79.5" height="22"></rect><text x="152.25" y="301">'entre'</text></g></g><path d="M202 297h42.5"></path></g><path d="M244.5 297a10 10 0 0 0 10 -10v-246a10 10 0 0 1 10 -10"></path><path d="M40 31a10 10 0 0 1 10 10v284a10 10 0 0 0 10 10"></path><g><path d="M60 335h42.5"></path><g><path d="M102.5 335h10"></path><path d="M192 335h10"></path><g class="terminal "><path d="M112.5 335h0"></path><path d="M192 335h0"></path><rect x="112.5" y="324" width="79.5" height="22"></rect><text x="152.25" y="339">'sobre'</text></g></g><path d="M202 335h42.5"></path></g><path d="M244.5 335a10 10 0 0 0 10 -10v-284a10 10 0 0 1 10 -10"></path><path d="M40 31a10 10 0 0 1 10 10v322a10 10 0 0 0 10 10"></path><g><path d="M60 373h51"></path><g><path d="M111 373h10"></path><path d="M183.5 373h10"></path><g class="terminal "><path d="M121 373h0"></path><path d="M183.5 373h0"></path><rect x="121" y="362" width="62.5" height="22"></rect><text x="152.25" y="377">'sob'</text></g></g><path d="M193.5 373h51"></path></g><path d="M244.5 373a10 10 0 0 0 10 -10v-322a10 10 0 0 1 10 -10"></path><path d="M40 31a10 10 0 0 1 10 10v360a10 10 0 0 0 10 10"></path><g><path d="M60 411h46.75"></path><g><path d="M106.75 411h10"></path><path d="M187.75 411h10"></path><g class="terminal "><path d="M116.75 411h0"></path><path d="M187.75 411h0"></path><rect x="116.75" y="400" width="71" height="22"></rect><text x="152.25" y="415">'cima'</text></g></g><path d="M197.75 411h46.75"></path></g><path d="M244.5 411a10 10 0 0 0 10 -10v-360a10 10 0 0 1 10 -10"></path><path d="M40 31a10 10 0 0 1 10 10v398a10 10 0 0 0 10 10"></path><g><path d="M60 449h34"></path><g><path d="M94 449h10"></path><path d="M200.5 449h10"></path><g class="terminal "><path d="M104 449h0"></path><path d="M200.5 449h0"></path><rect x="104" y="438" width="96.5" height="22"></rect><text x="152.25" y="453">'embaixo'</text></g></g><path d="M210.5 449h34"></path></g><path d="M244.5 449a10 10 0 0 0 10 -10v-398a10 10 0 0 1 10 -10"></path><path d="M40 31a10 10 0 0 1 10 10v436a10 10 0 0 0 10 10"></path><g><path d="M60 487h38.25"></path><g><path d="M98.25 487h10"></path><path d="M196.25 487h10"></path><g class="terminal "><path d="M108.25 487h0"></path><path d="M196.25 487h0"></path><rect x="108.25" y="476" width="88" height="22"></rect><text x="152.25" y="491">'abaixo'</text></g></g><path d="M206.25 487h38.25"></path></g><path d="M244.5 487a10 10 0 0 0 10 -10v-436a10 10 0 0 1 10 -10"></path><path d="M40 31a10 10 0 0 1 10 10v474a10 10 0 0 0 10 10"></path><g><path d="M60 525h42.5"></path><g><path d="M102.5 525h10"></path><path d="M192 525h10"></path><g class="terminal "><path d="M112.5 525h0"></path><path d="M192 525h0"></path><rect x="112.5" y="514" width="79.5" height="22"></rect><text x="152.25" y="529">'antes'</text></g></g><path d="M202 525h42.5"></path></g><path d="M244.5 525a10 10 0 0 0 10 -10v-474a10 10 0 0 1 10 -10"></path><path d="M40 31a10 10 0 0 1 10 10v512a10 10 0 0 0 10 10"></path><g><path d="M60 563h38.25"></path><g><path d="M98.25 563h10"></path><path d="M196.25 563h10"></path><g class="terminal "><path d="M108.25 563h0"></path><path d="M196.25 563h0"></path><rect x="108.25" y="552" width="88" height="22"></rect><text x="152.25" y="567">'depois'</text></g></g><path d="M206.25 563h38.25"></path></g><path d="M244.5 563a10 10 0 0 0 10 -10v-512a10 10 0 0 1 10 -10"></path><path d="M40 31a10 10 0 0 1 10 10v550a10 10 0 0 0 10 10"></path><g><path d="M60 601h46.75"></path><g><path d="M106.75 601h10"></path><path d="M187.75 601h10"></path><g class="terminal "><path d="M116.75 601h0"></path><path d="M187.75 601h0"></path><rect x="116.75" y="590" width="71" height="22"></rect><text x="152.25" y="605">'após'</text></g></g><path d="M197.75 601h46.75"></path></g><path d="M244.5 601a10 10 0 0 0 10 -10v-550a10 10 0 0 1 10 -10"></path><path d="M40 31a10 10 0 0 1 10 10v588a10 10 0 0 0 10 10"></path><g><path d="M60 639h42.5"></path><g><path d="M102.5 639h10"></path><path d="M192 639h10"></path><g class="terminal "><path d="M112.5 639h0"></path><path d="M192 639h0"></path><rect x="112.5" y="628" width="79.5" height="22"></rect><text x="152.25" y="643">'cerca'</text></g></g><path d="M202 639h42.5"></path></g><path d="M244.5 639a10 10 0 0 0 10 -10v-588a10 10 0 0 1 10 -10"></path><path d="M40 31a10 10 0 0 1 10 10v626a10 10 0 0 0 10 10"></path><g><path d="M60 677h34"></path><g><path d="M94 677h10"></path><path d="M200.5 677h10"></path><g class="terminal "><path d="M104 677h0"></path><path d="M200.5 677h0"></path><rect x="104" y="666" width="96.5" height="22"></rect><text x="152.25" y="681">'próximo'</text></g></g><path d="M210.5 677h34"></path></g><path d="M244.5 677a10 10 0 0 0 10 -10v-626a10 10 0 0 1 10 -10"></path><path d="M40 31a10 10 0 0 1 10 10v664a10 10 0 0 0 10 10"></path><g><path d="M60 715h51"></path><g><path d="M111 715h10"></path><path d="M183.5 715h10"></path><g class="terminal "><path d="M121 715h0"></path><path d="M183.5 715h0"></path><rect x="121" y="704" width="62.5" height="22"></rect><text x="152.25" y="719">'até'</text></g></g><path d="M193.5 715h51"></path></g><path d="M244.5 715a10 10 0 0 0 10 -10v-664a10 10 0 0 1 10 -10"></path><path d="M40 31a10 10 0 0 1 10 10v702a10 10 0 0 0 10 10"></path><g><path d="M60 753h0"></path><g><path d="M60 753h10"></path><path d="M234.5 753h10"></path><g class="terminal "><path d="M70 753h0"></path><path d="M234.5 753h0"></path><rect x="70" y="742" width="164.5" height="22"></rect><text x="152.25" y="757">'aproximadamente'</text></g></g><path d="M244.5 753h0"></path></g><path d="M244.5 753a10 10 0 0 0 10 -10v-702a10 10 0 0 1 10 -10"></path><path d="M40 31a10 10 0 0 1 10 10v740a10 10 0 0 0 10 10"></path><g><path d="M60 791h46.75"></path><g><path d="M106.75 791h10"></path><path d="M187.75 791h10"></path><g class="terminal "><path d="M116.75 791h0"></path><path d="M187.75 791h0"></path><rect x="116.75" y="780" width="71" height="22"></rect><text x="152.25" y="795">'como'</text></g></g><path d="M197.75 791h46.75"></path></g><path d="M244.5 791a10 10 0 0 0 10 -10v-740a10 10 0 0 1 10 -10"></path></g><path d="M 264.5 31 h 20 m 0 -10 v 20"></path></g><defs><style type="text/css"><![CDATA[
svg.railroad-diagram path { stroke-width: 2; stroke: darkgray; fill: rgba(0, 0, 0, 0);}/* All text except comments. */svg.railroad-diagram text { font: bold 12px Hack, "Source Code Pro", monospace; text-anchor: middle; fill: #404040;}/* Comment text */svg.railroad-diagram text.comment { font: italic 10px Hack, "Source Code Pro", monospace; fill: #404040;}/* The terminal boxes. */svg.railroad-diagram g.terminal rect { stroke-width: 2; stroke: #404040; fill: rgba(200, 200, 200, 1);}svg.railroad-diagram g.non-terminal rect { /* The non-terminal boxes. */ stroke-width: 2; stroke: #404040; fill: rgba(255, 255, 255, 1);}/* Multiple choice text, not working atm. */svg.railroad-diagram text.diagram-text { font-size: 12px Hack, "Source Code Pro", monospace; fill: red;}/* Multiple choice text, not working atm. */svg.railroad-diagram path.diagram-text { stroke-width: 1; stroke: red; fill: red; cursor: help;}
 ]]>
</style></defs></svg>