<?xml version="1.0" encoding="UTF-8" standalone="no"?>
<!DOCTYPE svg PUBLIC "-//W3C//DTD SVG 1.1//EN" "http://www.w3.org/Graphics/SVG/1.1/DTD/svg11.dtd">
<svg class="railroad-diagram" width="730.5" height="94" viewBox="0 0 730.5 94" id="qualificador" xmlns="http://www.w3.org/2000/svg" xmlns:xlink="http://www.w3.org/1999/xlink"><g transform="translate(.5 .5)"><g><path d="M20 37v20m0 -10h20"></path></g><g><path d="M40 47h0"></path><path d="M690.5 47h0"></path><path d="M40 47h20"></path><g><path d="M60 47h0"></path><g><path d="M60 47h10"></path><path d="M660.5 47h10"></path><g class="terminal "><path d="M70 47h0"></path><path d="M217.5 47h0"></path><rect x="70" y="36" width="147.5" height="22"></rect><text x="143.75" y="51">ABRE_PARENTESES</text></g><path d="M217.5 47h10"></path><g><path d="M227.5 47h0"></path><path d="M494.5 47h0"></path><path d="M227.5 47a10 10 0 0 0 10 -10v-7a10 10 0 0 1 10 -10"></path><g><path d="M247.5 20h227"></path></g><path d="M474.5 20a10 10 0 0 1 10 10v7a10 10 0 0 0 10 10"></path><path d="M227.5 47h20"></path><g><path d="M247.5 47h0"></path><path d="M474.5 47h0"></path><path d="M247.5 47h10"></path><g class="terminal "><path d="M257.5 47h0"></path><path d="M464.5 47h0"></path><rect x="257.5" y="36" width="207" height="22"></rect><text x="361" y="51">CARACTERES_IMPRIMIVEIS</text></g><path d="M464.5 47h10"></path><path d="M257.5 47a10 10 0 0 0 -10 10v7a10 10 0 0 0 10 10"></path><g><path d="M257.5 74h207"></path></g><path d="M464.5 74a10 10 0 0 0 10 -10v-7a10 10 0 0 0 -10 -10"></path></g><path d="M474.5 47h20"></path></g><path d="M494.5 47h10"></path><g class="terminal "><path d="M504.5 47h0"></path><path d="M660.5 47h0"></path><rect x="504.5" y="36" width="156" height="22"></rect><text x="582.5" y="51">FECHA_PARENTESES</text></g></g><path d="M670.5 47h0"></path></g><path d="M670.5 47h20"></path></g><path d="M 690.5 47 h 20 m 0 -10 v 20"></path></g><defs><style type="text/css"><![CDATA[
svg.railroad-diagram path { stroke-width: 2; stroke: darkgray; fill: rgba(0, 0, 0, 0);}/* All text except comments. */svg.railroad-diagram text { font: bold 12px Hack, "Source Code Pro", monospace; text-anchor: middle; fill: #404040;}/* Comment text */svg.railroad-diagram text.comment { font: italic 10px Hack, "Source Code Pro", monospace; fill: #404040;}/* The terminal boxes. */svg.railroad-diagram g.terminal rect { stroke-width: 2; stroke: #404040; fill: rgba(200, 200, 200, 1);}svg.railroad-diagram g.non-terminal rect { /* The non-terminal boxes. */ stroke-width: 2; stroke: #404040; fill: rgba(255, 255, 255, 1);}/* Multiple choice text, not working atm. */svg.railroad-diagram text.diagram-text { font-size: 12px Hack, "Source Code Pro", monospace; fill: red;}/* Multiple choice text, not working atm. */svg.railroad-diagram path.diagram-text { stroke-width: 1; stroke: red; fill: red; cursor: help;}
 ]]>
</style></defs></svg>