<?xml version="1.0" encoding="UTF-8" standalone="no"?>
<!DOCTYPE svg PUBLIC "-//W3C//DTD SVG 1.1//EN" "http://www.w3.org/Graphics/SVG/1.1/DTD/svg11.dtd">
<svg class="railroad-diagram" width="291" height="78" viewBox="0 0 291 78" id="QUEBRA_DE_LINHA" xmlns="http://www.w3.org/2000/svg" xmlns:xlink="http://www.w3.org/1999/xlink"><g transform="translate(.5 .5)"><g><path d="M20 21v20m10 -20v20m-10 -10h20"></path></g><g><path d="M40 31h0"></path><path d="M251 31h0"></path><path d="M40 31h20"></path><g><path d="M60 31h0"></path><g><path d="M60 31h10"></path><path d="M221 31h10"></path><g><path d="M70 31h0"></path><path d="M221 31h0"></path><path d="M70 31h10"></path><g><path d="M80 31h0"></path><path d="M211 31h0"></path><path d="M80 31h20"></path><g><path d="M100 31h0"></path><g><path d="M100 31h10"></path><path d="M181 31h10"></path><g class="terminal "><path d="M110 31h0"></path><path d="M181 31h0"></path><rect x="110" y="20" width="71" height="22"></rect><text x="145.5" y="35">'\r\n'</text></g></g><path d="M191 31h0"></path></g><path d="M191 31h20"></path></g><path d="M211 31h10"></path><path d="M80 31a10 10 0 0 0 -10 10v7a10 10 0 0 0 10 10"></path><g><path d="M80 58h131"></path></g><path d="M211 58a10 10 0 0 0 10 -10v-7a10 10 0 0 0 -10 -10"></path></g></g><path d="M231 31h0"></path></g><path d="M231 31h20"></path></g><path d="M 251 31 h 20 m -10 -10 v 20 m 10 -20 v 20"></path></g><defs><style type="text/css"><![CDATA[
svg.railroad-diagram path { stroke-width: 2; stroke: darkgray; fill: rgba(0, 0, 0, 0);}/* All text except comments. */svg.railroad-diagram text { font: bold 12px Hack, "Source Code Pro", monospace; text-anchor: middle; fill: #404040;}/* Comment text */svg.railroad-diagram text.comment { font: italic 10px Hack, "Source Code Pro", monospace; fill: #404040;}/* The terminal boxes. */svg.railroad-diagram g.terminal rect { stroke-width: 2; stroke: #404040; fill: rgba(200, 200, 200, 1);}svg.railroad-diagram g.non-terminal rect { /* The non-terminal boxes. */ stroke-width: 2; stroke: #404040; fill: rgba(255, 255, 255, 1);}/* Multiple choice text, not working atm. */svg.railroad-diagram text.diagram-text { font-size: 12px Hack, "Source Code Pro", monospace; fill: red;}/* Multiple choice text, not working atm. */svg.railroad-diagram path.diagram-text { stroke-width: 1; stroke: red; fill: red; cursor: help;}
 ]]>
</style></defs></svg>