<?xml version="1.0" encoding="UTF-8" standalone="no"?>
<!DOCTYPE svg PUBLIC "-//W3C//DTD SVG 1.1//EN" "http://www.w3.org/Graphics/SVG/1.1/DTD/svg11.dtd">
<svg class="railroad-diagram" width="944" height="132" viewBox="0 0 944 132" id="retroinvocacao" xmlns="http://www.w3.org/2000/svg" xmlns:xlink="http://www.w3.org/1999/xlink"><g transform="translate(.5 .5)"><g><path d="M20 37v20m0 -10h20"></path></g><g><path d="M40 47h0"></path><path d="M904 47h0"></path><path d="M40 47h20"></path><g><path d="M60 47h0"></path><g><path d="M60 47h10"></path><path d="M874 47h10"></path><g><path d="M70 47h0"></path><path d="M759 47h0"></path><path d="M70 47h20"></path><g><path d="M90 47h0"></path><g><path d="M90 47h10"></path><path d="M729 47h10"></path><g><path d="M100 47h0"></path><path d="M228 47h0"></path><path d="M100 47a10 10 0 0 0 10 -10v-7a10 10 0 0 1 10 -10"></path><g><path d="M120 20h88"></path></g><path d="M208 20a10 10 0 0 1 10 10v7a10 10 0 0 0 10 10"></path><path d="M100 47h20"></path><g class="terminal "><path d="M120 47h0"></path><path d="M208 47h0"></path><rect x="120" y="36" width="88" height="22"></rect><text x="164" y="51">'Rotina'</text></g><path d="M208 47h20"></path></g><path d="M228 47h10"></path><g class="terminal "><path d="M238 47h0"></path><path d="M504.5 47h0"></path><rect x="238" y="36" width="266.5" height="22"></rect><text x="371.25" y="51">'para que se compativelmente'</text></g><path d="M504.5 47h10"></path><path d="M514.5 47h10"></path><g class="non-terminal "><path d="M524.5 47h0"></path><path d="M663.5 47h0"></path><rect x="524.5" y="36" width="139" height="22" rx="10" ry="10"></rect><text x="594" y="51">nome_da_rotina</text></g><path d="M663.5 47h10"></path><path d="M673.5 47h10"></path><g class="terminal "><path d="M683.5 47h0"></path><path d="M729 47h0"></path><rect x="683.5" y="36" width="45.5" height="22"></rect><text x="706.25" y="51">';'</text></g></g><path d="M739 47h0"></path></g><path d="M739 47h20"></path><path d="M70 47a10 10 0 0 1 10 10v34a10 10 0 0 0 10 10"></path><g><path d="M90 101h0"></path><g><path d="M90 101h10"></path><path d="M729 101h10"></path><g><path d="M100 101h0"></path><path d="M228 101h0"></path><path d="M100 101a10 10 0 0 0 10 -10v-7a10 10 0 0 1 10 -10"></path><g><path d="M120 74h88"></path></g><path d="M208 74a10 10 0 0 1 10 10v7a10 10 0 0 0 10 10"></path><path d="M100 101h20"></path><g class="terminal "><path d="M120 101h0"></path><path d="M208 101h0"></path><rect x="120" y="90" width="88" height="22"></rect><text x="164" y="105">'Rotina'</text></g><path d="M208 101h20"></path></g><path d="M228 101h10"></path><g class="terminal "><path d="M238 101h0"></path><path d="M504.5 101h0"></path><rect x="238" y="90" width="266.5" height="22"></rect><text x="371.25" y="105">'para que se compativelmente'</text></g><path d="M504.5 101h10"></path><path d="M514.5 101h10"></path><g class="non-terminal "><path d="M524.5 101h0"></path><path d="M663.5 101h0"></path><rect x="524.5" y="90" width="139" height="22" rx="10" ry="10"></rect><text x="594" y="105">nome_da_rotina</text></g><path d="M663.5 101h10"></path><path d="M673.5 101h10"></path><g class="terminal "><path d="M683.5 101h0"></path><path d="M729 101h0"></path><rect x="683.5" y="90" width="45.5" height="22"></rect><text x="706.25" y="105">':'</text></g></g><path d="M739 101h0"></path></g><path d="M739 101a10 10 0 0 0 10 -10v-34a10 10 0 0 1 10 -10"></path></g><path d="M759 47h10"></path><g class="non-terminal "><path d="M769 47h0"></path><path d="M874 47h0"></path><rect x="769" y="36" width="105" height="22" rx="10" ry="10"></rect><text x="821.5" y="51">instrucoes</text></g></g><path d="M884 47h0"></path></g><path d="M884 47h20"></path></g><path d="M 904 47 h 20 m 0 -10 v 20"></path></g><defs><style type="text/css"><![CDATA[
svg.railroad-diagram path { stroke-width: 2; stroke: darkgray; fill: rgba(0, 0, 0, 0);}/* All text except comments. */svg.railroad-diagram text { font: bold 12px Hack, "Source Code Pro", monospace; text-anchor: middle; fill: #404040;}/* Comment text */svg.railroad-diagram text.comment { font: italic 10px Hack, "Source Code Pro", monospace; fill: #404040;}/* The terminal boxes. */svg.railroad-diagram g.terminal rect { stroke-width: 2; stroke: #404040; fill: rgba(200, 200, 200, 1);}svg.railroad-diagram g.non-terminal rect { /* The non-terminal boxes. */ stroke-width: 2; stroke: #404040; fill: rgba(255, 255, 255, 1);}/* Multiple choice text, not working atm. */svg.railroad-diagram text.diagram-text { font-size: 12px Hack, "Source Code Pro", monospace; fill: red;}/* Multiple choice text, not working atm. */svg.railroad-diagram path.diagram-text { stroke-width: 1; stroke: red; fill: red; cursor: help;}
 ]]>
</style></defs></svg>