<?xml version="1.0" encoding="UTF-8" standalone="no"?>
<!DOCTYPE svg PUBLIC "-//W3C//DTD SVG 1.1//EN" "http://www.w3.org/Graphics/SVG/1.1/DTD/svg11.dtd">
<svg class="railroad-diagram" width="279" height="176" viewBox="0 0 279 176" id="rotina" xmlns="http://www.w3.org/2000/svg" xmlns:xlink="http://www.w3.org/1999/xlink"><g transform="translate(.5 .5)"><g><path d="M20 21v20m0 -10h20"></path></g><g><path d="M40 31h0"></path><path d="M239 31h0"></path><path d="M40 31h20"></path><g><path d="M60 31h8.5"></path><g><path d="M68.5 31h10"></path><path d="M200.5 31h10"></path><g class="non-terminal "><path d="M78.5 31h0"></path><path d="M200.5 31h0"></path><rect x="78.5" y="20" width="122" height="22" rx="10" ry="10"></rect><text x="139.5" y="35">procedimento</text></g></g><path d="M210.5 31h8.5"></path></g><path d="M219 31h20"></path><path d="M40 31a10 10 0 0 1 10 10v18a10 10 0 0 0 10 10"></path><g><path d="M60 69h29.75"></path><g><path d="M89.75 69h10"></path><path d="M179.25 69h10"></path><g class="non-terminal "><path d="M99.75 69h0"></path><path d="M179.25 69h0"></path><rect x="99.75" y="58" width="79.5" height="22" rx="10" ry="10"></rect><text x="139.5" y="73">decisor</text></g></g><path d="M189.25 69h29.75"></path></g><path d="M219 69a10 10 0 0 0 10 -10v-18a10 10 0 0 1 10 -10"></path><path d="M40 31a10 10 0 0 1 10 10v56a10 10 0 0 0 10 10"></path><g><path d="M60 107h34"></path><g><path d="M94 107h10"></path><path d="M175 107h10"></path><g class="non-terminal "><path d="M104 107h0"></path><path d="M175 107h0"></path><rect x="104" y="96" width="71" height="22" rx="10" ry="10"></rect><text x="139.5" y="111">funcao</text></g></g><path d="M185 107h34"></path></g><path d="M219 107a10 10 0 0 0 10 -10v-56a10 10 0 0 1 10 -10"></path><path d="M40 31a10 10 0 0 1 10 10v94a10 10 0 0 0 10 10"></path><g><path d="M60 145h0"></path><g><path d="M60 145h10"></path><path d="M209 145h10"></path><g class="non-terminal "><path d="M70 145h0"></path><path d="M209 145h0"></path><rect x="70" y="134" width="139" height="22" rx="10" ry="10"></rect><text x="139.5" y="149">retroinvocacao</text></g></g><path d="M219 145h0"></path></g><path d="M219 145a10 10 0 0 0 10 -10v-94a10 10 0 0 1 10 -10"></path></g><path d="M 239 31 h 20 m 0 -10 v 20"></path></g><defs><style type="text/css"><![CDATA[
svg.railroad-diagram path { stroke-width: 2; stroke: darkgray; fill: rgba(0, 0, 0, 0);}/* All text except comments. */svg.railroad-diagram text { font: bold 12px Hack, "Source Code Pro", monospace; text-anchor: middle; fill: #404040;}/* Comment text */svg.railroad-diagram text.comment { font: italic 10px Hack, "Source Code Pro", monospace; fill: #404040;}/* The terminal boxes. */svg.railroad-diagram g.terminal rect { stroke-width: 2; stroke: #404040; fill: rgba(200, 200, 200, 1);}svg.railroad-diagram g.non-terminal rect { /* The non-terminal boxes. */ stroke-width: 2; stroke: #404040; fill: rgba(255, 255, 255, 1);}/* Multiple choice text, not working atm. */svg.railroad-diagram text.diagram-text { font-size: 12px Hack, "Source Code Pro", monospace; fill: red;}/* Multiple choice text, not working atm. */svg.railroad-diagram path.diagram-text { stroke-width: 1; stroke: red; fill: red; cursor: help;}
 ]]>
</style></defs></svg>