<?xml version="1.0" encoding="UTF-8" standalone="no"?>
<!DOCTYPE svg PUBLIC "-//W3C//DTD SVG 1.1//EN" "http://www.w3.org/Graphics/SVG/1.1/DTD/svg11.dtd">
<svg class="railroad-diagram" width="185.5" height="252" viewBox="0 0 185.5 252" id="sinal_de_pontuacao" xmlns="http://www.w3.org/2000/svg" xmlns:xlink="http://www.w3.org/1999/xlink"><g transform="translate(.5 .5)"><g><path d="M20 21v20m0 -10h20"></path></g><g><path d="M40 31h0"></path><path d="M145.5 31h0"></path><path d="M40 31h20"></path><g><path d="M60 31h0"></path><g><path d="M60 31h10"></path><path d="M115.5 31h10"></path><g class="terminal "><path d="M70 31h0"></path><path d="M115.5 31h0"></path><rect x="70" y="20" width="45.5" height="22"></rect><text x="92.75" y="35">'.'</text></g></g><path d="M125.5 31h0"></path></g><path d="M125.5 31h20"></path><path d="M40 31a10 10 0 0 1 10 10v18a10 10 0 0 0 10 10"></path><g><path d="M60 69h0"></path><g><path d="M60 69h10"></path><path d="M115.5 69h10"></path><g class="terminal "><path d="M70 69h0"></path><path d="M115.5 69h0"></path><rect x="70" y="58" width="45.5" height="22"></rect><text x="92.75" y="73">','</text></g></g><path d="M125.5 69h0"></path></g><path d="M125.5 69a10 10 0 0 0 10 -10v-18a10 10 0 0 1 10 -10"></path><path d="M40 31a10 10 0 0 1 10 10v56a10 10 0 0 0 10 10"></path><g><path d="M60 107h0"></path><g><path d="M60 107h10"></path><path d="M115.5 107h10"></path><g class="terminal "><path d="M70 107h0"></path><path d="M115.5 107h0"></path><rect x="70" y="96" width="45.5" height="22"></rect><text x="92.75" y="111">';'</text></g></g><path d="M125.5 107h0"></path></g><path d="M125.5 107a10 10 0 0 0 10 -10v-56a10 10 0 0 1 10 -10"></path><path d="M40 31a10 10 0 0 1 10 10v94a10 10 0 0 0 10 10"></path><g><path d="M60 145h0"></path><g><path d="M60 145h10"></path><path d="M115.5 145h10"></path><g class="terminal "><path d="M70 145h0"></path><path d="M115.5 145h0"></path><rect x="70" y="134" width="45.5" height="22"></rect><text x="92.75" y="149">':'</text></g></g><path d="M125.5 145h0"></path></g><path d="M125.5 145a10 10 0 0 0 10 -10v-94a10 10 0 0 1 10 -10"></path><path d="M40 31a10 10 0 0 1 10 10v132a10 10 0 0 0 10 10"></path><g><path d="M60 183h0"></path><g><path d="M60 183h10"></path><path d="M115.5 183h10"></path><g class="terminal "><path d="M70 183h0"></path><path d="M115.5 183h0"></path><rect x="70" y="172" width="45.5" height="22"></rect><text x="92.75" y="187">'!'</text></g></g><path d="M125.5 183h0"></path></g><path d="M125.5 183a10 10 0 0 0 10 -10v-132a10 10 0 0 1 10 -10"></path><path d="M40 31a10 10 0 0 1 10 10v170a10 10 0 0 0 10 10"></path><g><path d="M60 221h0"></path><g><path d="M60 221h10"></path><path d="M115.5 221h10"></path><g class="terminal "><path d="M70 221h0"></path><path d="M115.5 221h0"></path><rect x="70" y="210" width="45.5" height="22"></rect><text x="92.75" y="225">'?'</text></g></g><path d="M125.5 221h0"></path></g><path d="M125.5 221a10 10 0 0 0 10 -10v-170a10 10 0 0 1 10 -10"></path></g><path d="M 145.5 31 h 20 m 0 -10 v 20"></path></g><defs><style type="text/css"><![CDATA[
svg.railroad-diagram path { stroke-width: 2; stroke: darkgray; fill: rgba(0, 0, 0, 0);}/* All text except comments. */svg.railroad-diagram text { font: bold 12px Hack, "Source Code Pro", monospace; text-anchor: middle; fill: #404040;}/* Comment text */svg.railroad-diagram text.comment { font: italic 10px Hack, "Source Code Pro", monospace; fill: #404040;}/* The terminal boxes. */svg.railroad-diagram g.terminal rect { stroke-width: 2; stroke: #404040; fill: rgba(200, 200, 200, 1);}svg.railroad-diagram g.non-terminal rect { /* The non-terminal boxes. */ stroke-width: 2; stroke: #404040; fill: rgba(255, 255, 255, 1);}/* Multiple choice text, not working atm. */svg.railroad-diagram text.diagram-text { font-size: 12px Hack, "Source Code Pro", monospace; fill: red;}/* Multiple choice text, not working atm. */svg.railroad-diagram path.diagram-text { stroke-width: 1; stroke: red; fill: red; cursor: help;}
 ]]>
</style></defs></svg>