<?xml version="1.0" encoding="UTF-8" standalone="no"?>
<!DOCTYPE svg PUBLIC "-//W3C//DTD SVG 1.1//EN" "http://www.w3.org/Graphics/SVG/1.1/DTD/svg11.dtd">
<svg class="railroad-diagram" width="1006" height="230" viewBox="0 0 1006 230" id="termo" xmlns="http://www.w3.org/2000/svg" xmlns:xlink="http://www.w3.org/1999/xlink"><g transform="translate(.5 .5)"><g><path d="M20 21v20m0 -10h20"></path></g><g><path d="M40 31h0"></path><path d="M966 31h0"></path><path d="M40 31h20"></path><g><path d="M60 31h363.5"></path><g><path d="M423.5 31h10"></path><path d="M572.5 31h10"></path><g class="non-terminal "><path d="M433.5 31h0"></path><path d="M572.5 31h0"></path><rect x="433.5" y="20" width="139" height="22" rx="10" ry="10"></rect><text x="503" y="35">termo_negativo</text></g></g><path d="M582.5 31h363.5"></path></g><path d="M946 31h20"></path><path d="M40 31a10 10 0 0 1 10 10v18a10 10 0 0 0 10 10"></path><g><path d="M60 69h363.5"></path><g><path d="M423.5 69h10"></path><path d="M572.5 69h10"></path><g class="non-terminal "><path d="M433.5 69h0"></path><path d="M572.5 69h0"></path><rect x="433.5" y="58" width="139" height="22" rx="10" ry="10"></rect><text x="503" y="73">termo_positivo</text></g></g><path d="M582.5 69h363.5"></path></g><path d="M946 69a10 10 0 0 0 10 -10v-18a10 10 0 0 1 10 -10"></path><path d="M40 31a10 10 0 0 1 10 10v56a10 10 0 0 0 10 10"></path><g><path d="M60 107h363.5"></path><g><path d="M423.5 107h10"></path><path d="M572.5 107h10"></path><g class="non-terminal "><path d="M433.5 107h0"></path><path d="M572.5 107h0"></path><rect x="433.5" y="96" width="139" height="22" rx="10" ry="10"></rect><text x="503" y="111">variavel_local</text></g></g><path d="M582.5 107h363.5"></path></g><path d="M946 107a10 10 0 0 0 10 -10v-56a10 10 0 0 1 10 -10"></path><path d="M40 31a10 10 0 0 1 10 10v94a10 10 0 0 0 10 10"></path><g><path d="M60 145h389"></path><g><path d="M449 145h10"></path><path d="M547 145h10"></path><g class="non-terminal "><path d="M459 145h0"></path><path d="M547 145h0"></path><rect x="459" y="134" width="88" height="22" rx="10" ry="10"></rect><text x="503" y="149">variavel</text></g></g><path d="M557 145h389"></path></g><path d="M946 145a10 10 0 0 0 10 -10v-94a10 10 0 0 1 10 -10"></path><path d="M40 31a10 10 0 0 1 10 10v148a10 10 0 0 0 10 10"></path><g><path d="M60 199h0"></path><g><path d="M60 199h10"></path><path d="M936 199h10"></path><g class="non-terminal "><path d="M70 199h0"></path><path d="M200.5 199h0"></path><rect x="70" y="188" width="130.5" height="22" rx="10" ry="10"></rect><text x="135.25" y="203">termo_literal</text></g><path d="M200.5 199h10"></path><g><path d="M210.5 199h0"></path><path d="M708 199h0"></path><path d="M210.5 199a10 10 0 0 0 10 -10v-7a10 10 0 0 1 10 -10"></path><g><path d="M230.5 172h457.5"></path></g><path d="M688 172a10 10 0 0 1 10 10v7a10 10 0 0 0 10 10"></path><path d="M210.5 199h20"></path><g><path d="M230.5 199h0"></path><path d="M688 199h0"></path><path d="M230.5 199h20"></path><g><path d="M250.5 199h0"></path><g><path d="M250.5 199h10"></path><path d="M658 199h10"></path><g class="terminal "><path d="M260.5 199h0"></path><path d="M331.5 199h0"></path><rect x="260.5" y="188" width="71" height="22"></rect><text x="296" y="203">'como'</text></g><path d="M331.5 199h10"></path><path d="M341.5 199h10"></path><g class="non-terminal "><path d="M351.5 199h0"></path><path d="M516 199h0"></path><rect x="351.5" y="188" width="164.5" height="22" rx="10" ry="10"></rect><text x="433.75" y="203">artigo_indefinido</text></g><path d="M516 199h10"></path><path d="M526 199h10"></path><g class="non-terminal "><path d="M536 199h0"></path><path d="M658 199h0"></path><rect x="536" y="188" width="122" height="22" rx="10" ry="10"></rect><text x="597" y="203">nome_do_tipo</text></g></g><path d="M668 199h0"></path></g><path d="M668 199h20"></path></g><path d="M688 199h20"></path></g><g><path d="M708 199h0"></path><path d="M936 199h0"></path><path d="M708 199a10 10 0 0 0 10 -10v-7a10 10 0 0 1 10 -10"></path><g><path d="M728 172h188"></path></g><path d="M916 172a10 10 0 0 1 10 10v7a10 10 0 0 0 10 10"></path><path d="M708 199h20"></path><g><path d="M728 199h0"></path><path d="M916 199h0"></path><path d="M728 199h20"></path><g><path d="M748 199h0"></path><g><path d="M748 199h10"></path><path d="M886 199h10"></path><g class="terminal "><path d="M758 199h0"></path><path d="M803.5 199h0"></path><rect x="758" y="188" width="45.5" height="22"></rect><text x="780.75" y="203">'/'</text></g><path d="M803.5 199h10"></path><path d="M813.5 199h10"></path><g class="non-terminal "><path d="M823.5 199h0"></path><path d="M886 199h0"></path><rect x="823.5" y="188" width="62.5" height="22" rx="10" ry="10"></rect><text x="854.75" y="203">termo</text></g></g><path d="M896 199h0"></path></g><path d="M896 199h20"></path></g><path d="M916 199h20"></path></g></g><path d="M946 199h0"></path></g><path d="M946 199a10 10 0 0 0 10 -10v-148a10 10 0 0 1 10 -10"></path></g><path d="M 966 31 h 20 m 0 -10 v 20"></path></g><defs><style type="text/css"><![CDATA[
svg.railroad-diagram path { stroke-width: 2; stroke: darkgray; fill: rgba(0, 0, 0, 0);}/* All text except comments. */svg.railroad-diagram text { font: bold 12px Hack, "Source Code Pro", monospace; text-anchor: middle; fill: #404040;}/* Comment text */svg.railroad-diagram text.comment { font: italic 10px Hack, "Source Code Pro", monospace; fill: #404040;}/* The terminal boxes. */svg.railroad-diagram g.terminal rect { stroke-width: 2; stroke: #404040; fill: rgba(200, 200, 200, 1);}svg.railroad-diagram g.non-terminal rect { /* The non-terminal boxes. */ stroke-width: 2; stroke: #404040; fill: rgba(255, 255, 255, 1);}/* Multiple choice text, not working atm. */svg.railroad-diagram text.diagram-text { font-size: 12px Hack, "Source Code Pro", monospace; fill: red;}/* Multiple choice text, not working atm. */svg.railroad-diagram path.diagram-text { stroke-width: 1; stroke: red; fill: red; cursor: help;}
 ]]>
</style></defs></svg>