<?xml version="1.0" encoding="UTF-8" standalone="no"?>
<!DOCTYPE svg PUBLIC "-//W3C//DTD SVG 1.1//EN" "http://www.w3.org/Graphics/SVG/1.1/DTD/svg11.dtd">
<svg class="railroad-diagram" width="1057.5" height="154" viewBox="0 0 1057.5 154" id="tipo" xmlns="http://www.w3.org/2000/svg" xmlns:xlink="http://www.w3.org/1999/xlink"><g transform="translate(.5 .5)"><g><path d="M20 37v20m0 -10h20"></path></g><g><path d="M40 47h0"></path><path d="M1017.5 47h0"></path><path d="M40 47h20"></path><g><path d="M60 47h0"></path><g><path d="M60 47h10"></path><path d="M987.5 47h10"></path><g class="non-terminal "><path d="M70 47h0"></path><path d="M234.5 47h0"></path><rect x="70" y="36" width="164.5" height="22" rx="10" ry="10"></rect><text x="152.25" y="51">artigo_indefinido</text></g><path d="M234.5 47h10"></path><path d="M244.5 47h10"></path><g class="non-terminal "><path d="M254.5 47h0"></path><path d="M308.5 47h0"></path><rect x="254.5" y="36" width="54" height="22" rx="10" ry="10"></rect><text x="281.5" y="51">nome</text></g><path d="M308.5 47h10"></path><path d="M318.5 47h10"></path><g class="terminal "><path d="M328.5 47h0"></path><path d="M374 47h0"></path><rect x="328.5" y="36" width="45.5" height="22"></rect><text x="351.25" y="51">'é'</text></g><path d="M374 47h10"></path><path d="M384 47h10"></path><g class="non-terminal "><path d="M394 47h0"></path><path d="M558.5 47h0"></path><rect x="394" y="36" width="164.5" height="22" rx="10" ry="10"></rect><text x="476.25" y="51">artigo_indefinido</text></g><path d="M558.5 47h10"></path><path d="M568.5 47h10"></path><g class="non-terminal "><path d="M578.5 47h0"></path><path d="M700.5 47h0"></path><rect x="578.5" y="36" width="122" height="22" rx="10" ry="10"></rect><text x="639.5" y="51">nome_do_tipo</text></g><path d="M700.5 47h10"></path><g><path d="M710.5 47h0"></path><path d="M932 47h0"></path><path d="M710.5 47a10 10 0 0 0 10 -10v-7a10 10 0 0 1 10 -10"></path><g><path d="M730.5 20h181.5"></path></g><path d="M912 20a10 10 0 0 1 10 10v7a10 10 0 0 0 10 10"></path><path d="M710.5 47h20"></path><g class="non-terminal "><path d="M730.5 47h0"></path><path d="M912 47h0"></path><rect x="730.5" y="36" width="181.5" height="22" rx="10" ry="10"></rect><text x="821.25" y="51">informacao_opcional</text></g><path d="M912 47h20"></path></g><path d="M932 47h10"></path><g class="terminal "><path d="M942 47h0"></path><path d="M987.5 47h0"></path><rect x="942" y="36" width="45.5" height="22"></rect><text x="964.75" y="51">'.'</text></g></g><path d="M997.5 47h0"></path></g><path d="M997.5 47h20"></path><path d="M40 47a10 10 0 0 1 10 10v18a10 10 0 0 0 10 10"></path><g><path d="M60 85h152"></path><g><path d="M212 85h10"></path><path d="M835.5 85h10"></path><g class="non-terminal "><path d="M222 85h0"></path><path d="M386.5 85h0"></path><rect x="222" y="74" width="164.5" height="22" rx="10" ry="10"></rect><text x="304.25" y="89">artigo_indefinido</text></g><path d="M386.5 85h10"></path><path d="M396.5 85h10"></path><g class="non-terminal "><path d="M406.5 85h0"></path><path d="M460.5 85h0"></path><rect x="406.5" y="74" width="54" height="22" rx="10" ry="10"></rect><text x="433.5" y="89">nome</text></g><path d="M460.5 85h10"></path><path d="M470.5 85h10"></path><g class="terminal "><path d="M480.5 85h0"></path><path d="M679 85h0"></path><rect x="480.5" y="74" width="198.5" height="22"></rect><text x="579.75" y="89">'é uma estrutura com'</text></g><path d="M679 85h10"></path><path d="M689 85h10"></path><g class="non-terminal "><path d="M699 85h0"></path><path d="M770 85h0"></path><rect x="699" y="74" width="71" height="22" rx="10" ry="10"></rect><text x="734.5" y="89">campos</text></g><path d="M770 85h10"></path><path d="M780 85h10"></path><g class="terminal "><path d="M790 85h0"></path><path d="M835.5 85h0"></path><rect x="790" y="74" width="45.5" height="22"></rect><text x="812.75" y="89">'.'</text></g></g><path d="M845.5 85h152"></path></g><path d="M997.5 85a10 10 0 0 0 10 -10v-18a10 10 0 0 1 10 -10"></path><path d="M40 47a10 10 0 0 1 10 10v56a10 10 0 0 0 10 10"></path><g><path d="M60 123h123.5"></path><g><path d="M183.5 123h10"></path><path d="M864 123h10"></path><g class="non-terminal "><path d="M193.5 123h0"></path><path d="M358 123h0"></path><rect x="193.5" y="112" width="164.5" height="22" rx="10" ry="10"></rect><text x="275.75" y="127">artigo_indefinido</text></g><path d="M358 123h10"></path><path d="M368 123h10"></path><g class="non-terminal "><path d="M378 123h0"></path><path d="M432 123h0"></path><rect x="378" y="112" width="54" height="22" rx="10" ry="10"></rect><text x="405" y="127">nome</text></g><path d="M432 123h10"></path><path d="M442 123h10"></path><g class="terminal "><path d="M452 123h0"></path><path d="M497.5 123h0"></path><rect x="452" y="112" width="45.5" height="22"></rect><text x="474.75" y="127">'é'</text></g><path d="M497.5 123h10"></path><path d="M507.5 123h10"></path><g class="non-terminal "><path d="M517.5 123h0"></path><path d="M656.5 123h0"></path><rect x="517.5" y="112" width="139" height="22" rx="10" ry="10"></rect><text x="587" y="127">numero_inteiro</text></g><path d="M656.5 123h10"></path><path d="M666.5 123h10"></path><g class="non-terminal "><path d="M676.5 123h0"></path><path d="M798.5 123h0"></path><rect x="676.5" y="112" width="122" height="22" rx="10" ry="10"></rect><text x="737.5" y="127">nome_do_tipo</text></g><path d="M798.5 123h10"></path><path d="M808.5 123h10"></path><g class="terminal "><path d="M818.5 123h0"></path><path d="M864 123h0"></path><rect x="818.5" y="112" width="45.5" height="22"></rect><text x="841.25" y="127">'.'</text></g></g><path d="M874 123h123.5"></path></g><path d="M997.5 123a10 10 0 0 0 10 -10v-56a10 10 0 0 1 10 -10"></path></g><path d="M 1017.5 47 h 20 m 0 -10 v 20"></path></g><defs><style type="text/css"><![CDATA[
svg.railroad-diagram path { stroke-width: 2; stroke: darkgray; fill: rgba(0, 0, 0, 0);}/* All text except comments. */svg.railroad-diagram text { font: bold 12px Hack, "Source Code Pro", monospace; text-anchor: middle; fill: #404040;}/* Comment text */svg.railroad-diagram text.comment { font: italic 10px Hack, "Source Code Pro", monospace; fill: #404040;}/* The terminal boxes. */svg.railroad-diagram g.terminal rect { stroke-width: 2; stroke: #404040; fill: rgba(200, 200, 200, 1);}svg.railroad-diagram g.non-terminal rect { /* The non-terminal boxes. */ stroke-width: 2; stroke: #404040; fill: rgba(255, 255, 255, 1);}/* Multiple choice text, not working atm. */svg.railroad-diagram text.diagram-text { font-size: 12px Hack, "Source Code Pro", monospace; fill: red;}/* Multiple choice text, not working atm. */svg.railroad-diagram path.diagram-text { stroke-width: 1; stroke: red; fill: red; cursor: help;}
 ]]>
</style></defs></svg>