<?xml version="1.0" encoding="UTF-8" standalone="no"?>
<!DOCTYPE svg PUBLIC "-//W3C//DTD SVG 1.1//EN" "http://www.w3.org/Graphics/SVG/1.1/DTD/svg11.dtd">
<svg class="railroad-diagram" width="321.5" height="670" viewBox="0 0 321.5 670" id="tipos_primitivos" xmlns="http://www.w3.org/2000/svg" xmlns:xlink="http://www.w3.org/1999/xlink"><g transform="translate(.5 .5)"><g><path d="M20 21v20m0 -10h20"></path></g><g><path d="M40 31h0"></path><path d="M281.5 31h0"></path><path d="M40 31h20"></path><g><path d="M60 31h55.25"></path><g><path d="M115.25 31h10"></path><path d="M196.25 31h10"></path><g class="terminal "><path d="M125.25 31h0"></path><path d="M196.25 31h0"></path><rect x="125.25" y="20" width="71" height="22"></rect><text x="160.75" y="35">'byte'</text></g></g><path d="M206.25 31h55.25"></path></g><path d="M261.5 31h20"></path><path d="M40 31a10 10 0 0 1 10 10v18a10 10 0 0 0 10 10"></path><g><path d="M60 69h34"></path><g><path d="M94 69h10"></path><path d="M217.5 69h10"></path><g class="terminal "><path d="M104 69h0"></path><path d="M217.5 69h0"></path><rect x="104" y="58" width="113.5" height="22"></rect><text x="160.75" y="73">'caractere'</text></g></g><path d="M227.5 69h34"></path></g><path d="M261.5 69a10 10 0 0 0 10 -10v-18a10 10 0 0 1 10 -10"></path><path d="M40 31a10 10 0 0 1 10 10v56a10 10 0 0 0 10 10"></path><g><path d="M60 107h55.25"></path><g><path d="M115.25 107h10"></path><path d="M196.25 107h10"></path><g class="terminal "><path d="M125.25 107h0"></path><path d="M196.25 107h0"></path><rect x="125.25" y="96" width="71" height="22"></rect><text x="160.75" y="111">'word'</text></g></g><path d="M206.25 107h55.25"></path></g><path d="M261.5 107a10 10 0 0 0 10 -10v-56a10 10 0 0 1 10 -10"></path><path d="M40 31a10 10 0 0 1 10 10v94a10 10 0 0 0 10 10"></path><g><path d="M60 145h46.75"></path><g><path d="M106.75 145h10"></path><path d="M204.75 145h10"></path><g class="terminal "><path d="M116.75 145h0"></path><path d="M204.75 145h0"></path><rect x="116.75" y="134" width="88" height="22"></rect><text x="160.75" y="149">'número'</text></g></g><path d="M214.75 145h46.75"></path></g><path d="M261.5 145a10 10 0 0 0 10 -10v-94a10 10 0 0 1 10 -10"></path><path d="M40 31a10 10 0 0 1 10 10v132a10 10 0 0 0 10 10"></path><g><path d="M60 183h25.5"></path><g><path d="M85.5 183h10"></path><path d="M226 183h10"></path><g class="terminal "><path d="M95.5 183h0"></path><path d="M226 183h0"></path><rect x="95.5" y="172" width="130.5" height="22"></rect><text x="160.75" y="187">'sinalizador'</text></g></g><path d="M236 183h25.5"></path></g><path d="M261.5 183a10 10 0 0 0 10 -10v-132a10 10 0 0 1 10 -10"></path><path d="M40 31a10 10 0 0 1 10 10v170a10 10 0 0 0 10 10"></path><g><path d="M60 221h38.25"></path><g><path d="M98.25 221h10"></path><path d="M213.25 221h10"></path><g class="terminal "><path d="M108.25 221h0"></path><path d="M213.25 221h0"></path><rect x="108.25" y="210" width="105" height="22"></rect><text x="160.75" y="225">'ponteiro'</text></g></g><path d="M223.25 221h38.25"></path></g><path d="M261.5 221a10 10 0 0 0 10 -10v-170a10 10 0 0 1 10 -10"></path><path d="M40 31a10 10 0 0 1 10 10v208a10 10 0 0 0 10 10"></path><g><path d="M60 259h34"></path><g><path d="M94 259h10"></path><path d="M217.5 259h10"></path><g class="terminal "><path d="M104 259h0"></path><path d="M217.5 259h0"></path><rect x="104" y="248" width="113.5" height="22"></rect><text x="160.75" y="263">'estrutura'</text></g></g><path d="M227.5 259h34"></path></g><path d="M261.5 259a10 10 0 0 0 10 -10v-208a10 10 0 0 1 10 -10"></path><path d="M40 31a10 10 0 0 1 10 10v246a10 10 0 0 0 10 10"></path><g><path d="M60 297h46.75"></path><g><path d="M106.75 297h10"></path><path d="M204.75 297h10"></path><g class="terminal "><path d="M116.75 297h0"></path><path d="M204.75 297h0"></path><rect x="116.75" y="286" width="88" height="22"></rect><text x="160.75" y="301">'string'</text></g></g><path d="M214.75 297h46.75"></path></g><path d="M261.5 297a10 10 0 0 0 10 -10v-246a10 10 0 0 1 10 -10"></path><path d="M40 31a10 10 0 0 1 10 10v284a10 10 0 0 0 10 10"></path><g><path d="M60 335h38.25"></path><g><path d="M98.25 335h10"></path><path d="M213.25 335h10"></path><g class="terminal "><path d="M108.25 335h0"></path><path d="M213.25 335h0"></path><rect x="108.25" y="324" width="105" height="22"></rect><text x="160.75" y="339">'subtexto'</text></g></g><path d="M223.25 335h38.25"></path></g><path d="M261.5 335a10 10 0 0 0 10 -10v-284a10 10 0 0 1 10 -10"></path><path d="M40 31a10 10 0 0 1 10 10v322a10 10 0 0 0 10 10"></path><g><path d="M60 373h0"></path><g><path d="M60 373h10"></path><path d="M251.5 373h10"></path><g class="terminal "><path d="M70 373h0"></path><path d="M251.5 373h0"></path><rect x="70" y="362" width="181.5" height="22"></rect><text x="160.75" y="377">'texto hexadecimal'</text></g></g><path d="M261.5 373h0"></path></g><path d="M261.5 373a10 10 0 0 0 10 -10v-322a10 10 0 0 1 10 -10"></path><path d="M40 31a10 10 0 0 1 10 10v360a10 10 0 0 0 10 10"></path><g><path d="M60 411h51"></path><g><path d="M111 411h10"></path><path d="M200.5 411h10"></path><g class="terminal "><path d="M121 411h0"></path><path d="M200.5 411h0"></path><rect x="121" y="400" width="79.5" height="22"></rect><text x="160.75" y="415">'lista'</text></g></g><path d="M210.5 411h51"></path></g><path d="M261.5 411a10 10 0 0 0 10 -10v-360a10 10 0 0 1 10 -10"></path><path d="M40 31a10 10 0 0 1 10 10v398a10 10 0 0 0 10 10"></path><g><path d="M60 449h0"></path><g><path d="M60 449h10"></path><path d="M251.5 449h10"></path><g class="terminal "><path d="M70 449h0"></path><path d="M251.5 449h0"></path><rect x="70" y="438" width="181.5" height="22"></rect><text x="160.75" y="453">'lista estruturada'</text></g></g><path d="M261.5 449h0"></path></g><path d="M261.5 449a10 10 0 0 0 10 -10v-398a10 10 0 0 1 10 -10"></path><path d="M40 31a10 10 0 0 1 10 10v436a10 10 0 0 0 10 10"></path><g><path d="M60 487h46.75"></path><g><path d="M106.75 487h10"></path><path d="M204.75 487h10"></path><g class="terminal "><path d="M116.75 487h0"></path><path d="M204.75 487h0"></path><rect x="116.75" y="476" width="88" height="22"></rect><text x="160.75" y="491">'listas'</text></g></g><path d="M214.75 487h46.75"></path></g><path d="M261.5 487a10 10 0 0 0 10 -10v-436a10 10 0 0 1 10 -10"></path><path d="M40 31a10 10 0 0 1 10 10v474a10 10 0 0 0 10 10"></path><g><path d="M60 525h34"></path><g><path d="M94 525h10"></path><path d="M217.5 525h10"></path><g class="terminal "><path d="M104 525h0"></path><path d="M217.5 525h0"></path><rect x="104" y="514" width="113.5" height="22"></rect><text x="160.75" y="529">'proporção'</text></g></g><path d="M227.5 525h34"></path></g><path d="M261.5 525a10 10 0 0 0 10 -10v-474a10 10 0 0 1 10 -10"></path><path d="M40 31a10 10 0 0 1 10 10v512a10 10 0 0 0 10 10"></path><g><path d="M60 563h46.75"></path><g><path d="M106.75 563h10"></path><path d="M204.75 563h10"></path><g class="terminal "><path d="M116.75 563h0"></path><path d="M204.75 563h0"></path><rect x="116.75" y="552" width="88" height="22"></rect><text x="160.75" y="567">'fração'</text></g></g><path d="M214.75 563h46.75"></path></g><path d="M261.5 563a10 10 0 0 0 10 -10v-512a10 10 0 0 1 10 -10"></path><path d="M40 31a10 10 0 0 1 10 10v550a10 10 0 0 0 10 10"></path><g><path d="M60 601h34"></path><g><path d="M94 601h10"></path><path d="M217.5 601h10"></path><g class="terminal "><path d="M104 601h0"></path><path d="M217.5 601h0"></path><rect x="104" y="590" width="113.5" height="22"></rect><text x="160.75" y="605">'numerador'</text></g></g><path d="M227.5 601h34"></path></g><path d="M261.5 601a10 10 0 0 0 10 -10v-550a10 10 0 0 1 10 -10"></path><path d="M40 31a10 10 0 0 1 10 10v588a10 10 0 0 0 10 10"></path><g><path d="M60 639h25.5"></path><g><path d="M85.5 639h10"></path><path d="M226 639h10"></path><g class="terminal "><path d="M95.5 639h0"></path><path d="M226 639h0"></path><rect x="95.5" y="628" width="130.5" height="22"></rect><text x="160.75" y="643">'denominador'</text></g></g><path d="M236 639h25.5"></path></g><path d="M261.5 639a10 10 0 0 0 10 -10v-588a10 10 0 0 1 10 -10"></path></g><path d="M 281.5 31 h 20 m 0 -10 v 20"></path></g><defs><style type="text/css"><![CDATA[
svg.railroad-diagram path { stroke-width: 2; stroke: darkgray; fill: rgba(0, 0, 0, 0);}/* All text except comments. */svg.railroad-diagram text { font: bold 12px Hack, "Source Code Pro", monospace; text-anchor: middle; fill: #404040;}/* Comment text */svg.railroad-diagram text.comment { font: italic 10px Hack, "Source Code Pro", monospace; fill: #404040;}/* The terminal boxes. */svg.railroad-diagram g.terminal rect { stroke-width: 2; stroke: #404040; fill: rgba(200, 200, 200, 1);}svg.railroad-diagram g.non-terminal rect { /* The non-terminal boxes. */ stroke-width: 2; stroke: #404040; fill: rgba(255, 255, 255, 1);}/* Multiple choice text, not working atm. */svg.railroad-diagram text.diagram-text { font-size: 12px Hack, "Source Code Pro", monospace; fill: red;}/* Multiple choice text, not working atm. */svg.railroad-diagram path.diagram-text { stroke-width: 1; stroke: red; fill: red; cursor: help;}
 ]]>
</style></defs></svg>