<?xml version="1.0" encoding="UTF-8" standalone="no"?>
<!DOCTYPE svg PUBLIC "-//W3C//DTD SVG 1.1//EN" "http://www.w3.org/Graphics/SVG/1.1/DTD/svg11.dtd">
<svg class="railroad-diagram" width="808" height="78" viewBox="0 0 808 78" id="variavel_local" xmlns="http://www.w3.org/2000/svg" xmlns:xlink="http://www.w3.org/1999/xlink"><g transform="translate(.5 .5)"><g><path d="M20 37v20m0 -10h20"></path></g><g><path d="M40 47h0"></path><path d="M768 47h0"></path><path d="M40 47h20"></path><g><path d="M60 47h0"></path><g><path d="M60 47h10"></path><path d="M738 47h10"></path><g class="non-terminal "><path d="M70 47h0"></path><path d="M234.5 47h0"></path><rect x="70" y="36" width="164.5" height="22" rx="10" ry="10"></rect><text x="152.25" y="51">artigo_indefinido</text></g><path d="M234.5 47h10"></path><path d="M244.5 47h10"></path><g class="non-terminal "><path d="M254.5 47h0"></path><path d="M308.5 47h0"></path><rect x="254.5" y="36" width="54" height="22" rx="10" ry="10"></rect><text x="281.5" y="51">nome</text></g><path d="M308.5 47h10"></path><g><path d="M318.5 47h0"></path><path d="M614.5 47h0"></path><path d="M318.5 47a10 10 0 0 0 10 -10v-7a10 10 0 0 1 10 -10"></path><g><path d="M338.5 20h256"></path></g><path d="M594.5 20a10 10 0 0 1 10 10v7a10 10 0 0 0 10 10"></path><path d="M318.5 47h20"></path><g><path d="M338.5 47h0"></path><path d="M594.5 47h0"></path><path d="M338.5 47h20"></path><g><path d="M358.5 47h0"></path><g><path d="M358.5 47h10"></path><path d="M564.5 47h10"></path><g class="non-terminal "><path d="M368.5 47h0"></path><path d="M490.5 47h0"></path><rect x="368.5" y="36" width="122" height="22" rx="10" ry="10"></rect><text x="429.5" y="51">denominacoes</text></g><path d="M490.5 47h10"></path><path d="M500.5 47h10"></path><g class="non-terminal "><path d="M510.5 47h0"></path><path d="M564.5 47h0"></path><rect x="510.5" y="36" width="54" height="22" rx="10" ry="10"></rect><text x="537.5" y="51">nome</text></g></g><path d="M574.5 47h0"></path></g><path d="M574.5 47h20"></path></g><path d="M594.5 47h20"></path></g><path d="M614.5 47h10"></path><g class="non-terminal "><path d="M624.5 47h0"></path><path d="M738 47h0"></path><rect x="624.5" y="36" width="113.5" height="22" rx="10" ry="10"></rect><text x="681.25" y="51">possessivos</text></g></g><path d="M748 47h0"></path></g><path d="M748 47h20"></path></g><path d="M 768 47 h 20 m 0 -10 v 20"></path></g><defs><style type="text/css"><![CDATA[
svg.railroad-diagram path { stroke-width: 2; stroke: darkgray; fill: rgba(0, 0, 0, 0);}/* All text except comments. */svg.railroad-diagram text { font: bold 12px Hack, "Source Code Pro", monospace; text-anchor: middle; fill: #404040;}/* Comment text */svg.railroad-diagram text.comment { font: italic 10px Hack, "Source Code Pro", monospace; fill: #404040;}/* The terminal boxes. */svg.railroad-diagram g.terminal rect { stroke-width: 2; stroke: #404040; fill: rgba(200, 200, 200, 1);}svg.railroad-diagram g.non-terminal rect { /* The non-terminal boxes. */ stroke-width: 2; stroke: #404040; fill: rgba(255, 255, 255, 1);}/* Multiple choice text, not working atm. */svg.railroad-diagram text.diagram-text { font-size: 12px Hack, "Source Code Pro", monospace; fill: red;}/* Multiple choice text, not working atm. */svg.railroad-diagram path.diagram-text { stroke-width: 1; stroke: red; fill: red; cursor: help;}
 ]]>
</style></defs></svg>