<?xml version="1.0" encoding="UTF-8" standalone="no"?>
<!DOCTYPE svg PUBLIC "-//W3C//DTD SVG 1.1//EN" "http://www.w3.org/Graphics/SVG/1.1/DTD/svg11.dtd">
<svg class="railroad-diagram" width="1643" height="186" viewBox="0 0 1643 186" id="variavel_global" xmlns="http://www.w3.org/2000/svg" xmlns:xlink="http://www.w3.org/1999/xlink"><g transform="translate(.5 .5)"><g><path d="M20 37v20m0 -10h20"></path></g><g><path d="M40 47h0"></path><path d="M1603 47h0"></path><path d="M40 47h20"></path><g><path d="M60 47h301.25"></path><g><path d="M361.25 47h10"></path><path d="M1271.75 47h10"></path><g class="non-terminal "><path d="M371.25 47h0"></path><path d="M518.75 47h0"></path><rect x="371.25" y="36" width="147.5" height="22" rx="10" ry="10"></rect><text x="445" y="51">artigo_definido</text></g><path d="M518.75 47h10"></path><path d="M528.75 47h10"></path><g class="non-terminal "><path d="M538.75 47h0"></path><path d="M592.75 47h0"></path><rect x="538.75" y="36" width="54" height="22" rx="10" ry="10"></rect><text x="565.75" y="51">nome</text></g><path d="M592.75 47h10"></path><path d="M602.75 47h10"></path><g class="terminal "><path d="M612.75 47h0"></path><path d="M658.25 47h0"></path><rect x="612.75" y="36" width="45.5" height="22"></rect><text x="635.5" y="51">'é'</text></g><path d="M658.25 47h10"></path><path d="M668.25 47h10"></path><g class="non-terminal "><path d="M678.25 47h0"></path><path d="M842.75 47h0"></path><rect x="678.25" y="36" width="164.5" height="22" rx="10" ry="10"></rect><text x="760.5" y="51">artigo_indefinido</text></g><path d="M842.75 47h10"></path><path d="M852.75 47h10"></path><g class="non-terminal "><path d="M862.75 47h0"></path><path d="M984.75 47h0"></path><rect x="862.75" y="36" width="122" height="22" rx="10" ry="10"></rect><text x="923.75" y="51">nome_do_tipo</text></g><path d="M984.75 47h10"></path><g><path d="M994.75 47h0"></path><path d="M1216.25 47h0"></path><path d="M994.75 47a10 10 0 0 0 10 -10v-7a10 10 0 0 1 10 -10"></path><g><path d="M1014.75 20h181.5"></path></g><path d="M1196.25 20a10 10 0 0 1 10 10v7a10 10 0 0 0 10 10"></path><path d="M994.75 47h20"></path><g class="non-terminal "><path d="M1014.75 47h0"></path><path d="M1196.25 47h0"></path><rect x="1014.75" y="36" width="181.5" height="22" rx="10" ry="10"></rect><text x="1105.5" y="51">informacao_opcional</text></g><path d="M1196.25 47h20"></path></g><path d="M1216.25 47h10"></path><g class="terminal "><path d="M1226.25 47h0"></path><path d="M1271.75 47h0"></path><rect x="1226.25" y="36" width="45.5" height="22"></rect><text x="1249" y="51">'.'</text></g></g><path d="M1281.75 47h301.25"></path></g><path d="M1583 47h20"></path><path d="M40 47a10 10 0 0 1 10 10v18a10 10 0 0 0 10 10"></path><g><path d="M60 85h453.25"></path><g><path d="M513.25 85h10"></path><path d="M1119.75 85h10"></path><g class="non-terminal "><path d="M523.25 85h0"></path><path d="M670.75 85h0"></path><rect x="523.25" y="74" width="147.5" height="22" rx="10" ry="10"></rect><text x="597" y="89">artigo_definido</text></g><path d="M670.75 85h10"></path><path d="M680.75 85h10"></path><g class="non-terminal "><path d="M690.75 85h0"></path><path d="M744.75 85h0"></path><rect x="690.75" y="74" width="54" height="22" rx="10" ry="10"></rect><text x="717.75" y="89">nome</text></g><path d="M744.75 85h10"></path><path d="M754.75 85h10"></path><g class="terminal "><path d="M764.75 85h0"></path><path d="M963.25 85h0"></path><rect x="764.75" y="74" width="198.5" height="22"></rect><text x="864" y="89">'é uma estrutura com'</text></g><path d="M963.25 85h10"></path><path d="M973.25 85h10"></path><g class="non-terminal "><path d="M983.25 85h0"></path><path d="M1054.25 85h0"></path><rect x="983.25" y="74" width="71" height="22" rx="10" ry="10"></rect><text x="1018.75" y="89">campos</text></g><path d="M1054.25 85h10"></path><path d="M1064.25 85h10"></path><g class="terminal "><path d="M1074.25 85h0"></path><path d="M1119.75 85h0"></path><rect x="1074.25" y="74" width="45.5" height="22"></rect><text x="1097" y="89">'.'</text></g></g><path d="M1129.75 85h453.25"></path></g><path d="M1583 85a10 10 0 0 0 10 -10v-18a10 10 0 0 1 10 -10"></path><path d="M40 47a10 10 0 0 1 10 10v56a10 10 0 0 0 10 10"></path><g><path d="M60 123h0"></path><g><path d="M60 123h10"></path><path d="M1573 123h10"></path><g class="non-terminal "><path d="M70 123h0"></path><path d="M217.5 123h0"></path><rect x="70" y="112" width="147.5" height="22" rx="10" ry="10"></rect><text x="143.75" y="127">artigo_definido</text></g><path d="M217.5 123h10"></path><path d="M227.5 123h10"></path><g class="non-terminal "><path d="M237.5 123h0"></path><path d="M291.5 123h0"></path><rect x="237.5" y="112" width="54" height="22" rx="10" ry="10"></rect><text x="264.5" y="127">nome</text></g><path d="M291.5 123h10"></path><path d="M301.5 123h10"></path><g class="terminal "><path d="M311.5 123h0"></path><path d="M357 123h0"></path><rect x="311.5" y="112" width="45.5" height="22"></rect><text x="334.25" y="127">'é'</text></g><path d="M357 123h10"></path><path d="M367 123h10"></path><g class="non-terminal "><path d="M377 123h0"></path><path d="M541.5 123h0"></path><rect x="377" y="112" width="164.5" height="22" rx="10" ry="10"></rect><text x="459.25" y="127">artigo_indefinido</text></g><path d="M541.5 123h10"></path><path d="M551.5 123h10"></path><g class="non-terminal "><path d="M561.5 123h0"></path><path d="M683.5 123h0"></path><rect x="561.5" y="112" width="122" height="22" rx="10" ry="10"></rect><text x="622.5" y="127">nome_do_tipo</text></g><path d="M683.5 123h10"></path><path d="M693.5 123h10"></path><g class="terminal "><path d="M703.5 123h0"></path><path d="M800 123h0"></path><rect x="703.5" y="112" width="96.5" height="22"></rect><text x="751.75" y="127">'igual a'</text></g><path d="M800 123h10"></path><path d="M810 123h10"></path><g class="non-terminal "><path d="M820 123h0"></path><path d="M967.5 123h0"></path><rect x="820" y="112" width="147.5" height="22" rx="10" ry="10"></rect><text x="893.75" y="127">termo_constante</text></g><path d="M967.5 123h10"></path><path d="M977.5 123h10"></path><g class="terminal "><path d="M987.5 123h0"></path><path d="M1033 123h0"></path><rect x="987.5" y="112" width="45.5" height="22"></rect><text x="1010.25" y="127">'.'</text></g><path d="M1033 123h10"></path><path d="M1043 123h10"></path><g class="non-terminal "><path d="M1053 123h0"></path><path d="M1200.5 123h0"></path><rect x="1053" y="112" width="147.5" height="22" rx="10" ry="10"></rect><text x="1126.75" y="127">artigo_definido</text></g><path d="M1200.5 123h10"></path><path d="M1210.5 123h10"></path><g class="non-terminal "><path d="M1220.5 123h0"></path><path d="M1274.5 123h0"></path><rect x="1220.5" y="112" width="54" height="22" rx="10" ry="10"></rect><text x="1247.5" y="127">nome</text></g><path d="M1274.5 123h10"></path><path d="M1284.5 123h10"></path><g class="terminal "><path d="M1294.5 123h0"></path><path d="M1340 123h0"></path><rect x="1294.5" y="112" width="45.5" height="22"></rect><text x="1317.25" y="127">'é'</text></g><path d="M1340 123h10"></path><path d="M1350 123h10"></path><g class="non-terminal "><path d="M1360 123h0"></path><path d="M1507.5 123h0"></path><rect x="1360" y="112" width="147.5" height="22" rx="10" ry="10"></rect><text x="1433.75" y="127">termo_constante</text></g><path d="M1507.5 123h10"></path><path d="M1517.5 123h10"></path><g class="terminal "><path d="M1527.5 123h0"></path><path d="M1573 123h0"></path><rect x="1527.5" y="112" width="45.5" height="22"></rect><text x="1550.25" y="127">'.'</text></g></g><path d="M1583 123h0"></path></g><path d="M1583 123a10 10 0 0 0 10 -10v-56a10 10 0 0 1 10 -10"></path><path d="M40 47a10 10 0 0 1 10 10v91a10 10 0 0 0 10 10"></path><g><path d="M60 158h708"></path><g><path d="M768 158h10"></path><path d="M865 158h10"></path><g class="comment rrd-warning"><path d="M778 158h0"></path><path d="M865 158h0"></path><text x="821.5" y="163" class="comment">&lt;empty alt&gt;</text></g></g><path d="M875 158h708"></path></g><path d="M1583 158a10 10 0 0 0 10 -10v-91a10 10 0 0 1 10 -10"></path></g><path d="M 1603 47 h 20 m 0 -10 v 20"></path></g><defs><style type="text/css"><![CDATA[
svg.railroad-diagram path { stroke-width: 2; stroke: darkgray; fill: rgba(0, 0, 0, 0);}/* All text except comments. */svg.railroad-diagram text { font: bold 12px Hack, "Source Code Pro", monospace; text-anchor: middle; fill: #404040;}/* Comment text */svg.railroad-diagram text.comment { font: italic 10px Hack, "Source Code Pro", monospace; fill: #404040;}/* The terminal boxes. */svg.railroad-diagram g.terminal rect { stroke-width: 2; stroke: #404040; fill: rgba(200, 200, 200, 1);}svg.railroad-diagram g.non-terminal rect { /* The non-terminal boxes. */ stroke-width: 2; stroke: #404040; fill: rgba(255, 255, 255, 1);}/* Multiple choice text, not working atm. */svg.railroad-diagram text.diagram-text { font-size: 12px Hack, "Source Code Pro", monospace; fill: red;}/* Multiple choice text, not working atm. */svg.railroad-diagram path.diagram-text { stroke-width: 1; stroke: red; fill: red; cursor: help;}
 ]]>
</style></defs></svg>