<?xml version="1.0" encoding="UTF-8" standalone="no"?>
<!DOCTYPE svg PUBLIC "-//W3C//DTD SVG 1.1//EN" "http://www.w3.org/Graphics/SVG/1.1/DTD/svg11.dtd">
<svg class="railroad-diagram" width="253.5" height="898" viewBox="0 0 253.5 898" id="verbos" xmlns="http://www.w3.org/2000/svg" xmlns:xlink="http://www.w3.org/1999/xlink"><g transform="translate(.5 .5)"><g><path d="M20 21v20m0 -10h20"></path></g><g><path d="M40 31h0"></path><path d="M213.5 31h0"></path><path d="M40 31h20"></path><g><path d="M60 31h34"></path><g><path d="M94 31h10"></path><path d="M149.5 31h10"></path><g class="terminal "><path d="M104 31h0"></path><path d="M149.5 31h0"></path><rect x="104" y="20" width="45.5" height="22"></rect><text x="126.75" y="35">'é'</text></g></g><path d="M159.5 31h34"></path></g><path d="M193.5 31h20"></path><path d="M40 31a10 10 0 0 1 10 10v18a10 10 0 0 0 10 10"></path><g><path d="M60 69h21.25"></path><g><path d="M81.25 69h10"></path><path d="M162.25 69h10"></path><g class="terminal "><path d="M91.25 69h0"></path><path d="M162.25 69h0"></path><rect x="91.25" y="58" width="71" height="22"></rect><text x="126.75" y="73">'está'</text></g></g><path d="M172.25 69h21.25"></path></g><path d="M193.5 69a10 10 0 0 0 10 -10v-18a10 10 0 0 1 10 -10"></path><path d="M40 31a10 10 0 0 1 10 10v56a10 10 0 0 0 10 10"></path><g><path d="M60 107h8.5"></path><g><path d="M68.5 107h10"></path><path d="M175 107h10"></path><g class="terminal "><path d="M78.5 107h0"></path><path d="M175 107h0"></path><rect x="78.5" y="96" width="96.5" height="22"></rect><text x="126.75" y="111">'estiver'</text></g></g><path d="M185 107h8.5"></path></g><path d="M193.5 107a10 10 0 0 0 10 -10v-56a10 10 0 0 1 10 -10"></path><path d="M40 31a10 10 0 0 1 10 10v94a10 10 0 0 0 10 10"></path><g><path d="M60 145h25.5"></path><g><path d="M85.5 145h10"></path><path d="M158 145h10"></path><g class="terminal "><path d="M95.5 145h0"></path><path d="M158 145h0"></path><rect x="95.5" y="134" width="62.5" height="22"></rect><text x="126.75" y="149">'for'</text></g></g><path d="M168 145h25.5"></path></g><path d="M193.5 145a10 10 0 0 0 10 -10v-94a10 10 0 0 1 10 -10"></path><path d="M40 31a10 10 0 0 1 10 10v132a10 10 0 0 0 10 10"></path><g><path d="M60 183h17"></path><g><path d="M77 183h10"></path><path d="M166.5 183h10"></path><g class="terminal "><path d="M87 183h0"></path><path d="M166.5 183h0"></path><rect x="87" y="172" width="79.5" height="22"></rect><text x="126.75" y="187">'forem'</text></g></g><path d="M176.5 183h17"></path></g><path d="M193.5 183a10 10 0 0 0 10 -10v-132a10 10 0 0 1 10 -10"></path><path d="M40 31a10 10 0 0 1 10 10v170a10 10 0 0 0 10 10"></path><g><path d="M60 221h25.5"></path><g><path d="M85.5 221h10"></path><path d="M158 221h10"></path><g class="terminal "><path d="M95.5 221h0"></path><path d="M158 221h0"></path><rect x="95.5" y="210" width="62.5" height="22"></rect><text x="126.75" y="225">'são'</text></g></g><path d="M168 221h25.5"></path></g><path d="M193.5 221a10 10 0 0 0 10 -10v-170a10 10 0 0 1 10 -10"></path><path d="M40 31a10 10 0 0 1 10 10v208a10 10 0 0 0 10 10"></path><g><path d="M60 259h17"></path><g><path d="M77 259h10"></path><path d="M166.5 259h10"></path><g class="terminal "><path d="M87 259h0"></path><path d="M166.5 259h0"></path><rect x="87" y="248" width="79.5" height="22"></rect><text x="126.75" y="263">'estão'</text></g></g><path d="M176.5 259h17"></path></g><path d="M193.5 259a10 10 0 0 0 10 -10v-208a10 10 0 0 1 10 -10"></path><path d="M40 31a10 10 0 0 1 10 10v246a10 10 0 0 0 10 10"></path><g><path d="M60 297h0"></path><g><path d="M60 297h10"></path><path d="M183.5 297h10"></path><g class="terminal "><path d="M70 297h0"></path><path d="M183.5 297h0"></path><rect x="70" y="286" width="113.5" height="22"></rect><text x="126.75" y="301">'estiverem'</text></g></g><path d="M193.5 297h0"></path></g><path d="M193.5 297a10 10 0 0 0 10 -10v-246a10 10 0 0 1 10 -10"></path><path d="M40 31a10 10 0 0 1 10 10v284a10 10 0 0 0 10 10"></path><g><path d="M60 335h25.5"></path><g><path d="M85.5 335h10"></path><path d="M158 335h10"></path><g class="terminal "><path d="M95.5 335h0"></path><path d="M158 335h0"></path><rect x="95.5" y="324" width="62.5" height="22"></rect><text x="126.75" y="339">'ser'</text></g></g><path d="M168 335h25.5"></path></g><path d="M193.5 335a10 10 0 0 0 10 -10v-284a10 10 0 0 1 10 -10"></path><path d="M40 31a10 10 0 0 1 10 10v322a10 10 0 0 0 10 10"></path><g><path d="M60 373h17"></path><g><path d="M77 373h10"></path><path d="M166.5 373h10"></path><g class="terminal "><path d="M87 373h0"></path><path d="M166.5 373h0"></path><rect x="87" y="362" width="79.5" height="22"></rect><text x="126.75" y="377">'serem'</text></g></g><path d="M176.5 373h17"></path></g><path d="M193.5 373a10 10 0 0 0 10 -10v-322a10 10 0 0 1 10 -10"></path><path d="M40 31a10 10 0 0 1 10 10v360a10 10 0 0 0 10 10"></path><g><path d="M60 411h17"></path><g><path d="M77 411h10"></path><path d="M166.5 411h10"></path><g class="terminal "><path d="M87 411h0"></path><path d="M166.5 411h0"></path><rect x="87" y="400" width="79.5" height="22"></rect><text x="126.75" y="415">'estar'</text></g></g><path d="M176.5 411h17"></path></g><path d="M193.5 411a10 10 0 0 0 10 -10v-360a10 10 0 0 1 10 -10"></path><path d="M40 31a10 10 0 0 1 10 10v398a10 10 0 0 0 10 10"></path><g><path d="M60 449h17"></path><g><path d="M77 449h10"></path><path d="M166.5 449h10"></path><g class="terminal "><path d="M87 449h0"></path><path d="M166.5 449h0"></path><rect x="87" y="438" width="79.5" height="22"></rect><text x="126.75" y="453">'poder'</text></g></g><path d="M176.5 449h17"></path></g><path d="M193.5 449a10 10 0 0 0 10 -10v-398a10 10 0 0 1 10 -10"></path><path d="M40 31a10 10 0 0 1 10 10v436a10 10 0 0 0 10 10"></path><g><path d="M60 487h17"></path><g><path d="M77 487h10"></path><path d="M166.5 487h10"></path><g class="terminal "><path d="M87 487h0"></path><path d="M166.5 487h0"></path><rect x="87" y="476" width="79.5" height="22"></rect><text x="126.75" y="491">'puder'</text></g></g><path d="M176.5 487h17"></path></g><path d="M193.5 487a10 10 0 0 0 10 -10v-436a10 10 0 0 1 10 -10"></path><path d="M40 31a10 10 0 0 1 10 10v474a10 10 0 0 0 10 10"></path><g><path d="M60 525h25.5"></path><g><path d="M85.5 525h10"></path><path d="M158 525h10"></path><g class="terminal "><path d="M95.5 525h0"></path><path d="M158 525h0"></path><rect x="95.5" y="514" width="62.5" height="22"></rect><text x="126.75" y="529">'foi'</text></g></g><path d="M168 525h25.5"></path></g><path d="M193.5 525a10 10 0 0 0 10 -10v-474a10 10 0 0 1 10 -10"></path><path d="M40 31a10 10 0 0 1 10 10v512a10 10 0 0 0 10 10"></path><g><path d="M60 563h8.5"></path><g><path d="M68.5 563h10"></path><path d="M175 563h10"></path><g class="terminal "><path d="M78.5 563h0"></path><path d="M175 563h0"></path><rect x="78.5" y="552" width="96.5" height="22"></rect><text x="126.75" y="567">'estamos'</text></g></g><path d="M185 563h8.5"></path></g><path d="M193.5 563a10 10 0 0 0 10 -10v-512a10 10 0 0 1 10 -10"></path><path d="M40 31a10 10 0 0 1 10 10v550a10 10 0 0 0 10 10"></path><g><path d="M60 601h29.75"></path><g><path d="M89.75 601h10"></path><path d="M153.75 601h10"></path><g class="terminal "><path d="M99.75 601h0"></path><path d="M153.75 601h0"></path><rect x="99.75" y="590" width="54" height="22"></rect><text x="126.75" y="605">'há'</text></g></g><path d="M163.75 601h29.75"></path></g><path d="M193.5 601a10 10 0 0 0 10 -10v-550a10 10 0 0 1 10 -10"></path><path d="M40 31a10 10 0 0 1 10 10v588a10 10 0 0 0 10 10"></path><g><path d="M60 639h21.25"></path><g><path d="M81.25 639h10"></path><path d="M162.25 639h10"></path><g class="terminal "><path d="M91.25 639h0"></path><path d="M162.25 639h0"></path><rect x="91.25" y="628" width="71" height="22"></rect><text x="126.75" y="643">'pode'</text></g></g><path d="M172.25 639h21.25"></path></g><path d="M193.5 639a10 10 0 0 0 10 -10v-588a10 10 0 0 1 10 -10"></path><path d="M40 31a10 10 0 0 1 10 10v626a10 10 0 0 0 10 10"></path><g><path d="M60 677h12.75"></path><g><path d="M72.75 677h10"></path><path d="M170.75 677h10"></path><g class="terminal "><path d="M82.75 677h0"></path><path d="M170.75 677h0"></path><rect x="82.75" y="666" width="88" height="22"></rect><text x="126.75" y="681">'existe'</text></g></g><path d="M180.75 677h12.75"></path></g><path d="M193.5 677a10 10 0 0 0 10 -10v-626a10 10 0 0 1 10 -10"></path><path d="M40 31a10 10 0 0 1 10 10v664a10 10 0 0 0 10 10"></path><g><path d="M60 715h8.5"></path><g><path d="M68.5 715h10"></path><path d="M175 715h10"></path><g class="terminal "><path d="M78.5 715h0"></path><path d="M175 715h0"></path><rect x="78.5" y="704" width="96.5" height="22"></rect><text x="126.75" y="719">'existir'</text></g></g><path d="M185 715h8.5"></path></g><path d="M193.5 715a10 10 0 0 0 10 -10v-664a10 10 0 0 1 10 -10"></path><path d="M40 31a10 10 0 0 1 10 10v702a10 10 0 0 0 10 10"></path><g><path d="M60 753h12.75"></path><g><path d="M72.75 753h10"></path><path d="M170.75 753h10"></path><g class="terminal "><path d="M82.75 753h0"></path><path d="M170.75 753h0"></path><rect x="82.75" y="742" width="88" height="22"></rect><text x="126.75" y="757">'contém'</text></g></g><path d="M180.75 753h12.75"></path></g><path d="M193.5 753a10 10 0 0 0 10 -10v-702a10 10 0 0 1 10 -10"></path><path d="M40 31a10 10 0 0 1 10 10v740a10 10 0 0 0 10 10"></path><g><path d="M60 791h4.25"></path><g><path d="M64.25 791h10"></path><path d="M179.25 791h10"></path><g class="terminal "><path d="M74.25 791h0"></path><path d="M179.25 791h0"></path><rect x="74.25" y="780" width="105" height="22"></rect><text x="126.75" y="795">'contiver'</text></g></g><path d="M189.25 791h4.25"></path></g><path d="M193.5 791a10 10 0 0 0 10 -10v-740a10 10 0 0 1 10 -10"></path><path d="M40 31a10 10 0 0 1 10 10v778a10 10 0 0 0 10 10"></path><g><path d="M60 829h12.75"></path><g><path d="M72.75 829h10"></path><path d="M170.75 829h10"></path><g class="terminal "><path d="M82.75 829h0"></path><path d="M170.75 829h0"></path><rect x="82.75" y="818" width="88" height="22"></rect><text x="126.75" y="833">'possui'</text></g></g><path d="M180.75 829h12.75"></path></g><path d="M193.5 829a10 10 0 0 0 10 -10v-778a10 10 0 0 1 10 -10"></path><path d="M40 31a10 10 0 0 1 10 10v816a10 10 0 0 0 10 10"></path><g><path d="M60 867h8.5"></path><g><path d="M68.5 867h10"></path><path d="M175 867h10"></path><g class="terminal "><path d="M78.5 867h0"></path><path d="M175 867h0"></path><rect x="78.5" y="856" width="96.5" height="22"></rect><text x="126.75" y="871">'possuir'</text></g></g><path d="M185 867h8.5"></path></g><path d="M193.5 867a10 10 0 0 0 10 -10v-816a10 10 0 0 1 10 -10"></path></g><path d="M 213.5 31 h 20 m 0 -10 v 20"></path></g><defs><style type="text/css"><![CDATA[
svg.railroad-diagram path { stroke-width: 2; stroke: darkgray; fill: rgba(0, 0, 0, 0);}/* All text except comments. */svg.railroad-diagram text { font: bold 12px Hack, "Source Code Pro", monospace; text-anchor: middle; fill: #404040;}/* Comment text */svg.railroad-diagram text.comment { font: italic 10px Hack, "Source Code Pro", monospace; fill: #404040;}/* The terminal boxes. */svg.railroad-diagram g.terminal rect { stroke-width: 2; stroke: #404040; fill: rgba(200, 200, 200, 1);}svg.railroad-diagram g.non-terminal rect { /* The non-terminal boxes. */ stroke-width: 2; stroke: #404040; fill: rgba(255, 255, 255, 1);}/* Multiple choice text, not working atm. */svg.railroad-diagram text.diagram-text { font-size: 12px Hack, "Source Code Pro", monospace; fill: red;}/* Multiple choice text, not working atm. */svg.railroad-diagram path.diagram-text { stroke-width: 1; stroke: red; fill: red; cursor: help;}
 ]]>
</style></defs></svg>